#VRML V2.0 utf8
Shape { appearance Appearance { material Material { diffuseColor 0.03 0.03 0.03 specularColor 0.15 0.15 0.15 shininess 0.35 } } geometry IndexedFaceSet { solid TRUE coord Coordinate { point [ 3.350000 1.510152 0.300002, -3.350001 1.510152 0.300002, -3.650001 0.987983 0.000002, 3.650000 0.987983 0.000002, 0.550000 5.199852 0.850671, -0.550000 5.199852 0.850671, -0.550565 1.510153 0.850670, 0.550564 1.510153 0.850670, -0.550565 4.400152 4.849336, -0.550000 5.199850 4.849336, 0.550000 5.199850 4.849336, 0.550564 4.400152 4.849336, -0.550000 5.199852 0.850671, -0.550000 5.199851 2.200004, -0.550565 1.510152 2.200011, -0.550565 1.510153 0.850670, -0.550565 1.510151 4.849335, -0.550565 3.100152 4.849335, 0.550564 3.100152 4.849335, 0.550564 1.510151 4.849335, 0.550564 3.100152 4.500003, 0.550564 3.100152 4.849335, -0.550565 3.100152 4.849335, -0.550565 3.100152 4.500003, 0.550564 4.400152 4.500004, -0.550565 4.400152 4.500004, -0.550565 4.400152 4.849336, 0.550564 4.400152 4.849336, -1.999333 1.510152 3.499994, -1.999333 5.199851 3.500004, -0.550000 5.199851 3.500004, -0.550565 1.510152 3.499994, 0.550564 3.100152 4.500003, -0.550565 3.100152 4.500003, -0.550565 4.400152 4.500004, 0.550564 4.400152 4.500004, 3.650000 0.987978 5.700003, -3.650001 0.987978 5.700003, -3.350001 1.510151 5.400003, 3.350000 1.510151 5.400003, -3.350001 1.510152 0.300002, -1.999333 1.510152 2.200011, -1.999333 1.510152 3.499994, -3.350001 1.510151 5.400003, 0.550000 5.199851 3.500004, 1.999332 5.199851 3.500004, 1.999332 1.510152 3.499994, 0.550564 1.510152 3.499994, 3.650000 -0.699848 1.725002, 4.450000 -0.699848 1.725002, 4.450000 -0.699848 2.100002, 3.650000 -0.699848 2.100002, -3.350001 1.510152 0.300002, -3.350001 1.510151 5.400003, -3.650001 0.987978 5.700003, -3.650001 0.987983 0.000002, 3.650000 0.300152 2.100002, 4.450000 0.300152 2.100002, 4.450000 0.300152 3.600002, 3.650000 0.300152 3.600002, 1.999332 5.199851 3.500004, 1.999332 5.199851 2.200004, 1.999332 1.510152 2.200011, 1.999332 1.510152 3.499994, 0.550564 1.510152 2.200011, 0.550000 5.199851 2.200004, 0.550000 5.199852 0.850671, 0.550564 1.510153 0.850670, 1.999332 1.510152 2.200011, 1.999332 5.199851 2.200004, 0.550000 5.199851 2.200004, 0.550564 1.510152 2.200011, -0.550000 5.199851 2.200004, -1.999333 5.199851 2.200004, -1.999333 1.510152 2.200011, -0.550565 1.510152 2.200011, -3.650001 -0.699849 3.975002, -3.650001 -5.199850 3.975001, -4.450000 -5.199850 3.975001, -4.450000 -0.699849 3.975002, -3.650001 0.300152 3.600002, -3.650001 -0.699849 3.600002, -4.450000 -0.699849 3.600002, -4.450000 0.300152 3.600002, 3.650000 0.300152 3.600002, 4.450000 0.300152 3.600002, 4.450000 -0.699849 3.600002, 3.650000 -0.699849 3.600002, -3.650001 -5.199848 1.725000, -3.650001 -0.699848 1.725002, -4.450000 -0.699848 1.725002, -4.450000 -5.199848 1.725000, -1.999333 5.199851 2.200004, -1.999333 5.199851 3.500004, -1.999333 1.510152 3.499994, -1.999333 1.510152 2.200011, 3.650000 0.987983 0.000002, 3.650000 0.987978 5.700003, 3.350000 1.510151 5.400003, 3.350000 1.510152 0.300002, -3.650001 -0.699848 2.100002, -3.650001 0.300152 2.100002, -4.450000 0.300152 2.100002, -4.450000 -0.699848 2.100002, 3.650000 -0.699848 2.100002, 4.450000 -0.699848 2.100002, 4.450000 0.300152 2.100002, 3.650000 0.300152 2.100002, -3.650001 0.300152 2.100002, -3.650001 0.300152 3.600002, -4.450000 0.300152 3.600002, -4.450000 0.300152 2.100002, 3.650000 -5.199848 1.725000, 4.450000 -5.199848 1.725000, 4.450000 -0.699848 1.725002, 3.650000 -0.699848 1.725002, -3.650001 -0.699848 1.725002, -3.650001 -0.699848 2.100002, -4.450000 -0.699848 2.100002, -4.450000 -0.699848 1.725002, 3.650000 -0.699849 3.975002, 4.450000 -0.699849 3.975002, 4.450000 -5.199850 3.975001, 3.650000 -5.199850 3.975001, 3.650000 -0.699849 3.600002, 4.450000 -0.699849 3.600002, 4.450000 -0.699849 3.975002, 3.650000 -0.699849 3.975002, -3.650001 -0.699849 3.600002, -3.650001 -0.699849 3.975002, -4.450000 -0.699849 3.975002, -4.450000 -0.699849 3.600002, -2.950000 -5.199852 5.700001, -2.950000 -2.199851 5.700002, -2.950000 -2.199847 0.000001, -2.950000 -5.199847 0.000000, 2.949999 -5.199852 5.700001, 2.949999 -5.199847 0.000000, 2.949999 -2.199847 0.000001, 2.949999 -2.199851 5.700002, 3.350000 1.510151 5.400003, 1.999332 1.510152 3.499994, 1.999332 1.510152 2.200011, 3.350000 1.510152 0.300002, 2.949999 -2.199847 0.000001, -2.950000 -2.199847 0.000001, -2.950000 -2.199851 5.700002, 2.949999 -2.199851 5.700002, 4.450000 -5.199850 3.975001, 4.450000 -0.699848 1.725002, 4.450000 -5.199848 1.725000, 4.450000 -0.699848 2.100002, 4.450000 -0.699849 3.600002, 4.450000 -0.699849 3.975002, 4.450000 0.300152 3.600002, 4.450000 0.300152 2.100002, 0.550564 1.510151 4.849335, 0.550000 5.199851 3.500004, 0.550564 1.510152 3.499994, 0.550564 3.100152 4.500003, 0.550564 3.100152 4.849335, 0.550564 4.400152 4.500004, 0.550000 5.199850 4.849336, 0.550564 4.400152 4.849336, -0.550000 5.199850 4.849336, -0.550565 4.400152 4.500004, -0.550000 5.199851 3.500004, -0.550565 4.400152 4.849336, -0.550565 1.510151 4.849335, -0.550565 1.510152 3.499994, -0.550565 3.100152 4.500003, -0.550565 3.100152 4.849335, 1.999332 5.199851 2.200004, 0.550000 5.199851 3.500004, 0.550000 5.199851 2.200004, 1.999332 5.199851 3.500004, 0.550000 5.199852 0.850671, -0.550000 5.199851 2.200004, -0.550000 5.199852 0.850671, -0.550000 5.199851 3.500004, -0.550000 5.199850 4.849336, 0.550000 5.199850 4.849336, -1.999333 5.199851 3.500004, -1.999333 5.199851 2.200004, -3.650001 -5.199851 5.700001, -2.950000 -2.199851 5.700002, -2.950000 -5.199852 5.700001, -3.650001 0.987978 5.700003, 2.949999 -2.199851 5.700002, 3.650000 -5.199851 5.700001, 2.949999 -5.199852 5.700001, 3.650000 0.987978 5.700003, 4.450000 -5.199850 3.975001, 3.650000 -5.199848 1.725000, 3.650000 -5.199850 3.975001, 4.450000 -5.199848 1.725000, 3.650000 -5.199851 5.700001, 2.949999 -5.199847 0.000000, 2.949999 -5.199852 5.700001, 3.650000 -5.199847 0.000000, 3.650000 0.987983 0.000002, 2.949999 -5.199847 0.000000, 3.650000 -5.199847 0.000000, 2.949999 -2.199847 0.000001, -2.950000 -2.199847 0.000001, -3.650001 -5.199847 0.000000, -2.950000 -5.199847 0.000000, -3.650001 0.987983 0.000002, -3.650001 -5.199848 1.725000, -3.650001 -5.199847 0.000000, -3.650001 -0.699848 1.725002, -3.650001 0.987983 0.000002, -3.650001 0.300152 2.100002, -3.650001 0.987978 5.700003, -3.650001 0.300152 3.600002, -3.650001 -0.699849 3.600002, -3.650001 -0.699849 3.975002, -3.650001 -5.199851 5.700001, -3.650001 -5.199850 3.975001, -3.650001 -0.699848 2.100002, 3.650000 -0.699848 2.100002, 3.650000 0.300152 2.100002, 3.650000 -0.699848 1.725002, 3.650000 -0.699849 3.975002, 3.650000 0.300152 3.600002, 3.650000 -0.699849 3.600002, 3.650000 -5.199851 5.700001, 3.650000 -5.199850 3.975001, 3.650000 -5.199848 1.725000, 3.650000 0.987983 0.000002, 3.650000 -5.199847 0.000000, 3.650000 0.987978 5.700003, -4.450000 0.300152 3.600002, -4.450000 -0.699848 2.100002, -4.450000 0.300152 2.100002, -4.450000 -5.199848 1.725000, -4.450000 -0.699848 1.725002, -4.450000 -5.199850 3.975001, -4.450000 -0.699849 3.600002, -4.450000 -0.699849 3.975002, -2.950000 -5.199852 5.700001, -3.650001 -5.199850 3.975001, -3.650001 -5.199851 5.700001, -3.650001 -5.199848 1.725000, -3.650001 -5.199847 0.000000, -2.950000 -5.199847 0.000000, -4.450000 -5.199848 1.725000, -4.450000 -5.199850 3.975001, -3.350001 1.510152 0.300002, -0.550565 1.510153 0.850670, -1.999333 1.510152 2.200011, 3.350000 1.510152 0.300002, 0.550564 1.510153 0.850670, 0.550564 1.510152 2.200011, 1.999332 1.510152 2.200011, -0.550565 1.510152 2.200011, 1.999332 1.510152 3.499994, 0.550564 1.510151 4.849335, 0.550564 1.510152 3.499994, -3.350001 1.510151 5.400003, -0.550565 1.510151 4.849335, 3.350000 1.510151 5.400003, -1.999333 1.510152 3.499994, -0.550565 1.510152 3.499994 ] } coordIndex [ 0, 1, 2 -1, 0, 2, 3 -1, 4, 5, 6 -1, 4, 6, 7 -1, 8, 9, 10 -1, 8, 10, 11 -1, 12, 13, 14 -1, 12, 14, 15 -1, 16, 17, 18 -1, 16, 18, 19 -1, 20, 21, 22 -1, 20, 22, 23 -1, 24, 25, 26 -1, 24, 26, 27 -1, 28, 29, 30 -1, 28, 30, 31 -1, 32, 33, 34 -1, 32, 34, 35 -1, 36, 37, 38 -1, 36, 38, 39 -1, 40, 41, 42 -1, 40, 42, 43 -1, 44, 45, 46 -1, 44, 46, 47 -1, 48, 49, 50 -1, 48, 50, 51 -1, 52, 53, 54 -1, 52, 54, 55 -1, 56, 57, 58 -1, 56, 58, 59 -1, 60, 61, 62 -1, 60, 62, 63 -1, 64, 65, 66 -1, 64, 66, 67 -1, 68, 69, 70 -1, 68, 70, 71 -1, 72, 73, 74 -1, 72, 74, 75 -1, 76, 77, 78 -1, 76, 78, 79 -1, 80, 81, 82 -1, 80, 82, 83 -1, 84, 85, 86 -1, 84, 86, 87 -1, 88, 89, 90 -1, 88, 90, 91 -1, 92, 93, 94 -1, 92, 94, 95 -1, 96, 97, 98 -1, 96, 98, 99 -1, 100, 101, 102 -1, 100, 102, 103 -1, 104, 105, 106 -1, 104, 106, 107 -1, 108, 109, 110 -1, 108, 110, 111 -1, 112, 113, 114 -1, 112, 114, 115 -1, 116, 117, 118 -1, 116, 118, 119 -1, 120, 121, 122 -1, 120, 122, 123 -1, 124, 125, 126 -1, 124, 126, 127 -1, 128, 129, 130 -1, 128, 130, 131 -1, 132, 133, 134 -1, 132, 134, 135 -1, 136, 137, 138 -1, 136, 138, 139 -1, 140, 141, 142 -1, 140, 142, 143 -1, 144, 145, 146 -1, 144, 146, 147 -1, 148, 149, 150 -1, 149, 148, 151 -1, 151, 148, 152 -1, 152, 148, 153 -1, 151, 154, 155 -1, 154, 151, 152 -1, 156, 157, 158 -1, 157, 156, 159 -1, 159, 156, 160 -1, 157, 161, 162 -1, 161, 157, 159 -1, 162, 161, 163 -1, 164, 165, 166 -1, 165, 164, 167 -1, 166, 168, 169 -1, 168, 166, 170 -1, 170, 166, 165 -1, 168, 170, 171 -1, 172, 173, 174 -1, 173, 172, 175 -1, 176, 177, 178 -1, 177, 176, 179 -1, 179, 176, 180 -1, 180, 176, 181 -1, 177, 182, 183 -1, 182, 177, 179 -1, 184, 185, 186 -1, 185, 184, 187 -1, 185, 187, 188 -1, 188, 189, 190 -1, 189, 188, 191 -1, 191, 188, 187 -1, 192, 193, 194 -1, 193, 192, 195 -1, 196, 197, 198 -1, 197, 196, 199 -1, 199, 196, 194 -1, 199, 194, 193 -1, 200, 201, 202 -1, 201, 200, 203 -1, 203, 200, 204 -1, 204, 205, 206 -1, 205, 204, 207 -1, 207, 204, 200 -1, 208, 209, 210 -1, 211, 212, 209 -1, 212, 211, 213 -1, 209, 212, 210 -1, 212, 213, 214 -1, 214, 213, 215 -1, 215, 213, 216 -1, 216, 217, 218 -1, 217, 216, 213 -1, 219, 210, 212 -1, 220, 221, 222 -1, 223, 224, 225 -1, 226, 223, 227 -1, 228, 229, 230 -1, 229, 228, 222 -1, 229, 222, 221 -1, 229, 221, 231 -1, 231, 221, 224 -1, 231, 224, 223 -1, 231, 223, 226 -1, 232, 233, 234 -1, 233, 235, 236 -1, 235, 233, 237 -1, 237, 233, 238 -1, 238, 233, 232 -1, 237, 238, 239 -1, 240, 241, 242 -1, 241, 240, 243 -1, 243, 240, 244 -1, 244, 240, 245 -1, 241, 246, 247 -1, 246, 241, 243 -1, 248, 249, 250 -1, 249, 248, 251 -1, 249, 251, 252 -1, 252, 251, 253 -1, 253, 251, 254 -1, 255, 250, 249 -1, 256, 257, 258 -1, 259, 260, 261 -1, 260, 259, 262 -1, 260, 262, 263 -1, 261, 260, 257 -1, 261, 257, 256 -1 ] } }
