ISO-10303-21;
HEADER;
/* Generated by software containing ST-Developer
 * from STEP Tools, Inc. (www.steptools.com) 
 */
/* OPTION: using custom renumber hook */

FILE_DESCRIPTION(
/* description */ ('STEP AP242 Edition 2',
'CAx-IF Rec.Pracs.---Representation and Presentation of Product Manufa
cturing Information (PMI)---4.0---2014-10-13',
'CAx-IF Rec.Pracs.---3D Tessellated Geometry---0.4---2014-09-14','2;1',
'CAx-IF Rec.Pracs.---User Defined Attributes---1.5---2016-08-15'),
/* implementation_level */ '2;1');

FILE_NAME(
/* name */ 'Cherry MX keycaps parts - 1x1 R3 v8-1__Body2',
/* time_stamp */ '2026-09-16T09:45:28Z',
/* author */ (''),
/* organization */ (''),
/* preprocessor_version */ 'ST-DEVELOPER v20',
/* originating_system */ 'ONSHAPE BY PTC INC, 1.220',
/* authorisation */ '  ');

FILE_SCHEMA (('AP242_MANAGED_MODEL_BASED_3D_ENGINEERING_MIM_LF { 1 0 10303 442 3 1 4 }'));
ENDSEC;

DATA;
#10=SHAPE_REPRESENTATION_RELATIONSHIP('','',#645,#11);
#11=ADVANCED_BREP_SHAPE_REPRESENTATION('',(#643),#1371);
#12=TOROIDAL_SURFACE('',#679,0.000717890030709516,0.000299997923339046);
#13=TOROIDAL_SURFACE('',#682,0.000717951873353073,0.000299997832027165);
#14=TOROIDAL_SURFACE('',#686,0.000700052391410512,0.000299957729779733);
#15=TOROIDAL_SURFACE('',#689,0.000700014223482288,0.00029995582711576);
#16=B_SPLINE_SURFACE_WITH_KNOTS('',3,3,((#923,#924,#925,#926,#927,#928,
#929,#930,#931,#932),(#933,#934,#935,#936,#937,#938,#939,#940,#941,#942),
(#943,#944,#945,#946,#947,#948,#949,#950,#951,#952),(#953,#954,#955,#956,
#957,#958,#959,#960,#961,#962),(#963,#964,#965,#966,#967,#968,#969,#970,
#971,#972),(#973,#974,#975,#976,#977,#978,#979,#980,#981,#982),(#983,#984,
#985,#986,#987,#988,#989,#990,#991,#992)),.UNSPECIFIED.,.F.,.F.,.F.,(4,
1,1,1,4),(4,3,3,4),(1.09179570300767,1.13704378169037,1.22753993905576,
1.31803609642115,1.40853225378654),(0.0935807696182438,0.0984426008693176,
0.864622170761883,0.869237672433868),.UNSPECIFIED.);
#17=B_SPLINE_SURFACE_WITH_KNOTS('',3,3,((#1082,#1083,#1084,#1085,#1086,
#1087,#1088,#1089,#1090,#1091,#1092),(#1093,#1094,#1095,#1096,#1097,#1098,
#1099,#1100,#1101,#1102,#1103),(#1104,#1105,#1106,#1107,#1108,#1109,#1110,
#1111,#1112,#1113,#1114),(#1115,#1116,#1117,#1118,#1119,#1120,#1121,#1122,
#1123,#1124,#1125),(#1126,#1127,#1128,#1129,#1130,#1131,#1132,#1133,#1134,
#1135,#1136)),.UNSPECIFIED.,.F.,.F.,.F.,(4,1,4),(4,1,1,1,1,3,4),(0.,0.571428571428571,
1.),(2.96082738929439,3.12241120156436,3.4455788261043,3.76874645064424,
3.93033026291421,4.09191407518419,4.10322494204309),.UNSPECIFIED.);
#18=B_SPLINE_SURFACE_WITH_KNOTS('',3,3,((#1149,#1150,#1151,#1152),(#1153,
#1154,#1155,#1156),(#1157,#1158,#1159,#1160),(#1161,#1162,#1163,#1164),
(#1165,#1166,#1167,#1168),(#1169,#1170,#1171,#1172),(#1173,#1174,#1175,
#1176)),.UNSPECIFIED.,.F.,.F.,.F.,(4,1,1,1,4),(4,4),(1.04642996446757,1.16292028086005,
1.27941124284578,1.33765672383864,1.45414726078878),(0.0578990592545741,
0.921623341342823),.UNSPECIFIED.);
#19=B_SPLINE_SURFACE_WITH_KNOTS('',3,3,((#1284,#1285,#1286,#1287,#1288,
#1289,#1290,#1291,#1292,#1293,#1294),(#1295,#1296,#1297,#1298,#1299,#1300,
#1301,#1302,#1303,#1304,#1305),(#1306,#1307,#1308,#1309,#1310,#1311,#1312,
#1313,#1314,#1315,#1316),(#1317,#1318,#1319,#1320,#1321,#1322,#1323,#1324,
#1325,#1326,#1327),(#1328,#1329,#1330,#1331,#1332,#1333,#1334,#1335,#1336,
#1337,#1338)),.UNSPECIFIED.,.F.,.F.,.F.,(4,1,4),(4,1,1,1,1,3,4),(0.,0.5,
1.),(0.141556285543564,0.303480109637152,0.627327757824327,0.951175406011501,
1.11309923010509,1.27502305419868,1.28635772188523),.UNSPECIFIED.);
#20=B_SPLINE_CURVE_WITH_KNOTS('',3,(#877,#878,#879,#880,#881,#882,#883,
#884,#885,#886,#887),.UNSPECIFIED.,.T.,.F.,(1,1,1,1,1,1,1,1,1,1,1,1,1,1,
1),(-0.00656654202037902,-0.00437769468025268,-0.00218884734012634,1.16772147661754E-18,
0.00218884734012634,0.00437769468025268,0.00656654202037902,0.00875538936050536,
0.0109442367006317,0.013133084040758,0.0153219313808844,0.0175107787210107,
0.0196996260611371,0.0218884734012634,0.0240773207413897),.UNSPECIFIED.);
#21=B_SPLINE_CURVE_WITH_KNOTS('',3,(#993,#994,#995,#996),.UNSPECIFIED.,
 .F.,.F.,(4,4),(1.04083408558608E-17,0.0123718791686647),.UNSPECIFIED.);
#22=B_SPLINE_CURVE_WITH_KNOTS('',3,(#999,#1000,#1001,#1002,#1003,#1004,
#1005),.UNSPECIFIED.,.F.,.F.,(4,1,1,1,4),(2.26607517391158E-11,0.0027958579617626,
0.00559171590086445,0.0083875738399663,0.0111834317790682),
 .UNSPECIFIED.);
#23=B_SPLINE_CURVE_WITH_KNOTS('',3,(#1007,#1008,#1009,#1010),
 .UNSPECIFIED.,.F.,.F.,(4,4),(1.17993080356617E-16,0.0123717872081613),
 .UNSPECIFIED.);
#24=B_SPLINE_CURVE_WITH_KNOTS('',3,(#1012,#1013,#1014,#1015,#1016,#1017,
#1018),.UNSPECIFIED.,.F.,.F.,(4,1,1,1,4),(5.96660182189945E-15,0.00283041633939029,
0.00566083267877461,0.00849124901815893,0.0113216653575432),
 .UNSPECIFIED.);
#25=B_SPLINE_CURVE_WITH_KNOTS('',3,(#1037,#1038,#1039,#1040),
 .UNSPECIFIED.,.F.,.F.,(4,4),(0.000440878837249295,94.0959685945079),
 .UNSPECIFIED.);
#26=B_SPLINE_CURVE_WITH_KNOTS('',3,(#1043,#1044,#1045,#1046,#1047,#1048),
 .UNSPECIFIED.,.F.,.F.,(4,1,1,4),(0.,0.25,0.5,1.),.UNSPECIFIED.);
#27=B_SPLINE_CURVE_WITH_KNOTS('',3,(#1050,#1051,#1052,#1053),
 .UNSPECIFIED.,.F.,.F.,(4,4),(0.,1.),.UNSPECIFIED.);
#28=B_SPLINE_CURVE_WITH_KNOTS('',3,(#1055,#1056,#1057,#1058,#1059),
 .UNSPECIFIED.,.F.,.F.,(4,1,4),(2.81225892217363E-13,0.0532551137783361,
0.106510227556391),.UNSPECIFIED.);
#29=B_SPLINE_CURVE_WITH_KNOTS('',3,(#1061,#1062,#1063,#1064,#1065),
 .UNSPECIFIED.,.F.,.F.,(4,1,4),(327.780012525171,369.957381384192,412.134750243212),
 .UNSPECIFIED.);
#30=B_SPLINE_CURVE_WITH_KNOTS('',3,(#1071,#1072,#1073,#1074,#1075,#1076,
#1077),.UNSPECIFIED.,.F.,.F.,(4,1,1,1,4),(-4.09191406961568,-3.80914240092736,
-3.52637073223905,-3.24359906355073,-2.96082739486242),.UNSPECIFIED.);
#31=B_SPLINE_CURVE_WITH_KNOTS('',3,(#1137,#1138,#1139,#1140,#1141,#1142,
#1143),.UNSPECIFIED.,.F.,.F.,(4,1,1,1,4),(2.96087769194219,3.24363678775269,
3.52639588356319,3.80915497937369,4.09191407518419),.UNSPECIFIED.);
#32=B_SPLINE_CURVE_WITH_KNOTS('',3,(#1145,#1146,#1147,#1148),
 .UNSPECIFIED.,.F.,.F.,(4,4),(0.,1.),.UNSPECIFIED.);
#33=B_SPLINE_CURVE_WITH_KNOTS('',3,(#1177,#1178,#1179,#1180),
 .UNSPECIFIED.,.F.,.F.,(4,4),(0.,1.),.UNSPECIFIED.);
#34=B_SPLINE_CURVE_WITH_KNOTS('',3,(#1182,#1183,#1184,#1185,#1186,#1187),
 .UNSPECIFIED.,.F.,.F.,(4,1,1,4),(0.,0.25,0.5,1.),.UNSPECIFIED.);
#35=B_SPLINE_CURVE_WITH_KNOTS('',3,(#1189,#1190,#1191,#1192,#1193,#1194,
#1195),.UNSPECIFIED.,.F.,.F.,(4,1,1,1,4),(210.48124793922,240.203998220237,
269.926748501254,299.64949878227,329.372249063287),.UNSPECIFIED.);
#36=B_SPLINE_CURVE_WITH_KNOTS('',3,(#1197,#1198,#1199,#1200,#1201,#1202,
#1203,#1204,#1205,#1206),.UNSPECIFIED.,.F.,.F.,(4,1,1,1,1,1,1,4),(0.,0.125,
0.25,0.375,0.5,0.625,0.75,1.),.UNSPECIFIED.);
#37=B_SPLINE_CURVE_WITH_KNOTS('',3,(#1208,#1209,#1210,#1211),
 .UNSPECIFIED.,.F.,.F.,(4,4),(0.,1.),.UNSPECIFIED.);
#38=B_SPLINE_CURVE_WITH_KNOTS('',3,(#1213,#1214,#1215,#1216,#1217,#1218,
#1219),.UNSPECIFIED.,.F.,.F.,(4,1,1,1,4),(0.,0.249999975132326,0.499999950264653,
0.749999925396979,0.999999900529305),.UNSPECIFIED.);
#39=B_SPLINE_CURVE_WITH_KNOTS('',3,(#1221,#1222,#1223,#1224),
 .UNSPECIFIED.,.F.,.F.,(4,4),(0.,1.),.UNSPECIFIED.);
#40=B_SPLINE_CURVE_WITH_KNOTS('',3,(#1226,#1227,#1228,#1229,#1230),
 .UNSPECIFIED.,.F.,.F.,(4,1,4),(2.25749737890518E-17,0.0532590704609045,
0.106518140921809),.UNSPECIFIED.);
#41=B_SPLINE_CURVE_WITH_KNOTS('',3,(#1232,#1233,#1234,#1235,#1236),
 .UNSPECIFIED.,.F.,.F.,(4,1,4),(307.865249756788,350.042618615808,392.219987474829),
 .UNSPECIFIED.);
#42=B_SPLINE_CURVE_WITH_KNOTS('',3,(#1240,#1241,#1242,#1243),
 .UNSPECIFIED.,.F.,.F.,(4,4),(0.,12.5177370575303),.UNSPECIFIED.);
#43=B_SPLINE_CURVE_WITH_KNOTS('',3,(#1249,#1250,#1251,#1252),
 .UNSPECIFIED.,.F.,.F.,(4,4),(0.,1.),.UNSPECIFIED.);
#44=B_SPLINE_CURVE_WITH_KNOTS('',3,(#1254,#1255,#1256,#1257),
 .UNSPECIFIED.,.F.,.F.,(4,4),(0.,1.),.UNSPECIFIED.);
#45=B_SPLINE_CURVE_WITH_KNOTS('',3,(#1259,#1260,#1261,#1262,#1263),
 .UNSPECIFIED.,.F.,.F.,(4,1,4),(0.,0.0550244527738605,0.110048905547721),
 .UNSPECIFIED.);
#46=B_SPLINE_CURVE_WITH_KNOTS('',3,(#1265,#1266,#1267,#1268,#1269),
 .UNSPECIFIED.,.F.,.F.,(4,1,4),(270.,315.,360.),.UNSPECIFIED.);
#47=B_SPLINE_CURVE_WITH_KNOTS('',3,(#1273,#1274,#1275,#1276,#1277,#1278,
#1279),.UNSPECIFIED.,.F.,.F.,(4,1,1,1,4),(-1.27502304909292,-0.99165635948338,
-0.708289669873839,-0.424922980264299,-0.141556290654759),.UNSPECIFIED.);
#48=B_SPLINE_CURVE_WITH_KNOTS('',3,(#1339,#1340,#1341,#1342),
 .UNSPECIFIED.,.F.,.F.,(4,4),(0.,1.),.UNSPECIFIED.);
#49=B_SPLINE_CURVE_WITH_KNOTS('',3,(#1344,#1345,#1346,#1347),
 .UNSPECIFIED.,.F.,.F.,(4,4),(0.000106840473460615,94.2634189002614),
 .UNSPECIFIED.);
#50=B_SPLINE_CURVE_WITH_KNOTS('',3,(#1349,#1350,#1351,#1352,#1353),
 .UNSPECIFIED.,.F.,.F.,(4,1,4),(2.01812746691514E-14,0.0550252388229851,
0.11005047764595),.UNSPECIFIED.);
#51=B_SPLINE_CURVE_WITH_KNOTS('',3,(#1355,#1356,#1357,#1358,#1359),
 .UNSPECIFIED.,.F.,.F.,(4,1,4),(0.,45.,90.),.UNSPECIFIED.);
#52=B_SPLINE_CURVE_WITH_KNOTS('',3,(#1363,#1364,#1365,#1366),
 .UNSPECIFIED.,.F.,.F.,(4,4),(6.25000694784886E-8,12.5179324658175),
 .UNSPECIFIED.);
#53=CIRCLE('',#660,0.0028);
#54=CYLINDRICAL_SURFACE('',#659,0.0028);
#55=CYLINDRICAL_SURFACE('',#675,0.059825138383419);
#56=CYLINDRICAL_SURFACE('',#680,0.001);
#57=CYLINDRICAL_SURFACE('',#683,0.001);
#58=CYLINDRICAL_SURFACE('',#685,0.000300186719693229);
#59=CYLINDRICAL_SURFACE('',#687,0.001);
#60=CYLINDRICAL_SURFACE('',#690,0.001);
#61=CYLINDRICAL_SURFACE('',#691,0.000299996058458068);
#62=LINE('',#839,#106);
#63=LINE('',#841,#107);
#64=LINE('',#843,#108);
#65=LINE('',#847,#109);
#66=LINE('',#849,#110);
#67=LINE('',#853,#111);
#68=LINE('',#855,#112);
#69=LINE('',#859,#113);
#70=LINE('',#861,#114);
#71=LINE('',#865,#115);
#72=LINE('',#867,#116);
#73=LINE('',#871,#117);
#74=LINE('',#873,#118);
#75=LINE('',#892,#119);
#76=LINE('',#894,#120);
#77=LINE('',#898,#121);
#78=LINE('',#900,#122);
#79=LINE('',#904,#123);
#80=LINE('',#906,#124);
#81=LINE('',#910,#125);
#82=LINE('',#912,#126);
#83=LINE('',#916,#127);
#84=LINE('',#918,#128);
#85=LINE('',#921,#129);
#86=LINE('',#1020,#130);
#87=LINE('',#1022,#131);
#88=LINE('',#1024,#132);
#89=LINE('',#1027,#133);
#90=LINE('',#1029,#134);
#91=LINE('',#1031,#135);
#92=LINE('',#1033,#136);
#93=LINE('',#1035,#137);
#94=LINE('',#1068,#138);
#95=LINE('',#1069,#139);
#96=LINE('',#1079,#140);
#97=LINE('',#1081,#141);
#98=LINE('',#1238,#142);
#99=LINE('',#1245,#143);
#100=LINE('',#1247,#144);
#101=LINE('',#1271,#145);
#102=LINE('',#1281,#146);
#103=LINE('',#1283,#147);
#104=LINE('',#1361,#148);
#105=LINE('',#1368,#149);
#106=VECTOR('',#700,1.);
#107=VECTOR('',#701,1.);
#108=VECTOR('',#702,1.);
#109=VECTOR('',#707,1.);
#110=VECTOR('',#708,1.);
#111=VECTOR('',#713,1.);
#112=VECTOR('',#714,1.);
#113=VECTOR('',#719,1.);
#114=VECTOR('',#720,1.);
#115=VECTOR('',#725,1.);
#116=VECTOR('',#726,1.);
#117=VECTOR('',#731,1.);
#118=VECTOR('',#732,1.);
#119=VECTOR('',#741,1.);
#120=VECTOR('',#742,1.);
#121=VECTOR('',#747,1.);
#122=VECTOR('',#748,1.);
#123=VECTOR('',#753,1.);
#124=VECTOR('',#754,1.);
#125=VECTOR('',#759,1.);
#126=VECTOR('',#760,1.);
#127=VECTOR('',#765,1.);
#128=VECTOR('',#766,1.);
#129=VECTOR('',#771,1.);
#130=VECTOR('',#776,1.);
#131=VECTOR('',#777,1.);
#132=VECTOR('',#778,1.);
#133=VECTOR('',#783,1.);
#134=VECTOR('',#784,1.);
#135=VECTOR('',#787,1.);
#136=VECTOR('',#788,1.);
#137=VECTOR('',#791,1.);
#138=VECTOR('',#796,1.);
#139=VECTOR('',#797,1.);
#140=VECTOR('',#800,1.);
#141=VECTOR('',#801,1.);
#142=VECTOR('',#806,1.);
#143=VECTOR('',#809,1.);
#144=VECTOR('',#810,1.);
#145=VECTOR('',#817,1.);
#146=VECTOR('',#820,1.);
#147=VECTOR('',#821,1.);
#148=VECTOR('',#826,1.);
#149=VECTOR('',#831,1.);
#150=ORIENTED_EDGE('',*,*,#330,.F.);
#151=ORIENTED_EDGE('',*,*,#331,.F.);
#152=ORIENTED_EDGE('',*,*,#332,.T.);
#153=ORIENTED_EDGE('',*,*,#333,.T.);
#154=ORIENTED_EDGE('',*,*,#334,.F.);
#155=ORIENTED_EDGE('',*,*,#335,.F.);
#156=ORIENTED_EDGE('',*,*,#336,.T.);
#157=ORIENTED_EDGE('',*,*,#331,.T.);
#158=ORIENTED_EDGE('',*,*,#337,.F.);
#159=ORIENTED_EDGE('',*,*,#338,.F.);
#160=ORIENTED_EDGE('',*,*,#339,.T.);
#161=ORIENTED_EDGE('',*,*,#335,.T.);
#162=ORIENTED_EDGE('',*,*,#340,.F.);
#163=ORIENTED_EDGE('',*,*,#341,.F.);
#164=ORIENTED_EDGE('',*,*,#342,.T.);
#165=ORIENTED_EDGE('',*,*,#338,.T.);
#166=ORIENTED_EDGE('',*,*,#343,.F.);
#167=ORIENTED_EDGE('',*,*,#344,.F.);
#168=ORIENTED_EDGE('',*,*,#345,.T.);
#169=ORIENTED_EDGE('',*,*,#341,.T.);
#170=ORIENTED_EDGE('',*,*,#346,.F.);
#171=ORIENTED_EDGE('',*,*,#347,.F.);
#172=ORIENTED_EDGE('',*,*,#348,.T.);
#173=ORIENTED_EDGE('',*,*,#344,.T.);
#174=ORIENTED_EDGE('',*,*,#349,.T.);
#175=ORIENTED_EDGE('',*,*,#350,.F.);
#176=ORIENTED_EDGE('',*,*,#351,.F.);
#177=ORIENTED_EDGE('',*,*,#333,.F.);
#178=ORIENTED_EDGE('',*,*,#352,.T.);
#179=ORIENTED_EDGE('',*,*,#353,.T.);
#180=ORIENTED_EDGE('',*,*,#354,.F.);
#181=ORIENTED_EDGE('',*,*,#355,.F.);
#182=ORIENTED_EDGE('',*,*,#356,.T.);
#183=ORIENTED_EDGE('',*,*,#347,.T.);
#184=ORIENTED_EDGE('',*,*,#357,.F.);
#185=ORIENTED_EDGE('',*,*,#358,.F.);
#186=ORIENTED_EDGE('',*,*,#359,.T.);
#187=ORIENTED_EDGE('',*,*,#355,.T.);
#188=ORIENTED_EDGE('',*,*,#360,.F.);
#189=ORIENTED_EDGE('',*,*,#361,.F.);
#190=ORIENTED_EDGE('',*,*,#362,.T.);
#191=ORIENTED_EDGE('',*,*,#358,.T.);
#192=ORIENTED_EDGE('',*,*,#363,.F.);
#193=ORIENTED_EDGE('',*,*,#364,.F.);
#194=ORIENTED_EDGE('',*,*,#365,.T.);
#195=ORIENTED_EDGE('',*,*,#361,.T.);
#196=ORIENTED_EDGE('',*,*,#366,.F.);
#197=ORIENTED_EDGE('',*,*,#353,.F.);
#198=ORIENTED_EDGE('',*,*,#367,.T.);
#199=ORIENTED_EDGE('',*,*,#364,.T.);
#200=ORIENTED_EDGE('',*,*,#349,.F.);
#201=ORIENTED_EDGE('',*,*,#367,.F.);
#202=ORIENTED_EDGE('',*,*,#352,.F.);
#203=ORIENTED_EDGE('',*,*,#332,.F.);
#204=ORIENTED_EDGE('',*,*,#336,.F.);
#205=ORIENTED_EDGE('',*,*,#339,.F.);
#206=ORIENTED_EDGE('',*,*,#342,.F.);
#207=ORIENTED_EDGE('',*,*,#345,.F.);
#208=ORIENTED_EDGE('',*,*,#348,.F.);
#209=ORIENTED_EDGE('',*,*,#356,.F.);
#210=ORIENTED_EDGE('',*,*,#359,.F.);
#211=ORIENTED_EDGE('',*,*,#362,.F.);
#212=ORIENTED_EDGE('',*,*,#365,.F.);
#213=ORIENTED_EDGE('',*,*,#368,.T.);
#214=ORIENTED_EDGE('',*,*,#369,.T.);
#215=ORIENTED_EDGE('',*,*,#370,.T.);
#216=ORIENTED_EDGE('',*,*,#371,.T.);
#217=ORIENTED_EDGE('',*,*,#350,.T.);
#218=ORIENTED_EDGE('',*,*,#368,.F.);
#219=ORIENTED_EDGE('',*,*,#372,.T.);
#220=ORIENTED_EDGE('',*,*,#373,.F.);
#221=ORIENTED_EDGE('',*,*,#374,.T.);
#222=ORIENTED_EDGE('',*,*,#346,.T.);
#223=ORIENTED_EDGE('',*,*,#343,.T.);
#224=ORIENTED_EDGE('',*,*,#340,.T.);
#225=ORIENTED_EDGE('',*,*,#337,.T.);
#226=ORIENTED_EDGE('',*,*,#334,.T.);
#227=ORIENTED_EDGE('',*,*,#330,.T.);
#228=ORIENTED_EDGE('',*,*,#351,.T.);
#229=ORIENTED_EDGE('',*,*,#366,.T.);
#230=ORIENTED_EDGE('',*,*,#363,.T.);
#231=ORIENTED_EDGE('',*,*,#360,.T.);
#232=ORIENTED_EDGE('',*,*,#357,.T.);
#233=ORIENTED_EDGE('',*,*,#354,.T.);
#234=ORIENTED_EDGE('',*,*,#369,.F.);
#235=ORIENTED_EDGE('',*,*,#374,.F.);
#236=ORIENTED_EDGE('',*,*,#375,.F.);
#237=ORIENTED_EDGE('',*,*,#376,.T.);
#238=ORIENTED_EDGE('',*,*,#370,.F.);
#239=ORIENTED_EDGE('',*,*,#376,.F.);
#240=ORIENTED_EDGE('',*,*,#377,.F.);
#241=ORIENTED_EDGE('',*,*,#378,.T.);
#242=ORIENTED_EDGE('',*,*,#371,.F.);
#243=ORIENTED_EDGE('',*,*,#378,.F.);
#244=ORIENTED_EDGE('',*,*,#379,.F.);
#245=ORIENTED_EDGE('',*,*,#372,.F.);
#246=ORIENTED_EDGE('',*,*,#380,.T.);
#247=ORIENTED_EDGE('',*,*,#381,.T.);
#248=ORIENTED_EDGE('',*,*,#382,.T.);
#249=ORIENTED_EDGE('',*,*,#383,.T.);
#250=ORIENTED_EDGE('',*,*,#384,.T.);
#251=ORIENTED_EDGE('',*,*,#385,.T.);
#252=ORIENTED_EDGE('',*,*,#383,.F.);
#253=ORIENTED_EDGE('',*,*,#386,.T.);
#254=ORIENTED_EDGE('',*,*,#386,.F.);
#255=ORIENTED_EDGE('',*,*,#387,.F.);
#256=ORIENTED_EDGE('',*,*,#388,.F.);
#257=ORIENTED_EDGE('',*,*,#389,.F.);
#258=ORIENTED_EDGE('',*,*,#382,.F.);
#259=ORIENTED_EDGE('',*,*,#390,.T.);
#260=ORIENTED_EDGE('',*,*,#391,.F.);
#261=ORIENTED_EDGE('',*,*,#387,.T.);
#262=ORIENTED_EDGE('',*,*,#381,.F.);
#263=ORIENTED_EDGE('',*,*,#392,.F.);
#264=ORIENTED_EDGE('',*,*,#393,.F.);
#265=ORIENTED_EDGE('',*,*,#394,.F.);
#266=ORIENTED_EDGE('',*,*,#395,.F.);
#267=ORIENTED_EDGE('',*,*,#396,.F.);
#268=ORIENTED_EDGE('',*,*,#397,.F.);
#269=ORIENTED_EDGE('',*,*,#390,.F.);
#270=ORIENTED_EDGE('',*,*,#391,.T.);
#271=ORIENTED_EDGE('',*,*,#397,.T.);
#272=ORIENTED_EDGE('',*,*,#398,.T.);
#273=ORIENTED_EDGE('',*,*,#399,.T.);
#274=ORIENTED_EDGE('',*,*,#400,.T.);
#275=ORIENTED_EDGE('',*,*,#388,.T.);
#276=ORIENTED_EDGE('',*,*,#399,.F.);
#277=ORIENTED_EDGE('',*,*,#401,.T.);
#278=ORIENTED_EDGE('',*,*,#401,.F.);
#279=ORIENTED_EDGE('',*,*,#402,.F.);
#280=ORIENTED_EDGE('',*,*,#403,.F.);
#281=ORIENTED_EDGE('',*,*,#404,.F.);
#282=ORIENTED_EDGE('',*,*,#398,.F.);
#283=ORIENTED_EDGE('',*,*,#396,.T.);
#284=ORIENTED_EDGE('',*,*,#405,.F.);
#285=ORIENTED_EDGE('',*,*,#402,.T.);
#286=ORIENTED_EDGE('',*,*,#405,.T.);
#287=ORIENTED_EDGE('',*,*,#395,.T.);
#288=ORIENTED_EDGE('',*,*,#406,.T.);
#289=ORIENTED_EDGE('',*,*,#407,.T.);
#290=ORIENTED_EDGE('',*,*,#408,.T.);
#291=ORIENTED_EDGE('',*,*,#403,.T.);
#292=ORIENTED_EDGE('',*,*,#407,.F.);
#293=ORIENTED_EDGE('',*,*,#409,.T.);
#294=ORIENTED_EDGE('',*,*,#409,.F.);
#295=ORIENTED_EDGE('',*,*,#410,.F.);
#296=ORIENTED_EDGE('',*,*,#411,.F.);
#297=ORIENTED_EDGE('',*,*,#412,.F.);
#298=ORIENTED_EDGE('',*,*,#406,.F.);
#299=ORIENTED_EDGE('',*,*,#394,.T.);
#300=ORIENTED_EDGE('',*,*,#413,.F.);
#301=ORIENTED_EDGE('',*,*,#410,.T.);
#302=ORIENTED_EDGE('',*,*,#413,.T.);
#303=ORIENTED_EDGE('',*,*,#393,.T.);
#304=ORIENTED_EDGE('',*,*,#414,.T.);
#305=ORIENTED_EDGE('',*,*,#415,.T.);
#306=ORIENTED_EDGE('',*,*,#416,.T.);
#307=ORIENTED_EDGE('',*,*,#411,.T.);
#308=ORIENTED_EDGE('',*,*,#415,.F.);
#309=ORIENTED_EDGE('',*,*,#417,.T.);
#310=ORIENTED_EDGE('',*,*,#380,.F.);
#311=ORIENTED_EDGE('',*,*,#418,.T.);
#312=ORIENTED_EDGE('',*,*,#414,.F.);
#313=ORIENTED_EDGE('',*,*,#392,.T.);
#314=ORIENTED_EDGE('',*,*,#385,.F.);
#315=ORIENTED_EDGE('',*,*,#419,.F.);
#316=ORIENTED_EDGE('',*,*,#417,.F.);
#317=ORIENTED_EDGE('',*,*,#418,.F.);
#318=ORIENTED_EDGE('',*,*,#384,.F.);
#319=ORIENTED_EDGE('',*,*,#389,.T.);
#320=ORIENTED_EDGE('',*,*,#400,.F.);
#321=ORIENTED_EDGE('',*,*,#404,.T.);
#322=ORIENTED_EDGE('',*,*,#408,.F.);
#323=ORIENTED_EDGE('',*,*,#412,.T.);
#324=ORIENTED_EDGE('',*,*,#416,.F.);
#325=ORIENTED_EDGE('',*,*,#419,.T.);
#326=ORIENTED_EDGE('',*,*,#373,.T.);
#327=ORIENTED_EDGE('',*,*,#379,.T.);
#328=ORIENTED_EDGE('',*,*,#377,.T.);
#329=ORIENTED_EDGE('',*,*,#375,.T.);
#330=EDGE_CURVE('',#420,#421,#478,.T.);
#331=EDGE_CURVE('',#422,#420,#62,.T.);
#332=EDGE_CURVE('',#422,#423,#63,.T.);
#333=EDGE_CURVE('',#423,#421,#64,.T.);
#334=EDGE_CURVE('',#424,#420,#479,.T.);
#335=EDGE_CURVE('',#425,#424,#65,.T.);
#336=EDGE_CURVE('',#425,#422,#66,.T.);
#337=EDGE_CURVE('',#426,#424,#480,.T.);
#338=EDGE_CURVE('',#427,#426,#67,.T.);
#339=EDGE_CURVE('',#427,#425,#68,.T.);
#340=EDGE_CURVE('',#428,#426,#481,.T.);
#341=EDGE_CURVE('',#429,#428,#69,.T.);
#342=EDGE_CURVE('',#429,#427,#70,.T.);
#343=EDGE_CURVE('',#430,#428,#482,.T.);
#344=EDGE_CURVE('',#431,#430,#71,.T.);
#345=EDGE_CURVE('',#431,#429,#72,.T.);
#346=EDGE_CURVE('',#432,#430,#483,.T.);
#347=EDGE_CURVE('',#433,#432,#73,.T.);
#348=EDGE_CURVE('',#433,#431,#74,.T.);
#349=EDGE_CURVE('',#434,#434,#53,.T.);
#350=EDGE_CURVE('',#435,#435,#20,.T.);
#351=EDGE_CURVE('',#421,#436,#484,.T.);
#352=EDGE_CURVE('',#423,#437,#75,.T.);
#353=EDGE_CURVE('',#437,#436,#76,.T.);
#354=EDGE_CURVE('',#438,#432,#485,.T.);
#355=EDGE_CURVE('',#439,#438,#77,.T.);
#356=EDGE_CURVE('',#439,#433,#78,.T.);
#357=EDGE_CURVE('',#440,#438,#486,.T.);
#358=EDGE_CURVE('',#441,#440,#79,.T.);
#359=EDGE_CURVE('',#441,#439,#80,.T.);
#360=EDGE_CURVE('',#442,#440,#487,.T.);
#361=EDGE_CURVE('',#443,#442,#81,.T.);
#362=EDGE_CURVE('',#443,#441,#82,.T.);
#363=EDGE_CURVE('',#444,#442,#488,.T.);
#364=EDGE_CURVE('',#445,#444,#83,.T.);
#365=EDGE_CURVE('',#445,#443,#84,.T.);
#366=EDGE_CURVE('',#436,#444,#489,.T.);
#367=EDGE_CURVE('',#437,#445,#85,.T.);
#368=EDGE_CURVE('',#446,#447,#21,.T.);
#369=EDGE_CURVE('',#447,#448,#22,.T.);
#370=EDGE_CURVE('',#448,#449,#23,.T.);
#371=EDGE_CURVE('',#449,#446,#24,.T.);
#372=EDGE_CURVE('',#446,#450,#86,.F.);
#373=EDGE_CURVE('',#451,#450,#87,.F.);
#374=EDGE_CURVE('',#451,#447,#88,.T.);
#375=EDGE_CURVE('',#452,#451,#89,.T.);
#376=EDGE_CURVE('',#452,#448,#90,.T.);
#377=EDGE_CURVE('',#453,#452,#91,.T.);
#378=EDGE_CURVE('',#453,#449,#92,.T.);
#379=EDGE_CURVE('',#450,#453,#93,.F.);
#380=EDGE_CURVE('',#454,#455,#25,.F.);
#381=EDGE_CURVE('',#455,#456,#26,.T.);
#382=EDGE_CURVE('',#456,#457,#27,.T.);
#383=EDGE_CURVE('',#457,#454,#28,.F.);
#384=EDGE_CURVE('',#458,#459,#29,.F.);
#385=EDGE_CURVE('',#459,#454,#94,.T.);
#386=EDGE_CURVE('',#457,#458,#95,.F.);
#387=EDGE_CURVE('',#460,#457,#30,.T.);
#388=EDGE_CURVE('',#461,#460,#96,.T.);
#389=EDGE_CURVE('',#458,#461,#97,.F.);
#390=EDGE_CURVE('',#456,#462,#31,.T.);
#391=EDGE_CURVE('',#460,#462,#32,.T.);
#392=EDGE_CURVE('',#463,#455,#33,.T.);
#393=EDGE_CURVE('',#464,#463,#34,.T.);
#394=EDGE_CURVE('',#465,#464,#35,.F.);
#395=EDGE_CURVE('',#466,#465,#36,.T.);
#396=EDGE_CURVE('',#467,#466,#37,.T.);
#397=EDGE_CURVE('',#462,#467,#38,.T.);
#398=EDGE_CURVE('',#467,#468,#39,.F.);
#399=EDGE_CURVE('',#468,#460,#40,.F.);
#400=EDGE_CURVE('',#469,#461,#41,.F.);
#401=EDGE_CURVE('',#468,#469,#98,.F.);
#402=EDGE_CURVE('',#470,#468,#42,.F.);
#403=EDGE_CURVE('',#471,#470,#99,.T.);
#404=EDGE_CURVE('',#469,#471,#100,.F.);
#405=EDGE_CURVE('',#470,#466,#43,.F.);
#406=EDGE_CURVE('',#465,#472,#44,.T.);
#407=EDGE_CURVE('',#472,#470,#45,.F.);
#408=EDGE_CURVE('',#473,#471,#46,.F.);
#409=EDGE_CURVE('',#472,#473,#101,.F.);
#410=EDGE_CURVE('',#474,#472,#47,.T.);
#411=EDGE_CURVE('',#475,#474,#102,.T.);
#412=EDGE_CURVE('',#473,#475,#103,.T.);
#413=EDGE_CURVE('',#474,#464,#48,.T.);
#414=EDGE_CURVE('',#463,#476,#49,.F.);
#415=EDGE_CURVE('',#476,#474,#50,.F.);
#416=EDGE_CURVE('',#477,#475,#51,.F.);
#417=EDGE_CURVE('',#476,#477,#104,.F.);
#418=EDGE_CURVE('',#454,#476,#52,.T.);
#419=EDGE_CURVE('',#477,#459,#105,.T.);
#420=VERTEX_POINT('',#837);
#421=VERTEX_POINT('',#838);
#422=VERTEX_POINT('',#840);
#423=VERTEX_POINT('',#842);
#424=VERTEX_POINT('',#846);
#425=VERTEX_POINT('',#848);
#426=VERTEX_POINT('',#852);
#427=VERTEX_POINT('',#854);
#428=VERTEX_POINT('',#858);
#429=VERTEX_POINT('',#860);
#430=VERTEX_POINT('',#864);
#431=VERTEX_POINT('',#866);
#432=VERTEX_POINT('',#870);
#433=VERTEX_POINT('',#872);
#434=VERTEX_POINT('',#876);
#435=VERTEX_POINT('',#888);
#436=VERTEX_POINT('',#891);
#437=VERTEX_POINT('',#893);
#438=VERTEX_POINT('',#897);
#439=VERTEX_POINT('',#899);
#440=VERTEX_POINT('',#903);
#441=VERTEX_POINT('',#905);
#442=VERTEX_POINT('',#909);
#443=VERTEX_POINT('',#911);
#444=VERTEX_POINT('',#915);
#445=VERTEX_POINT('',#917);
#446=VERTEX_POINT('',#997);
#447=VERTEX_POINT('',#998);
#448=VERTEX_POINT('',#1006);
#449=VERTEX_POINT('',#1011);
#450=VERTEX_POINT('',#1021);
#451=VERTEX_POINT('',#1023);
#452=VERTEX_POINT('',#1028);
#453=VERTEX_POINT('',#1032);
#454=VERTEX_POINT('',#1041);
#455=VERTEX_POINT('',#1042);
#456=VERTEX_POINT('',#1049);
#457=VERTEX_POINT('',#1054);
#458=VERTEX_POINT('',#1066);
#459=VERTEX_POINT('',#1067);
#460=VERTEX_POINT('',#1078);
#461=VERTEX_POINT('',#1080);
#462=VERTEX_POINT('',#1144);
#463=VERTEX_POINT('',#1181);
#464=VERTEX_POINT('',#1188);
#465=VERTEX_POINT('',#1196);
#466=VERTEX_POINT('',#1207);
#467=VERTEX_POINT('',#1212);
#468=VERTEX_POINT('',#1225);
#469=VERTEX_POINT('',#1237);
#470=VERTEX_POINT('',#1244);
#471=VERTEX_POINT('',#1246);
#472=VERTEX_POINT('',#1258);
#473=VERTEX_POINT('',#1270);
#474=VERTEX_POINT('',#1280);
#475=VERTEX_POINT('',#1282);
#476=VERTEX_POINT('',#1348);
#477=VERTEX_POINT('',#1360);
#478=ELLIPSE('',#648,198.920823102629,0.059825138383419);
#479=ELLIPSE('',#650,0.0598382964788826,0.059825138383419);
#480=ELLIPSE('',#652,198.920823102858,0.059825138383419);
#481=ELLIPSE('',#654,0.0598382964788826,0.059825138383419);
#482=ELLIPSE('',#656,198.92082310253,0.059825138383419);
#483=ELLIPSE('',#658,0.0598382964788826,0.059825138383419);
#484=ELLIPSE('',#662,0.0598382964788826,0.059825138383419);
#485=ELLIPSE('',#664,198.920823103513,0.059825138383419);
#486=ELLIPSE('',#666,0.0598382964788826,0.059825138383419);
#487=ELLIPSE('',#668,198.920823102858,0.059825138383419);
#488=ELLIPSE('',#670,0.0598382964788826,0.059825138383419);
#489=ELLIPSE('',#672,198.920823102629,0.059825138383419);
#490=EDGE_LOOP('',(#150,#151,#152,#153));
#491=EDGE_LOOP('',(#154,#155,#156,#157));
#492=EDGE_LOOP('',(#158,#159,#160,#161));
#493=EDGE_LOOP('',(#162,#163,#164,#165));
#494=EDGE_LOOP('',(#166,#167,#168,#169));
#495=EDGE_LOOP('',(#170,#171,#172,#173));
#496=EDGE_LOOP('',(#174));
#497=EDGE_LOOP('',(#175));
#498=EDGE_LOOP('',(#176,#177,#178,#179));
#499=EDGE_LOOP('',(#180,#181,#182,#183));
#500=EDGE_LOOP('',(#184,#185,#186,#187));
#501=EDGE_LOOP('',(#188,#189,#190,#191));
#502=EDGE_LOOP('',(#192,#193,#194,#195));
#503=EDGE_LOOP('',(#196,#197,#198,#199));
#504=EDGE_LOOP('',(#200));
#505=EDGE_LOOP('',(#201,#202,#203,#204,#205,#206,#207,#208,#209,#210,#211,
#212));
#506=EDGE_LOOP('',(#213,#214,#215,#216));
#507=EDGE_LOOP('',(#217));
#508=EDGE_LOOP('',(#218,#219,#220,#221));
#509=EDGE_LOOP('',(#222,#223,#224,#225,#226,#227,#228,#229,#230,#231,#232,
#233));
#510=EDGE_LOOP('',(#234,#235,#236,#237));
#511=EDGE_LOOP('',(#238,#239,#240,#241));
#512=EDGE_LOOP('',(#242,#243,#244,#245));
#513=EDGE_LOOP('',(#246,#247,#248,#249));
#514=EDGE_LOOP('',(#250,#251,#252,#253));
#515=EDGE_LOOP('',(#254,#255,#256,#257));
#516=EDGE_LOOP('',(#258,#259,#260,#261));
#517=EDGE_LOOP('',(#262,#263,#264,#265,#266,#267,#268,#269));
#518=EDGE_LOOP('',(#270,#271,#272,#273));
#519=EDGE_LOOP('',(#274,#275,#276,#277));
#520=EDGE_LOOP('',(#278,#279,#280,#281));
#521=EDGE_LOOP('',(#282,#283,#284,#285));
#522=EDGE_LOOP('',(#286,#287,#288,#289));
#523=EDGE_LOOP('',(#290,#291,#292,#293));
#524=EDGE_LOOP('',(#294,#295,#296,#297));
#525=EDGE_LOOP('',(#298,#299,#300,#301));
#526=EDGE_LOOP('',(#302,#303,#304,#305));
#527=EDGE_LOOP('',(#306,#307,#308,#309));
#528=EDGE_LOOP('',(#310,#311,#312,#313));
#529=EDGE_LOOP('',(#314,#315,#316,#317));
#530=EDGE_LOOP('',(#318,#319,#320,#321,#322,#323,#324,#325));
#531=EDGE_LOOP('',(#326,#327,#328,#329));
#532=FACE_BOUND('',#490,.T.);
#533=FACE_BOUND('',#491,.T.);
#534=FACE_BOUND('',#492,.T.);
#535=FACE_BOUND('',#493,.T.);
#536=FACE_BOUND('',#494,.T.);
#537=FACE_BOUND('',#495,.T.);
#538=FACE_BOUND('',#496,.T.);
#539=FACE_BOUND('',#497,.T.);
#540=FACE_BOUND('',#498,.T.);
#541=FACE_BOUND('',#499,.T.);
#542=FACE_BOUND('',#500,.T.);
#543=FACE_BOUND('',#501,.T.);
#544=FACE_BOUND('',#502,.T.);
#545=FACE_BOUND('',#503,.T.);
#546=FACE_BOUND('',#504,.T.);
#547=FACE_BOUND('',#505,.T.);
#548=FACE_BOUND('',#506,.T.);
#549=FACE_BOUND('',#507,.T.);
#550=FACE_BOUND('',#508,.T.);
#551=FACE_BOUND('',#509,.T.);
#552=FACE_BOUND('',#510,.T.);
#553=FACE_BOUND('',#511,.T.);
#554=FACE_BOUND('',#512,.T.);
#555=FACE_BOUND('',#513,.T.);
#556=FACE_BOUND('',#514,.T.);
#557=FACE_BOUND('',#515,.T.);
#558=FACE_BOUND('',#516,.T.);
#559=FACE_BOUND('',#517,.T.);
#560=FACE_BOUND('',#518,.T.);
#561=FACE_BOUND('',#519,.T.);
#562=FACE_BOUND('',#520,.T.);
#563=FACE_BOUND('',#521,.T.);
#564=FACE_BOUND('',#522,.T.);
#565=FACE_BOUND('',#523,.T.);
#566=FACE_BOUND('',#524,.T.);
#567=FACE_BOUND('',#525,.T.);
#568=FACE_BOUND('',#526,.T.);
#569=FACE_BOUND('',#527,.T.);
#570=FACE_BOUND('',#528,.T.);
#571=FACE_BOUND('',#529,.T.);
#572=FACE_BOUND('',#530,.T.);
#573=FACE_BOUND('',#531,.T.);
#574=PLANE('',#647);
#575=PLANE('',#649);
#576=PLANE('',#651);
#577=PLANE('',#653);
#578=PLANE('',#655);
#579=PLANE('',#657);
#580=PLANE('',#661);
#581=PLANE('',#663);
#582=PLANE('',#665);
#583=PLANE('',#667);
#584=PLANE('',#669);
#585=PLANE('',#671);
#586=PLANE('',#673);
#587=PLANE('',#674);
#588=PLANE('',#676);
#589=PLANE('',#677);
#590=PLANE('',#678);
#591=PLANE('',#681);
#592=PLANE('',#684);
#593=PLANE('',#688);
#594=PLANE('',#692);
#595=PLANE('',#693);
#596=ADVANCED_FACE('',(#532),#574,.T.);
#597=ADVANCED_FACE('',(#533),#575,.T.);
#598=ADVANCED_FACE('',(#534),#576,.T.);
#599=ADVANCED_FACE('',(#535),#577,.T.);
#600=ADVANCED_FACE('',(#536),#578,.T.);
#601=ADVANCED_FACE('',(#537),#579,.T.);
#602=ADVANCED_FACE('',(#538,#539),#54,.T.);
#603=ADVANCED_FACE('',(#540),#580,.T.);
#604=ADVANCED_FACE('',(#541),#581,.T.);
#605=ADVANCED_FACE('',(#542),#582,.T.);
#606=ADVANCED_FACE('',(#543),#583,.T.);
#607=ADVANCED_FACE('',(#544),#584,.T.);
#608=ADVANCED_FACE('',(#545),#585,.T.);
#609=ADVANCED_FACE('',(#546,#547),#586,.F.);
#610=ADVANCED_FACE('',(#548,#549),#16,.T.);
#611=ADVANCED_FACE('',(#550),#587,.T.);
#612=ADVANCED_FACE('',(#551),#55,.T.);
#613=ADVANCED_FACE('',(#552),#588,.T.);
#614=ADVANCED_FACE('',(#553),#589,.T.);
#615=ADVANCED_FACE('',(#554),#590,.T.);
#616=ADVANCED_FACE('',(#555),#12,.T.);
#617=ADVANCED_FACE('',(#556),#56,.T.);
#618=ADVANCED_FACE('',(#557),#591,.F.);
#619=ADVANCED_FACE('',(#558),#17,.F.);
#620=ADVANCED_FACE('',(#559),#18,.F.);
#621=ADVANCED_FACE('',(#560),#13,.T.);
#622=ADVANCED_FACE('',(#561),#57,.T.);
#623=ADVANCED_FACE('',(#562),#592,.F.);
#624=ADVANCED_FACE('',(#563),#58,.T.);
#625=ADVANCED_FACE('',(#564),#14,.T.);
#626=ADVANCED_FACE('',(#565),#59,.T.);
#627=ADVANCED_FACE('',(#566),#593,.F.);
#628=ADVANCED_FACE('',(#567),#19,.F.);
#629=ADVANCED_FACE('',(#568),#15,.T.);
#630=ADVANCED_FACE('',(#569),#60,.T.);
#631=ADVANCED_FACE('',(#570),#61,.T.);
#632=ADVANCED_FACE('',(#571),#594,.F.);
#633=ADVANCED_FACE('',(#572,#573),#595,.F.);
#634=CLOSED_SHELL('',(#596,#597,#598,#599,#600,#601,#602,#603,#604,#605,
#606,#607,#608,#609,#610,#611,#612,#613,#614,#615,#616,#617,#618,#619,#620,
#621,#622,#623,#624,#625,#626,#627,#628,#629,#630,#631,#632,#633));
#635=STYLED_ITEM('',(#636),#643);
#636=PRESENTATION_STYLE_ASSIGNMENT((#637));
#637=SURFACE_STYLE_USAGE(.BOTH.,#638);
#638=SURFACE_SIDE_STYLE('',(#639));
#639=SURFACE_STYLE_FILL_AREA(#640);
#640=FILL_AREA_STYLE('',(#641));
#641=FILL_AREA_STYLE_COLOUR('',#642);
#642=COLOUR_RGB('',0.313725490196078,0.309803921568627,0.309803921568627);
#643=MANIFOLD_SOLID_BREP('1x1 R3 v8:1__Body2',#634);
#644=SHAPE_DEFINITION_REPRESENTATION(#1376,#645);
#645=SHAPE_REPRESENTATION('1x1 R3 v8:1__Body2',(#646),#1371);
#646=AXIS2_PLACEMENT_3D('',#834,#694,#695);
#647=AXIS2_PLACEMENT_3D('',#835,#696,#697);
#648=AXIS2_PLACEMENT_3D('',#836,#698,#699);
#649=AXIS2_PLACEMENT_3D('',#844,#703,#704);
#650=AXIS2_PLACEMENT_3D('',#845,#705,#706);
#651=AXIS2_PLACEMENT_3D('',#850,#709,#710);
#652=AXIS2_PLACEMENT_3D('',#851,#711,#712);
#653=AXIS2_PLACEMENT_3D('',#856,#715,#716);
#654=AXIS2_PLACEMENT_3D('',#857,#717,#718);
#655=AXIS2_PLACEMENT_3D('',#862,#721,#722);
#656=AXIS2_PLACEMENT_3D('',#863,#723,#724);
#657=AXIS2_PLACEMENT_3D('',#868,#727,#728);
#658=AXIS2_PLACEMENT_3D('',#869,#729,#730);
#659=AXIS2_PLACEMENT_3D('',#874,#733,#734);
#660=AXIS2_PLACEMENT_3D('',#875,#735,#736);
#661=AXIS2_PLACEMENT_3D('',#889,#737,#738);
#662=AXIS2_PLACEMENT_3D('',#890,#739,#740);
#663=AXIS2_PLACEMENT_3D('',#895,#743,#744);
#664=AXIS2_PLACEMENT_3D('',#896,#745,#746);
#665=AXIS2_PLACEMENT_3D('',#901,#749,#750);
#666=AXIS2_PLACEMENT_3D('',#902,#751,#752);
#667=AXIS2_PLACEMENT_3D('',#907,#755,#756);
#668=AXIS2_PLACEMENT_3D('',#908,#757,#758);
#669=AXIS2_PLACEMENT_3D('',#913,#761,#762);
#670=AXIS2_PLACEMENT_3D('',#914,#763,#764);
#671=AXIS2_PLACEMENT_3D('',#919,#767,#768);
#672=AXIS2_PLACEMENT_3D('',#920,#769,#770);
#673=AXIS2_PLACEMENT_3D('',#922,#772,#773);
#674=AXIS2_PLACEMENT_3D('',#1019,#774,#775);
#675=AXIS2_PLACEMENT_3D('',#1025,#779,#780);
#676=AXIS2_PLACEMENT_3D('',#1026,#781,#782);
#677=AXIS2_PLACEMENT_3D('',#1030,#785,#786);
#678=AXIS2_PLACEMENT_3D('',#1034,#789,#790);
#679=AXIS2_PLACEMENT_3D('',#1036,#792,#793);
#680=AXIS2_PLACEMENT_3D('',#1060,#794,#795);
#681=AXIS2_PLACEMENT_3D('',#1070,#798,#799);
#682=AXIS2_PLACEMENT_3D('',#1220,#802,#803);
#683=AXIS2_PLACEMENT_3D('',#1231,#804,#805);
#684=AXIS2_PLACEMENT_3D('',#1239,#807,#808);
#685=AXIS2_PLACEMENT_3D('',#1248,#811,#812);
#686=AXIS2_PLACEMENT_3D('',#1253,#813,#814);
#687=AXIS2_PLACEMENT_3D('',#1264,#815,#816);
#688=AXIS2_PLACEMENT_3D('',#1272,#818,#819);
#689=AXIS2_PLACEMENT_3D('',#1343,#822,#823);
#690=AXIS2_PLACEMENT_3D('',#1354,#824,#825);
#691=AXIS2_PLACEMENT_3D('',#1362,#827,#828);
#692=AXIS2_PLACEMENT_3D('',#1367,#829,#830);
#693=AXIS2_PLACEMENT_3D('',#1369,#832,#833);
#694=DIRECTION('',(0.,0.,1.));
#695=DIRECTION('',(1.,0.,0.));
#696=DIRECTION('',(1.,0.,-3.46944695195362E-16));
#697=DIRECTION('',(-3.46944695195362E-16,0.,-1.));
#698=DIRECTION('',(1.,0.,-3.46944695195362E-16));
#699=DIRECTION('',(-3.46868419749682E-16,-0.020967824741961,-0.999780150996003));
#700=DIRECTION('',(0.,1.,0.));
#701=DIRECTION('',(-3.46944695195362E-16,0.,-1.));
#702=DIRECTION('',(0.,1.,0.));
#703=DIRECTION('',(1.96203206938066E-15,0.,1.));
#704=DIRECTION('',(1.,0.,-1.96203206938066E-15));
#705=DIRECTION('',(1.96203206938066E-15,0.,1.));
#706=DIRECTION('',(0.0143418586075631,-0.999897150256806,-2.81391865225619E-17));
#707=DIRECTION('',(0.,1.,0.));
#708=DIRECTION('',(1.,0.,-1.96203206938066E-15));
#709=DIRECTION('',(1.,0.,0.));
#710=DIRECTION('',(0.,0.,-1.));
#711=DIRECTION('',(1.,0.,0.));
#712=DIRECTION('',(0.,-0.020967824741961,-0.999780150996003));
#713=DIRECTION('',(0.,1.,0.));
#714=DIRECTION('',(0.,0.,-1.));
#715=DIRECTION('',(-7.65671051465625E-16,0.,-1.));
#716=DIRECTION('',(-1.,0.,7.65671051465625E-16));
#717=DIRECTION('',(-7.65671051465625E-16,0.,-1.));
#718=DIRECTION('',(0.0143418586075061,-0.999897150256806,-1.09811459599805E-17));
#719=DIRECTION('',(0.,1.,0.));
#720=DIRECTION('',(-1.,0.,7.65671051465625E-16));
#721=DIRECTION('',(1.,0.,-4.95635278850516E-16));
#722=DIRECTION('',(-4.95635278850516E-16,0.,-1.));
#723=DIRECTION('',(1.,0.,-4.95635278850516E-16));
#724=DIRECTION('',(-4.95526313928115E-16,-0.020967824741961,-0.999780150996003));
#725=DIRECTION('',(0.,1.,0.));
#726=DIRECTION('',(-4.95635278850516E-16,0.,-1.));
#727=DIRECTION('',(0.,0.,-1.));
#728=DIRECTION('',(-1.,0.,0.));
#729=DIRECTION('',(0.,0.,-1.));
#730=DIRECTION('',(0.0143418586074696,-0.999897150256807,0.));
#731=DIRECTION('',(0.,1.,0.));
#732=DIRECTION('',(-1.,0.,0.));
#733=DIRECTION('',(0.,1.,0.));
#734=DIRECTION('',(1.,0.,0.));
#735=DIRECTION('',(0.,1.,0.));
#736=DIRECTION('',(0.,0.,1.));
#737=DIRECTION('',(0.,0.,1.));
#738=DIRECTION('',(1.,0.,0.));
#739=DIRECTION('',(0.,0.,1.));
#740=DIRECTION('',(0.0143418586074696,-0.999897150256807,0.));
#741=DIRECTION('',(1.,0.,0.));
#742=DIRECTION('',(0.,1.,0.));
#743=DIRECTION('',(-1.,0.,-9.91270557701032E-16));
#744=DIRECTION('',(-9.91270557701032E-16,0.,1.));
#745=DIRECTION('',(-1.,0.,-9.91270557701032E-16));
#746=DIRECTION('',(9.9105262785623E-16,-0.020967824741961,-0.999780150996003));
#747=DIRECTION('',(0.,1.,0.));
#748=DIRECTION('',(-9.91270557701032E-16,0.,1.));
#749=DIRECTION('',(4.78544407166016E-16,0.,-1.));
#750=DIRECTION('',(-1.,0.,-4.78544407166016E-16));
#751=DIRECTION('',(4.78544407166016E-16,0.,-1.));
#752=DIRECTION('',(0.0143418586074468,-0.999897150256807,6.86321622495944E-18));
#753=DIRECTION('',(0.,1.,0.));
#754=DIRECTION('',(-1.,0.,-4.78544407166016E-16));
#755=DIRECTION('',(-1.,0.,0.));
#756=DIRECTION('',(0.,0.,1.));
#757=DIRECTION('',(-1.,0.,0.));
#758=DIRECTION('',(0.,-0.020967824741961,-0.999780150996003));
#759=DIRECTION('',(0.,1.,0.));
#760=DIRECTION('',(0.,0.,1.));
#761=DIRECTION('',(-1.33992434006484E-15,0.,1.));
#762=DIRECTION('',(1.,0.,1.33992434006484E-15));
#763=DIRECTION('',(-1.33992434006484E-15,0.,1.));
#764=DIRECTION('',(0.0143418586074057,-0.999897150256808,1.92170054298313E-17));
#765=DIRECTION('',(0.,1.,0.));
#766=DIRECTION('',(1.,0.,1.33992434006484E-15));
#767=DIRECTION('',(-1.,0.,3.46944695195362E-16));
#768=DIRECTION('',(3.46944695195362E-16,0.,1.));
#769=DIRECTION('',(-1.,0.,3.46944695195362E-16));
#770=DIRECTION('',(-3.46868419749682E-16,-0.020967824741961,-0.999780150996003));
#771=DIRECTION('',(3.46944695195362E-16,0.,1.));
#772=DIRECTION('',(0.,1.,0.));
#773=DIRECTION('',(1.,0.,0.));
#774=DIRECTION('',(-0.96365447642385,-0.267151736038295,0.));
#775=DIRECTION('',(0.,0.,1.));
#776=DIRECTION('',(-0.267151736038295,0.96365447642385,0.));
#777=DIRECTION('',(0.,0.,1.));
#778=DIRECTION('',(-0.249592436954374,0.90031557615685,-0.356560624220534));
#779=DIRECTION('',(0.000300748496061091,-0.0209678237936947,-0.999780105781116));
#780=DIRECTION('',(0.,0.999780150996003,-0.020967824741961));
#781=DIRECTION('',(0.,-0.368214245191347,-0.929740969108153));
#782=DIRECTION('',(-1.,0.,0.));
#783=DIRECTION('',(1.,0.,0.));
#784=DIRECTION('',(0.249592436954372,0.90031557615685,-0.356560624220534));
#785=DIRECTION('',(0.96365447642385,-0.267151736038295,0.));
#786=DIRECTION('',(0.,0.,-1.));
#787=DIRECTION('',(0.,0.,1.));
#788=DIRECTION('',(0.267151736038295,0.96365447642385,0.));
#789=DIRECTION('',(0.,2.1984614349013E-16,1.));
#790=DIRECTION('',(1.,0.,0.));
#791=DIRECTION('',(1.,0.,0.));
#792=DIRECTION('',(-0.211066009522706,0.977346692029668,0.0156391560778407));
#793=DIRECTION('',(-0.977466235250917,-0.211091825858792,0.));
#794=DIRECTION('',(-0.249592436954374,0.90031557615685,-0.356560624220534));
#795=DIRECTION('',(0.650177890386766,0.428681569386193,0.627296439429402));
#796=DIRECTION('',(-0.249592436954374,0.90031557615685,-0.356560624220534));
#797=DIRECTION('',(-0.249592436954374,0.90031557615685,-0.356560624220534));
#798=DIRECTION('',(0.,-0.368214245191347,-0.929740969108153));
#799=DIRECTION('',(-1.,0.,0.));
#800=DIRECTION('',(0.249592436954374,0.90031557615685,-0.356560624220534));
#801=DIRECTION('',(1.,0.,0.));
#802=DIRECTION('',(0.211131109162555,0.977328065225461,0.0159219240811564));
#803=DIRECTION('',(-0.977451968862434,0.211157875929248,0.));
#804=DIRECTION('',(0.249592436954374,0.90031557615685,-0.356560624220534));
#805=DIRECTION('',(-0.650177890386765,0.428681569386193,0.627296439429403));
#806=DIRECTION('',(0.249592436954374,0.90031557615685,-0.356560624220534));
#807=DIRECTION('',(0.96365447642385,-0.267151736038295,0.));
#808=DIRECTION('',(0.,0.,-1.));
#809=DIRECTION('',(0.267151736038295,0.96365447642385,-2.4980018054066E-16));
#810=DIRECTION('',(0.,0.,1.));
#811=DIRECTION('',(0.00566958447889792,0.0204516944897385,0.999774766637134));
#812=DIRECTION('',(0.,-0.999790835498635,0.020452023199221));
#813=DIRECTION('',(0.204524613752465,0.976564503123369,-0.0670183080121639));
#814=DIRECTION('',(-0.978765015609779,0.204985473188683,0.));
#815=DIRECTION('',(0.267151736038295,0.96365447642385,-2.4980018054066E-16));
#816=DIRECTION('',(-0.681406615000076,0.188904804158436,-0.707106781186548));
#817=DIRECTION('',(0.267151736038295,0.96365447642385,-2.4980018054066E-16));
#818=DIRECTION('',(0.,2.1984614349013E-16,1.));
#819=DIRECTION('',(1.,0.,0.));
#820=DIRECTION('',(-0.267151736038295,0.96365447642385,-2.4980018054066E-16));
#821=DIRECTION('',(1.,0.,0.));
#822=DIRECTION('',(-0.203225695763816,0.976880605142382,-0.0663596253603598));
#823=DIRECTION('',(-0.979038630731354,-0.203674641366263,0.));
#824=DIRECTION('',(-0.267151736038295,0.96365447642385,-2.4980018054066E-16));
#825=DIRECTION('',(0.681406615000076,0.188904804158436,-0.707106781186548));
#826=DIRECTION('',(-0.267151736038295,0.96365447642385,-2.4980018054066E-16));
#827=DIRECTION('',(-0.00572522924633751,0.0206509738280104,0.999770353146177));
#828=DIRECTION('',(0.459727360998353,0.887921174595456,-0.0157079996980882));
#829=DIRECTION('',(-0.96365447642385,-0.267151736038295,0.));
#830=DIRECTION('',(0.,0.,1.));
#831=DIRECTION('',(0.,0.,1.));
#832=DIRECTION('',(0.,1.,0.));
#833=DIRECTION('',(0.,0.,1.));
#834=CARTESIAN_POINT('',(0.,0.,0.));
#835=CARTESIAN_POINT('',(-0.00055,0.,-0.0006));
#836=CARTESIAN_POINT('',(-0.000549999999999364,0.105532037426945,1.83361967991418));
#837=CARTESIAN_POINT('',(-0.00055,0.0072282382088228,-0.000600000000000136));
#838=CARTESIAN_POINT('',(-0.00055,0.00719888068839486,-0.0020000000000001));
#839=CARTESIAN_POINT('',(-0.00055,0.,-0.0006));
#840=CARTESIAN_POINT('',(-0.00055,0.,-0.0006));
#841=CARTESIAN_POINT('',(-0.00055,0.,-0.0006));
#842=CARTESIAN_POINT('',(-0.00055,0.,-0.002));
#843=CARTESIAN_POINT('',(-0.00055,0.,-0.002));
#844=CARTESIAN_POINT('',(-0.002,0.,-0.0006));
#845=CARTESIAN_POINT('',(1.76013904526922E-6,0.0670639834769017,-0.0006));
#846=CARTESIAN_POINT('',(-0.002,0.00725920870759832,-0.000600000000000112));
#847=CARTESIAN_POINT('',(-0.002,0.,-0.0006));
#848=CARTESIAN_POINT('',(-0.002,0.,-0.0006));
#849=CARTESIAN_POINT('',(-0.002,0.,-0.0006));
#850=CARTESIAN_POINT('',(-0.002,0.,0.0006));
#851=CARTESIAN_POINT('',(-0.002,0.206624295240579,6.6538637455363));
#852=CARTESIAN_POINT('',(-0.002,0.0072843635412259,0.000599999999999869));
#853=CARTESIAN_POINT('',(-0.002,0.,0.0006));
#854=CARTESIAN_POINT('',(-0.002,0.,0.0006));
#855=CARTESIAN_POINT('',(-0.002,0.,0.0006));
#856=CARTESIAN_POINT('',(-0.00055,0.,0.0006));
#857=CARTESIAN_POINT('',(1.39916147311465E-6,0.0670891503995149,0.0006));
#858=CARTESIAN_POINT('',(-0.00055,0.00725340180012144,0.000599999999999817));
#859=CARTESIAN_POINT('',(-0.00055,0.,0.0006));
#860=CARTESIAN_POINT('',(-0.00055,0.,0.0006));
#861=CARTESIAN_POINT('',(-0.00055,0.,0.0006));
#862=CARTESIAN_POINT('',(-0.00055,0.,0.002));
#863=CARTESIAN_POINT('',(-0.000549999999999091,0.105532037426926,1.83361967991327));
#864=CARTESIAN_POINT('',(-0.00055,0.00728275932605702,0.002));
#865=CARTESIAN_POINT('',(-0.00055,0.,0.002));
#866=CARTESIAN_POINT('',(-0.00055,0.,0.002));
#867=CARTESIAN_POINT('',(-0.00055,0.,0.002));
#868=CARTESIAN_POINT('',(0.00055,0.,0.002));
#869=CARTESIAN_POINT('',(9.78020972267642E-7,0.0671185118092303,0.002));
#870=CARTESIAN_POINT('',(0.00055,0.00728273439885463,0.00199999999999995));
#871=CARTESIAN_POINT('',(0.00055,0.,0.002));
#872=CARTESIAN_POINT('',(0.00055,0.,0.002));
#873=CARTESIAN_POINT('',(0.00055,0.,0.002));
#874=CARTESIAN_POINT('',(4.16333568059985E-20,0.,2.22044604925031E-18));
#875=CARTESIAN_POINT('',(4.16333568059985E-20,0.,2.22044604925031E-18));
#876=CARTESIAN_POINT('',(4.16333568059985E-20,0.,0.0028));
#877=CARTESIAN_POINT('',(-0.00118600460933491,0.00717573956603487,-0.00286790781648979));
#878=CARTESIAN_POINT('',(-0.00286719453616907,0.00728198866214712,-0.00118738899458412));
#879=CARTESIAN_POINT('',(-0.00286616564572416,0.00733204265268397,0.00118783233005685));
#880=CARTESIAN_POINT('',(-0.0011890455793092,0.00729595328406459,0.00286580145990242));
#881=CARTESIAN_POINT('',(0.00118707548653843,0.007294760660215,0.00286757221123413));
#882=CARTESIAN_POINT('',(0.00286706885836494,0.00733218014341084,0.00118622730883708));
#883=CARTESIAN_POINT('',(0.00286671432505981,0.00728206928725216,-0.00118554667733489));
#884=CARTESIAN_POINT('',(0.00119037664384892,0.00717467565842923,-0.00286556864956062));
#885=CARTESIAN_POINT('',(-0.00118600460933491,0.00717573956603487,-0.00286790781648979));
#886=CARTESIAN_POINT('',(-0.00286719453616907,0.00728198866214712,-0.00118738899458412));
#887=CARTESIAN_POINT('',(-0.00286616564572416,0.00733204265268397,0.00118783233005685));
#888=CARTESIAN_POINT('',(-0.00258682473328922,0.00727262281121789,-0.00107160524412823));
#889=CARTESIAN_POINT('',(-0.00055,0.,-0.002));
#890=CARTESIAN_POINT('',(2.18127954611622E-6,0.0670346220671863,-0.002));
#891=CARTESIAN_POINT('',(0.00055,0.00719883363117571,-0.00199999999999992));
#892=CARTESIAN_POINT('',(-0.00055,0.,-0.002));
#893=CARTESIAN_POINT('',(0.00055,0.,-0.002));
#894=CARTESIAN_POINT('',(0.00055,0.,-0.002));
#895=CARTESIAN_POINT('',(0.00055,0.,0.0006));
#896=CARTESIAN_POINT('',(0.00055000000000181,0.0288413590855187,-1.82311719745662));
#897=CARTESIAN_POINT('',(0.00055,0.00725336912741319,0.000599999999999949));
#898=CARTESIAN_POINT('',(0.00055,0.,0.0006));
#899=CARTESIAN_POINT('',(0.00055,0.,0.0006));
#900=CARTESIAN_POINT('',(0.00055,0.,0.0006));
#901=CARTESIAN_POINT('',(0.002,0.,0.0006));
#902=CARTESIAN_POINT('',(1.39916147311464E-6,0.0670891503995149,0.0006));
#903=CARTESIAN_POINT('',(0.002,0.00728424468300033,0.000600000000000115));
#904=CARTESIAN_POINT('',(0.002,0.,0.0006));
#905=CARTESIAN_POINT('',(0.002,0.,0.0006));
#906=CARTESIAN_POINT('',(0.002,0.,0.0006));
#907=CARTESIAN_POINT('',(0.002,0.,-0.0006));
#908=CARTESIAN_POINT('',(0.002,-0.0722508987279451,-6.64336126307061));
#909=CARTESIAN_POINT('',(0.002,0.00725906569505514,-0.000600000000000345));
#910=CARTESIAN_POINT('',(0.002,0.,-0.0006));
#911=CARTESIAN_POINT('',(0.002,0.,-0.0006));
#912=CARTESIAN_POINT('',(0.002,0.,-0.0006));
#913=CARTESIAN_POINT('',(0.00055,0.,-0.0006));
#914=CARTESIAN_POINT('',(1.76013904526922E-6,0.0670639834769017,-0.0006));
#915=CARTESIAN_POINT('',(0.00055,0.00722819889710952,-0.000599999999999581));
#916=CARTESIAN_POINT('',(0.00055,0.,-0.0006));
#917=CARTESIAN_POINT('',(0.00055,0.,-0.0006));
#918=CARTESIAN_POINT('',(0.00055,0.,-0.0006));
#919=CARTESIAN_POINT('',(0.00055,0.,-0.002));
#920=CARTESIAN_POINT('',(0.000549999999999368,0.0288413590856889,-1.8231171974485));
#921=CARTESIAN_POINT('',(0.00055,0.,-0.002));
#922=CARTESIAN_POINT('',(0.,0.,2.22044604925031E-18));
#923=CARTESIAN_POINT('',(0.00559585516542349,0.00767475182546823,0.00482442792066095));
#924=CARTESIAN_POINT('',(0.0055959654856805,0.00767419707712064,0.00479798540139401));
#925=CARTESIAN_POINT('',(0.0055960758059375,0.00767364232877306,0.00477154288212707));
#926=CARTESIAN_POINT('',(0.0055961861261945,0.00767308758042548,0.00474510036286013));
#927=CARTESIAN_POINT('',(0.00561357157679839,0.00758566437949572,0.000578004264173998));
#928=CARTESIAN_POINT('',(0.00563096260177978,0.00749824259791548,-0.00358909184016279));
#929=CARTESIAN_POINT('',(0.00564835905632716,0.00741082218568984,-0.00775618794972845));
#930=CARTESIAN_POINT('',(0.00564846385338545,0.00741029556102553,-0.00778129073217894));
#931=CARTESIAN_POINT('',(0.00564856865044375,0.00740976893636122,-0.00780639351462942));
#932=CARTESIAN_POINT('',(0.00564867344750204,0.00740924231169692,-0.00783149629707991));
#933=CARTESIAN_POINT('',(0.0052219973609234,0.00761219053466438,0.0048255078999747));
#934=CARTESIAN_POINT('',(0.00522210186169409,0.00761163604860298,0.0047990653794756));
#935=CARTESIAN_POINT('',(0.00522220636246478,0.00761108156254159,0.0047726228589765));
#936=CARTESIAN_POINT('',(0.00522231086323546,0.0076105270764802,0.0047461803384774));
#937=CARTESIAN_POINT('',(0.00523877921670197,0.00752314520942449,0.000579084045614405));
#938=CARTESIAN_POINT('',(0.00525526262394447,0.00743576473914487,-0.00358801227112292));
#939=CARTESIAN_POINT('',(0.00527174003545545,0.00734838458180415,-0.0077551085633433));
#940=CARTESIAN_POINT('',(0.00527183929615538,0.00734785819963716,-0.0077802113468941));
#941=CARTESIAN_POINT('',(0.00527193855685531,0.00734733181747016,-0.00780531413044491));
#942=CARTESIAN_POINT('',(0.00527203781755524,0.00734680543530317,-0.00783041691399572));
#943=CARTESIAN_POINT('',(0.00392991834138781,0.00745237856187841,0.00482841972705505));
#944=CARTESIAN_POINT('',(0.00393000045580602,0.00745182439356773,0.00480197720826515));
#945=CARTESIAN_POINT('',(0.00393008257022423,0.00745127022525706,0.00477553468947525));
#946=CARTESIAN_POINT('',(0.00393016468464244,0.00745071605694638,0.00474909217068535));
#947=CARTESIAN_POINT('',(0.00394310515632428,0.00736338426446005,0.000581996147176501));
#948=CARTESIAN_POINT('',(0.00395604255612443,0.00727605516810944,-0.00358509990685653));
#949=CARTESIAN_POINT('',(0.00396898797915168,0.00718872372854106,-0.00775219592480192));
#950=CARTESIAN_POINT('',(0.0039690659629873,0.00718819763985222,-0.00777729870670048));
#951=CARTESIAN_POINT('',(0.00396914394682291,0.00718767155116337,-0.00780240148859904));
#952=CARTESIAN_POINT('',(0.00396922193065852,0.00718714546247453,-0.0078275042704976));
#953=CARTESIAN_POINT('',(0.000977031222821135,0.00730642145759947,0.00483119500327624));
#954=CARTESIAN_POINT('',(0.00097705769736428,0.00730586739625845,0.00480475248768988));
#955=CARTESIAN_POINT('',(0.000977084171907423,0.00730531333491743,0.00477830997210353));
#956=CARTESIAN_POINT('',(0.000977110646450568,0.0073047592735764,0.00475186745651718));
#957=CARTESIAN_POINT('',(0.000981282789215707,0.0072174443385165,0.000584771937857687));
#958=CARTESIAN_POINT('',(0.000985456105141541,0.00713014305527456,-0.00358232380822703));
#959=CARTESIAN_POINT('',(0.000989629280062918,0.00704282799868403,-0.00774941932722684));
#960=CARTESIAN_POINT('',(0.000989654419464416,0.00704230200868701,-0.00777452210611972));
#961=CARTESIAN_POINT('',(0.000989679558865914,0.00704177601869,-0.00779962488501261));
#962=CARTESIAN_POINT('',(0.000989704698267412,0.00704125002869298,-0.0078247276639055));
#963=CARTESIAN_POINT('',(-0.00286867498512457,0.00736777339970828,0.00482999830899022));
#964=CARTESIAN_POINT('',(-0.00286872130619116,0.00736721928915682,0.0048035557928744));
#965=CARTESIAN_POINT('',(-0.00286876762725775,0.00736666517860535,0.00477711327675857));
#966=CARTESIAN_POINT('',(-0.00286881394832434,0.00736611106805389,0.00475067076064275));
#967=CARTESIAN_POINT('',(-0.00287611371934523,0.00727878837788413,0.000583575158543243));
#968=CARTESIAN_POINT('',(-0.00288341529151064,0.00719146694514605,-0.00358352046196167));
#969=CARTESIAN_POINT('',(-0.00289071827099018,0.00710414435357687,-0.00775061606450801));
#970=CARTESIAN_POINT('',(-0.00289076226448116,0.00710361831818879,-0.00777571884390419));
#971=CARTESIAN_POINT('',(-0.00289080625797214,0.00710309228280071,-0.00780082162330037));
#972=CARTESIAN_POINT('',(-0.00289085025146312,0.00710256624741262,-0.00782592440269655));
#973=CARTESIAN_POINT('',(-0.00485694046063113,0.00755069404625703,0.00482649292233263));
#974=CARTESIAN_POINT('',(-0.0048570232889329,0.00755013975320563,0.0048000504030995));
#975=CARTESIAN_POINT('',(-0.00485710611723467,0.00754958546015423,0.00477360788386638));
#976=CARTESIAN_POINT('',(-0.00485718894553644,0.00754903116710283,0.00474716536463325));
#977=CARTESIAN_POINT('',(-0.00487024191865472,0.00746167971663381,0.00058006927127608));
#978=CARTESIAN_POINT('',(-0.0048833111650837,0.00737436201866359,-0.00358702735731651));
#979=CARTESIAN_POINT('',(-0.00489637141841452,0.0072870114271714,-0.00775412344707097));
#980=CARTESIAN_POINT('',(-0.00489645009399327,0.00728648522311046,-0.00777922622940212));
#981=CARTESIAN_POINT('',(-0.00489652876957202,0.00728595901904953,-0.00780432901173326));
#982=CARTESIAN_POINT('',(-0.00489660744515076,0.0072854328149886,-0.0078294317940644));
#983=CARTESIAN_POINT('',(-0.00560304905073121,0.00767611104254712,0.00482427872151457));
#984=CARTESIAN_POINT('',(-0.00560314345144548,0.00767555628849686,0.00479783620468581));
#985=CARTESIAN_POINT('',(-0.00560323785215975,0.00767500153444661,0.00477139368785706));
#986=CARTESIAN_POINT('',(-0.00560333225287402,0.00767444678039635,0.0047449511710283));
#987=CARTESIAN_POINT('',(-0.00561820893100644,0.00758702268077815,0.00057785545657724));
#988=CARTESIAN_POINT('',(-0.00563309120455187,0.00749960001241294,-0.00358924026704819));
#989=CARTESIAN_POINT('',(-0.00564797892822558,0.0074121787249011,-0.00775633599933242));
#990=CARTESIAN_POINT('',(-0.0056480686125714,0.00741165209496403,-0.00778143877951014));
#991=CARTESIAN_POINT('',(-0.00564815829691722,0.00741112546502696,-0.00780654155968787));
#992=CARTESIAN_POINT('',(-0.00564824798126305,0.00741059883508989,-0.00783164433986559));
#993=CARTESIAN_POINT('',(0.0056483332233855,0.00741095200106037,-0.00775));
#994=CARTESIAN_POINT('',(0.00562465171302123,0.00749637459201721,-0.00362699309204691));
#995=CARTESIAN_POINT('',(0.00560097120527371,0.00758179356633808,0.000496013896595488));
#996=CARTESIAN_POINT('',(0.00557729173447259,0.00766720880029926,0.0046190209686823));
#997=CARTESIAN_POINT('',(0.00564833322337857,0.00741095200105897,-0.00775));
#998=CARTESIAN_POINT('',(0.0055772916354505,0.00766720907071116,0.00461902106497111));
#999=CARTESIAN_POINT('',(0.00557729168729609,0.0076672087969204,0.00461902117340309));
#1000=CARTESIAN_POINT('',(0.00465686114056787,0.00751603664682445,0.00467889133185693));
#1001=CARTESIAN_POINT('',(0.00279691459708359,0.00738280055317603,0.0047316581016187));
#1002=CARTESIAN_POINT('',(-2.11885193122581E-7,0.0073145050510236,0.00475870582524341));
#1003=CARTESIAN_POINT('',(-0.00279855680859167,0.00738266420323386,0.00473171210159578));
#1004=CARTESIAN_POINT('',(-0.00465593720572253,0.00751595035247048,0.0046789255078387));
#1005=CARTESIAN_POINT('',(-0.00557724599784644,0.00766737346498862,0.00461895595832657));
#1006=CARTESIAN_POINT('',(-0.00557724594553032,0.00766737396755669,0.00461895557368734));
#1007=CARTESIAN_POINT('',(-0.00557724608316919,0.00766737347107357,0.00461895558471195));
#1008=CARTESIAN_POINT('',(-0.00560081555006105,0.00758235503692792,0.000495970341538929));
#1009=CARTESIAN_POINT('',(-0.00562438553895217,0.00749733471994551,-0.00362701485982495));
#1010=CARTESIAN_POINT('',(-0.00564795629170652,0.00741231164751018,-0.00775000000000011));
#1011=CARTESIAN_POINT('',(-0.00564795629168915,0.00741231164750602,-0.00775));
#1012=CARTESIAN_POINT('',(-0.00564795629169505,0.007412311647507,-0.00775));
#1013=CARTESIAN_POINT('',(-0.00471491892506258,0.00725687036449687,-0.00775));
#1014=CARTESIAN_POINT('',(-0.00283132427614429,0.00712166847519483,-0.00775000000000001));
#1015=CARTESIAN_POINT('',(2.50467342184336E-7,0.00705216106349757,-0.00774999999999999));
#1016=CARTESIAN_POINT('',(0.00283291198995114,0.0071216910277727,-0.00775000000000001));
#1017=CARTESIAN_POINT('',(0.00471426362463722,0.00725603899636778,-0.00775));
#1018=CARTESIAN_POINT('',(0.00564833322338097,0.00741095200105912,-0.00775));
#1019=CARTESIAN_POINT('',(0.00779543190447018,-0.000333939670047869,-0.009));
#1020=CARTESIAN_POINT('',(0.00779543190447018,-0.000333939670047869,-0.00775));
#1021=CARTESIAN_POINT('',(0.00770285457019949,5.42101086242752E-20,-0.00775));
#1022=CARTESIAN_POINT('',(0.00770285457019949,0.,1.21115239050017E-18));
#1023=CARTESIAN_POINT('',(0.00770285457019949,4.13177085358799E-20,0.00765553950881711));
#1024=CARTESIAN_POINT('',(0.00770285457019948,-1.62630325872825E-18,0.00765553950881711));
#1025=CARTESIAN_POINT('',(1.59610359731275E-6,0.0670754198312433,-5.4695934783777E-5));
#1026=CARTESIAN_POINT('',(0.009,-0.000460267806489184,0.00783782378861481));
#1027=CARTESIAN_POINT('',(-1.11022302462516E-18,0.,0.00765553950881711));
#1028=CARTESIAN_POINT('',(-0.00770285457019949,2.19001895363971E-19,0.00765553950881711));
#1029=CARTESIAN_POINT('',(-0.00770285457019949,1.0842021724855E-18,0.00765553950881711));
#1030=CARTESIAN_POINT('',(-0.00779543190447019,-0.000333939670047869,0.009));
#1031=CARTESIAN_POINT('',(-0.00770285457019949,0.,1.21115239050017E-18));
#1032=CARTESIAN_POINT('',(-0.00770285457019949,5.42101086242752E-20,-0.00775));
#1033=CARTESIAN_POINT('',(-0.00779543190447019,-0.000333939670047869,-0.00775));
#1034=CARTESIAN_POINT('',(-0.009,2.74807679362662E-19,-0.00775));
#1035=CARTESIAN_POINT('',(-1.11022302462516E-18,0.,-0.00775));
#1036=CARTESIAN_POINT('',(0.00554553722911107,0.00864551354397075,0.00454082976600888));
#1037=CARTESIAN_POINT('',(0.00614970828369405,0.00907824209408972,0.00450864521384436));
#1038=CARTESIAN_POINT('',(0.00630442967772573,0.00913330530268519,0.00450839385315821));
#1039=CARTESIAN_POINT('',(0.00649551104704611,0.00903404250030806,0.00451153842394453));
#1040=CARTESIAN_POINT('',(0.00653937265593145,0.00887581954633788,0.00451505779847272));
#1041=CARTESIAN_POINT('',(0.0065393755142689,0.00887582033733845,0.004515057735988));
#1042=CARTESIAN_POINT('',(0.00614970801872571,0.00907824290501935,0.00450865975914358));
#1043=CARTESIAN_POINT('',(0.00614872614182011,0.0090811034496546,0.00450872589837161));
#1044=CARTESIAN_POINT('',(0.00614921714832679,0.0090799157696625,0.00456734549076974));
#1045=CARTESIAN_POINT('',(0.00614881923200406,0.00907747334722514,0.00470664897083417));
#1046=CARTESIAN_POINT('',(0.00596675650539001,0.00903420084628794,0.00513161261338097));
#1047=CARTESIAN_POINT('',(0.00571490617739358,0.00897804508885497,0.00523209774749795));
#1048=CARTESIAN_POINT('',(0.00557812147042107,0.00894793926821225,0.00524292778941111));
#1049=CARTESIAN_POINT('',(0.00557744197060213,0.00895092999059644,0.00524283156603186));
#1050=CARTESIAN_POINT('',(0.00557856720931203,0.00894803712442634,0.00524288421991236));
#1051=CARTESIAN_POINT('',(0.00558864212500194,0.008954026720502,0.00536444180191028));
#1052=CARTESIAN_POINT('',(0.00561267881279537,0.00887870781093376,0.0054847188715155));
#1053=CARTESIAN_POINT('',(0.00563413275032039,0.00876749185712154,0.00553071216574913));
#1054=CARTESIAN_POINT('',(0.00563406813205069,0.00876642001127501,0.00552815049058415));
#1055=CARTESIAN_POINT('',(0.00653937646657761,0.00887582060270218,0.00451505779847459));
#1056=CARTESIAN_POINT('',(0.00653153573989321,0.00890410322395608,0.00475946836954937));
#1057=CARTESIAN_POINT('',(0.00635357677111024,0.0089029176279812,0.00525091367725039));
#1058=CARTESIAN_POINT('',(0.00588161035966966,0.00881687442266588,0.00550816854547995));
#1059=CARTESIAN_POINT('',(0.005634068161855,0.00876642013534664,0.00552815044144688));
#1060=CARTESIAN_POINT('',(0.00732169614830665,0.00231069065332668,0.0070093065958352));
#1061=CARTESIAN_POINT('',(0.009,0.,0.00803023427479163));
#1062=CARTESIAN_POINT('',(0.009,0.,0.00826978899153322));
#1063=CARTESIAN_POINT('',(0.00881486441560976,0.,0.00880811135512924));
#1064=CARTESIAN_POINT('',(0.00829548701606742,0.,0.009));
#1065=CARTESIAN_POINT('',(0.00806436285284629,0.,0.009));
#1066=CARTESIAN_POINT('',(0.00806436285284424,-2.16840434497101E-19,0.009));
#1067=CARTESIAN_POINT('',(0.009,-2.16840434497101E-19,0.00803023427479163));
#1068=CARTESIAN_POINT('',(0.0082853506247305,0.00257784238936498,0.00700930659583521));
#1069=CARTESIAN_POINT('',(0.00732169614830279,0.0026789048985171,0.00793904756494372));
#1070=CARTESIAN_POINT('',(0.009,0.,0.009));
#1071=CARTESIAN_POINT('',(-0.00563403549239421,0.00876653777134654,0.00552810385293206));
#1072=CARTESIAN_POINT('',(-0.00470906928081943,0.00859193806817864,0.00559725225022629));
#1073=CARTESIAN_POINT('',(-0.00282619152006502,0.00846163872112387,0.00564885595203014));
#1074=CARTESIAN_POINT('',(2.50392798193577E-9,0.0083860703394582,0.00567878402397695));
#1075=CARTESIAN_POINT('',(0.00282440189757787,0.00846101792190465,0.00564910181310707));
#1076=CARTESIAN_POINT('',(0.00470919131242544,0.00859192082371027,0.00559725907971871));
#1077=CARTESIAN_POINT('',(0.00563406810721884,0.00876642012503833,0.00552815044552937));
#1078=CARTESIAN_POINT('',(-0.00563403551723634,0.00876653765758508,0.00552810389798611));
#1079=CARTESIAN_POINT('',(-0.00756198220313382,0.00181215877217715,0.0082823133575536));
#1080=CARTESIAN_POINT('',(-0.0080643628528463,-3.25260651745652E-19,0.009));
#1081=CARTESIAN_POINT('',(-1.11022302462516E-18,0.,0.009));
#1082=CARTESIAN_POINT('',(0.00557799685764881,0.00895059926755416,0.00524280379986045));
#1083=CARTESIAN_POINT('',(0.00506947522451361,0.00885468817217417,0.00528232520822059));
#1084=CARTESIAN_POINT('',(0.00348023573851097,0.00868273514232421,0.00535094048444032));
#1085=CARTESIAN_POINT('',(0.000803563442670108,0.0085799420144519,0.00539192648721958));
#1086=CARTESIAN_POINT('',(-0.00187551672079265,0.00861026226422256,0.0053799380385049));
#1087=CARTESIAN_POINT('',(-0.00401277150679659,0.0087397164761246,0.00532814120855558));
#1088=CARTESIAN_POINT('',(-0.00506938878346367,0.0088547500474195,0.00528232318890654));
#1089=CARTESIAN_POINT('',(-0.00557794065341095,0.00895071316285854,0.00524279119388215));
#1090=CARTESIAN_POINT('',(-0.00561353928430726,0.00895743058093927,0.00524002395423044));
#1091=CARTESIAN_POINT('',(-0.00564913791520357,0.00896414799902001,0.00523725671457874));
#1092=CARTESIAN_POINT('',(-0.00568473654609987,0.00897086541710074,0.00523448947492703));
#1093=CARTESIAN_POINT('',(0.00558274271539613,0.00895302055557139,0.005312431085859));
#1094=CARTESIAN_POINT('',(0.00507260765051306,0.00885643211542811,0.00535179511027595));
#1095=CARTESIAN_POINT('',(0.00348184490310675,0.00868426234935143,0.00542035402094585));
#1096=CARTESIAN_POINT('',(0.000803832921956852,0.00858135480448756,0.00546130974747436));
#1097=CARTESIAN_POINT('',(-0.00187622724393038,0.00861166454554844,0.00544931940148759));
#1098=CARTESIAN_POINT('',(-0.00401490053792126,0.00874134647049145,0.00539757861284698));
#1099=CARTESIAN_POINT('',(-0.00507252185790024,0.00885648869466135,0.00535178898859366));
#1100=CARTESIAN_POINT('',(-0.00558268967576925,0.00895312730014768,0.0053124123699526));
#1101=CARTESIAN_POINT('',(-0.00561840142302008,0.00895989200253172,0.00530965600664773));
#1102=CARTESIAN_POINT('',(-0.00565411317027091,0.00896665670491577,0.00530689964334285));
#1103=CARTESIAN_POINT('',(-0.00568982491752174,0.00897342140729981,0.00530414328003798));
#1104=CARTESIAN_POINT('',(0.00559932724143415,0.00891356915574714,0.00543476603313382));
#1105=CARTESIAN_POINT('',(0.00508327819874948,0.00881562021583149,0.00547385695716084));
#1106=CARTESIAN_POINT('',(0.00348736211724532,0.00864304015941938,0.00554230412176179));
#1107=CARTESIAN_POINT('',(0.000804689378537148,0.0085399108852973,0.00558320056085789));
#1108=CARTESIAN_POINT('',(-0.00187855646867233,0.00857019868497671,0.00557120960606694));
#1109=CARTESIAN_POINT('',(-0.00402221484258749,0.00870032759685008,0.00551957099272419));
#1110=CARTESIAN_POINT('',(-0.00508319338830872,0.0088156727617671,0.00547384047817119));
#1111=CARTESIAN_POINT('',(-0.00559928171081502,0.00891367195628295,0.00543473161879153));
#1112=CARTESIAN_POINT('',(-0.00563540789339046,0.00892053189989906,0.00543199399863495));
#1113=CARTESIAN_POINT('',(-0.0056715340759659,0.00892739184351517,0.00542925637847838));
#1114=CARTESIAN_POINT('',(-0.00570766025854134,0.00893425178713128,0.0054265187583218));
#1115=CARTESIAN_POINT('',(0.00562365234764514,0.00881414089401524,0.00550925113108307));
#1116=CARTESIAN_POINT('',(0.00509888332836323,0.00871492537441065,0.00554854287644153));
#1117=CARTESIAN_POINT('',(0.00349543917484624,0.00854199848167288,0.00561702926741789));
#1118=CARTESIAN_POINT('',(0.000805939718877135,0.00843867733589059,0.00565794876987419));
#1119=CARTESIAN_POINT('',(-0.00188197131189489,0.0084689403160444,0.00564596302696656));
#1120=CARTESIAN_POINT('',(-0.00403291752997753,0.00859947219849008,0.00559426756928215));
#1121=CARTESIAN_POINT('',(-0.00509879928715645,0.00871498289423371,0.00554852010675321));
#1122=CARTESIAN_POINT('',(-0.0056236158586204,0.00881425345142322,0.00550920655389179));
#1123=CARTESIAN_POINT('',(-0.00566035301862288,0.00882120239042649,0.00550645460519149));
#1124=CARTESIAN_POINT('',(-0.00569709017862535,0.00882815132942975,0.00550370265649119));
#1125=CARTESIAN_POINT('',(-0.00573382733862783,0.00883510026843302,0.00550095070779089));
#1126=CARTESIAN_POINT('',(0.00563406816185499,0.0087664201353467,0.00552815044144685));
#1127=CARTESIAN_POINT('',(0.00510556713154141,0.0086667062449952,0.00556764109109101));
#1128=CARTESIAN_POINT('',(0.0034988984374487,0.00849364486806373,0.00563618025027179));
#1129=CARTESIAN_POINT('',(0.000806475789573255,0.00839024914857012,0.00567712905007124));
#1130=CARTESIAN_POINT('',(-0.00188343489141227,0.00842050229064599,0.00566514760766495));
#1131=CARTESIAN_POINT('',(-0.00403750109026576,0.00855119176540953,0.00561338939983781));
#1132=CARTESIAN_POINT('',(-0.00510548342131008,0.00866676651883244,0.00556761722026438));
#1133=CARTESIAN_POINT('',(-0.00563403554703923,0.00876653778166152,0.00552810384884692));
#1134=CARTESIAN_POINT('',(-0.00567103419584027,0.00877352177005956,0.0055253379128477));
#1135=CARTESIAN_POINT('',(-0.00570803284464131,0.00878050575845759,0.00552257197684848));
#1136=CARTESIAN_POINT('',(-0.00574503149344235,0.00878748974685563,0.00551980604084925));
#1137=CARTESIAN_POINT('',(0.00557752192795041,0.00895050970454001,0.00524284070524269));
#1138=CARTESIAN_POINT('',(0.00468762552494909,0.00878271479661033,0.00531198195561653));
#1139=CARTESIAN_POINT('',(0.00280626688937548,0.00864906413173124,0.00536388688095341));
#1140=CARTESIAN_POINT('',(-2.76647138966455E-7,0.0085765243533343,0.00539357873411155));
#1141=CARTESIAN_POINT('',(-0.00280865581885728,0.00864974216134406,0.00536364104038413));
#1142=CARTESIAN_POINT('',(-0.00468801446031718,0.00878278517940833,0.00531196910849901));
#1143=CARTESIAN_POINT('',(-0.00557794065341095,0.00895071316285854,0.00524279119388215));
#1144=CARTESIAN_POINT('',(-0.00557787990058129,0.00895121575361152,0.00524277785224376));
#1145=CARTESIAN_POINT('',(-0.00563410036859784,0.00876761193431641,0.0055306711341947));
#1146=CARTESIAN_POINT('',(-0.00561264117124828,0.00887881670079714,0.00548467892210683));
#1147=CARTESIAN_POINT('',(-0.00558859478507124,0.00895412859847596,0.00536441737451359));
#1148=CARTESIAN_POINT('',(-0.00557851197471612,0.00894814735687362,0.00524287000352816));
#1149=CARTESIAN_POINT('',(0.00615507498029073,0.00909987288534821,0.00537612614102688));
#1150=CARTESIAN_POINT('',(0.00617806832219559,0.00900143724735385,0.000678504605057605));
#1151=CARTESIAN_POINT('',(0.00620106166250649,0.00890300160935948,-0.00401911693091167));
#1152=CARTESIAN_POINT('',(0.00622405500441134,0.00880456597136511,-0.00871673846688094));
#1153=CARTESIAN_POINT('',(0.00570414306475816,0.00893634097511686,0.00537955284702965));
#1154=CARTESIAN_POINT('',(0.00572558817318653,0.00883790533712249,0.000681931311060373));
#1155=CARTESIAN_POINT('',(0.00574693741005182,0.00873946969912812,-0.00401569022490889));
#1156=CARTESIAN_POINT('',(0.00576838251794572,0.00864103406113375,-0.00871331176087816));
#1157=CARTESIAN_POINT('',(0.00365125820572221,0.00864746101186298,0.00538560614086546));
#1158=CARTESIAN_POINT('',(0.00366547699694209,0.00854902537386861,0.000687984604896202));
#1159=CARTESIAN_POINT('',(0.00367969723798221,0.00845058973587425,-0.00400963693107308));
#1160=CARTESIAN_POINT('',(0.00369391602921019,0.00835215409787988,-0.00870725846704234));
#1161=CARTESIAN_POINT('',(-0.000460683735671008,0.00856617531310902,0.00538730943040367));
#1162=CARTESIAN_POINT('',(-0.000460876434240519,0.00846773967511465,0.000689687894434399));
#1163=CARTESIAN_POINT('',(-0.00046106136111689,0.00836930403712028,-0.00400793364153487));
#1164=CARTESIAN_POINT('',(-0.000461254059643075,0.00827086839912592,-0.00870555517750414));
#1165=CARTESIAN_POINT('',(-0.0041853965542178,0.00872277065842788,0.00538402807565736));
#1166=CARTESIAN_POINT('',(-0.00419863928504548,0.00862433502043352,0.000686406539688097));
#1167=CARTESIAN_POINT('',(-0.00421188142084101,0.00852589938243915,-0.00401121499628118));
#1168=CARTESIAN_POINT('',(-0.00422512415166537,0.00842746374444478,-0.00870883653225045));
#1169=CARTESIAN_POINT('',(-0.0057156809385971,0.00893859592524632,0.00537950559599996));
#1170=CARTESIAN_POINT('',(-0.00573431771403645,0.00884016028725196,0.000681884060030694));
#1171=CARTESIAN_POINT('',(-0.00575285938078352,0.00874172464925759,-0.00401573747593858));
#1172=CARTESIAN_POINT('',(-0.00577149615569267,0.00864328901126322,-0.00871335901190785));
#1173=CARTESIAN_POINT('',(-0.00616116452091384,0.00910230517213415,0.00537607517402162));
#1174=CARTESIAN_POINT('',(-0.00618133069146903,0.00900386953413978,0.000678453638052341));
#1175=CARTESIAN_POINT('',(-0.00620149686098316,0.00890543389614541,-0.00401916789791693));
#1176=CARTESIAN_POINT('',(-0.00622166303153835,0.00880699825815104,-0.00871678943388621));
#1177=CARTESIAN_POINT('',(0.00622054850543546,0.00881943862624307,-0.00800641110999017));
#1178=CARTESIAN_POINT('',(0.00619693497391625,0.00890570686035545,-0.00383472567792337));
#1179=CARTESIAN_POINT('',(0.00617332158754902,0.00899197469040252,0.000336959763320918));
#1180=CARTESIAN_POINT('',(0.00614970834514866,0.00907824211596057,0.00450864521374465));
#1181=CARTESIAN_POINT('',(0.00622054833866889,0.00881943902311419,-0.00800642439246553));
#1182=CARTESIAN_POINT('',(0.00559301838146827,0.00864716439908616,-0.00870636458022879));
#1183=CARTESIAN_POINT('',(0.00566740031782413,0.00866267996808881,-0.00870641023156602));
#1184=CARTESIAN_POINT('',(0.00582714999597705,0.00869754056644036,-0.00868177329949653));
#1185=CARTESIAN_POINT('',(0.00614691781771041,0.00877935295363475,-0.00845123656473949));
#1186=CARTESIAN_POINT('',(0.00622393006286831,0.00880903835168323,-0.00820927491735009));
#1187=CARTESIAN_POINT('',(0.0062195230376589,0.00882228189755096,-0.00800663246748729));
#1188=CARTESIAN_POINT('',(0.00559243594068512,0.00864989912863731,-0.00870643070185631));
#1189=CARTESIAN_POINT('',(0.00559232221274002,0.00865033217802337,-0.00870644025906628));
#1190=CARTESIAN_POINT('',(0.00502025531293367,0.00854656779319656,-0.00870641089056854));
#1191=CARTESIAN_POINT('',(0.00336460394936465,0.00836897509587793,-0.00870629962448083));
#1192=CARTESIAN_POINT('',(-3.99089498998374E-6,0.00827522645113833,-0.00870630211553611));
#1193=CARTESIAN_POINT('',(-0.0033703531616813,0.00836992251682364,-0.008706280857729));
#1194=CARTESIAN_POINT('',(-0.00502183360983663,0.00854828146678831,-0.00870638932388955));
#1195=CARTESIAN_POINT('',(-0.00559148786768065,0.00865201156366294,-0.00870641136319214));
#1196=CARTESIAN_POINT('',(-0.00559161391269432,0.00865131936582868,-0.00870639637588848));
#1197=CARTESIAN_POINT('',(-0.00621750827730622,0.00882475915740616,-0.00800659619380278));
#1198=CARTESIAN_POINT('',(-0.0062185572385183,0.00882162500181616,-0.00805406399182138));
#1199=CARTESIAN_POINT('',(-0.00621283154848264,0.0088154352633566,-0.00812815934224062));
#1200=CARTESIAN_POINT('',(-0.00619164997962036,0.00880270659572452,-0.00825872193900741));
#1201=CARTESIAN_POINT('',(-0.00609823687173462,0.0087716871790408,-0.00844545269109737));
#1202=CARTESIAN_POINT('',(-0.00605682893373081,0.00875990774329302,-0.00849436718410494));
#1203=CARTESIAN_POINT('',(-0.00594302783597367,0.0087290839887813,-0.00860234396277473));
#1204=CARTESIAN_POINT('',(-0.00578856461753646,0.00869137124453049,-0.0086833724195303));
#1205=CARTESIAN_POINT('',(-0.00566663957037973,0.00866427861236697,-0.00870638027972757));
#1206=CARTESIAN_POINT('',(-0.00559219495724127,0.00864864481225126,-0.00870633154296098));
#1207=CARTESIAN_POINT('',(-0.00621856532312352,0.00882186690595545,-0.00800638186816434));
#1208=CARTESIAN_POINT('',(-0.00614950281279536,0.00907843844078409,0.00450858371480241));
#1209=CARTESIAN_POINT('',(-0.00617253611767783,0.00899288025722493,0.000336929293626088));
#1210=CARTESIAN_POINT('',(-0.00619557015504553,0.00890732001213017,-0.00383472508122502));
#1211=CARTESIAN_POINT('',(-0.00621860493851946,0.00882175771038979,-0.00800637940977369));
#1212=CARTESIAN_POINT('',(-0.0061494642690832,0.00907854692485045,0.00450858127705179));
#1213=CARTESIAN_POINT('',(-0.00557857651030936,0.00894816191204824,0.00524287603311555));
#1214=CARTESIAN_POINT('',(-0.00564649207345268,0.00896311920698488,0.00523749207994077));
#1215=CARTESIAN_POINT('',(-0.00579688276764825,0.00899634355067493,0.00519586639447167));
#1216=CARTESIAN_POINT('',(-0.00601323255978044,0.00904542466736312,0.00502909235438314));
#1217=CARTESIAN_POINT('',(-0.00614712860985119,0.00907764646770426,0.00469305400448787));
#1218=CARTESIAN_POINT('',(-0.00614927129983031,0.00907951431585257,0.00460115278524316));
#1219=CARTESIAN_POINT('',(-0.00614847870218803,0.00908141331577257,0.0045086485651617));
#1220=CARTESIAN_POINT('',(-0.00554538703935276,0.00864580252392527,0.0045407416010298));
#1221=CARTESIAN_POINT('',(-0.00653917432256533,0.00887614513509884,0.00451491774831552));
#1222=CARTESIAN_POINT('',(-0.00649515637957478,0.00903426450938734,0.00451143331886449));
#1223=CARTESIAN_POINT('',(-0.00630419887090044,0.00913339769420184,0.00450832225475309));
#1224=CARTESIAN_POINT('',(-0.00614950289916236,0.00907843814064055,0.00450856899238601));
#1225=CARTESIAN_POINT('',(-0.00653927846042799,0.00887617412488476,0.00451491772314972));
#1226=CARTESIAN_POINT('',(-0.00563403554703919,0.00876653778166152,0.00552810384884693));
#1227=CARTESIAN_POINT('',(-0.0058815931992305,0.0088170109933437,0.0055081144580817));
#1228=CARTESIAN_POINT('',(-0.00635352119559903,0.00890310846663391,0.00525082969453467));
#1229=CARTESIAN_POINT('',(-0.00653144731141155,0.00890442219812266,0.00475934235635308));
#1230=CARTESIAN_POINT('',(-0.00653927842792813,0.0088761742421164,0.00451491774326039));
#1231=CARTESIAN_POINT('',(-0.00756198220313383,0.0014439445269858,0.00735257238844545));
#1232=CARTESIAN_POINT('',(-0.0080643628528463,0.,0.009));
#1233=CARTESIAN_POINT('',(-0.00829548701606742,0.,0.009));
#1234=CARTESIAN_POINT('',(-0.00881486441560976,0.,0.00880811135512924));
#1235=CARTESIAN_POINT('',(-0.009,0.,0.00826978899153322));
#1236=CARTESIAN_POINT('',(-0.009,0.,0.00803023427479163));
#1237=CARTESIAN_POINT('',(-0.009,2.71050543121376E-19,0.00803023427479163));
#1238=CARTESIAN_POINT('',(-0.00852563667955768,0.0017110962630241,0.00735257238844545));
#1239=CARTESIAN_POINT('',(-0.009,0.,0.009));
#1240=CARTESIAN_POINT('',(-0.00653927842792813,0.00887617424211639,0.00451491774326039));
#1241=CARTESIAN_POINT('',(-0.00656293555191434,0.008790839616309,0.000343278495506926));
#1242=CARTESIAN_POINT('',(-0.00658659267590055,0.0087055049905016,-0.00382836075224654));
#1243=CARTESIAN_POINT('',(-0.00661024979988675,0.00862017036469421,-0.008));
#1244=CARTESIAN_POINT('',(-0.00661024983291378,0.00862017024556103,-0.00799999993783161));
#1245=CARTESIAN_POINT('',(-0.009,-2.00577401909819E-18,-0.008));
#1246=CARTESIAN_POINT('',(-0.009,7.58596076260682E-20,-0.008));
#1247=CARTESIAN_POINT('',(-0.009,0.,1.21115239050017E-18));
#1248=CARTESIAN_POINT('',(-0.00628546946077822,0.00866763486626843,-0.00174253420638923));
#1249=CARTESIAN_POINT('',(-0.0062186047349562,0.00882175843895552,-0.00800634376841853));
#1250=CARTESIAN_POINT('',(-0.00637355456054313,0.00887796475277529,-0.0080066151570765));
#1251=CARTESIAN_POINT('',(-0.00656594605425447,0.0087788952398567,-0.00800349785001658));
#1252=CARTESIAN_POINT('',(-0.00661014345751447,0.00862014062931506,-0.00799999999477742));
#1253=CARTESIAN_POINT('',(-0.00563540989250214,0.00839924267686812,-0.00800095279422035));
#1254=CARTESIAN_POINT('',(-0.00559222956467747,0.0086486520328348,-0.00870633355681688));
#1255=CARTESIAN_POINT('',(-0.00559229901463429,0.00864501630213843,-0.00886024342944986));
#1256=CARTESIAN_POINT('',(-0.00561800218889804,0.00850740308015383,-0.00899813003093169));
#1257=CARTESIAN_POINT('',(-0.00564577983978587,0.00835595599289518,-0.00899937841886826));
#1258=CARTESIAN_POINT('',(-0.00564577953519609,0.00835596106077381,-0.009));
#1259=CARTESIAN_POINT('',(-0.00661024979988676,0.00862017036469421,-0.008));
#1260=CARTESIAN_POINT('',(-0.00661128955430468,0.00861641982197239,-0.00826196220641308));
#1261=CARTESIAN_POINT('',(-0.0064090219728769,0.00853646798620029,-0.00878323245916664));
#1262=CARTESIAN_POINT('',(-0.00590164050419131,0.00840992396223499,-0.00899999999999984));
#1263=CARTESIAN_POINT('',(-0.00564577956315218,0.00835596119263628,-0.009));
#1264=CARTESIAN_POINT('',(-0.00803634552357615,-0.000267151736038297,-0.008));
#1265=CARTESIAN_POINT('',(-0.009,0.,-0.008));
#1266=CARTESIAN_POINT('',(-0.009,0.,-0.00825512228824339));
#1267=CARTESIAN_POINT('',(-0.00877860572750064,0.,-0.0087866524182514));
#1268=CARTESIAN_POINT('',(-0.00822702822434772,0.,-0.009));
#1269=CARTESIAN_POINT('',(-0.00796228365615959,0.,-0.009));
#1270=CARTESIAN_POINT('',(-0.00796228365615992,0.,-0.009));
#1271=CARTESIAN_POINT('',(-0.00803634552357677,-0.000267151736038127,-0.009));
#1272=CARTESIAN_POINT('',(-0.009,0.,-0.009));
#1273=CARTESIAN_POINT('',(0.00564621905737363,0.00835437568356051,-0.009));
#1274=CARTESIAN_POINT('',(0.00471557418833289,0.00818489312734872,-0.009));
#1275=CARTESIAN_POINT('',(0.00283717526333668,0.00805514962085346,-0.009));
#1276=CARTESIAN_POINT('',(2.73728565294673E-6,0.00798056997296934,-0.009));
#1277=CARTESIAN_POINT('',(-0.00283065947801397,0.00805486441116739,-0.009));
#1278=CARTESIAN_POINT('',(-0.00471404945889324,0.00818529474850739,-0.009));
#1279=CARTESIAN_POINT('',(-0.00564577951273403,0.00835596118340109,-0.009));
#1280=CARTESIAN_POINT('',(0.00564621907970877,0.00835437556091614,-0.009));
#1281=CARTESIAN_POINT('',(0.00739401507296167,0.00204982596082106,-0.009));
#1282=CARTESIAN_POINT('',(0.00796228365615959,0.,-0.009));
#1283=CARTESIAN_POINT('',(-1.11022302462516E-18,0.,-0.009));
#1284=CARTESIAN_POINT('',(-0.00559173964961198,0.0086509846999997,-0.00870638888468683));
#1285=CARTESIAN_POINT('',(-0.00507797674251164,0.00855687839070997,-0.00870636859191516));
#1286=CARTESIAN_POINT('',(-0.00348857477458824,0.00838716551516229,-0.00870630594674374));
#1287=CARTESIAN_POINT('',(-0.00079989089902378,0.00828481045518262,-0.00870627850846899));
#1288=CARTESIAN_POINT('',(0.00187895241991641,0.00831473750421718,-0.00870629156512379));
#1289=CARTESIAN_POINT('',(0.00402763773271538,0.00844320134149776,-0.00870633971312414));
#1290=CARTESIAN_POINT('',(0.00507909650633972,0.00855596030306919,-0.00870638951800897));
#1291=CARTESIAN_POINT('',(0.0055924815523071,0.00864945372313832,-0.00870642114539212));
#1292=CARTESIAN_POINT('',(0.00562841850552482,0.00865599826254316,-0.00870642335930894));
#1293=CARTESIAN_POINT('',(0.00566435545874253,0.008662542801948,-0.00870642557322576));
#1294=CARTESIAN_POINT('',(0.00570029241196025,0.00866908734135284,-0.00870642778714258));
#1295=CARTESIAN_POINT('',(-0.00559203692355066,0.00864936177364229,-0.00878384623575129));
#1296=CARTESIAN_POINT('',(-0.00507820739219849,0.00855524863220987,-0.00878382943007586));
#1297=CARTESIAN_POINT('',(-0.00348869069036073,0.00838554399263177,-0.00878377755820777));
#1298=CARTESIAN_POINT('',(-0.000799921530420994,0.00828319190042579,-0.00878375483988367));
#1299=CARTESIAN_POINT('',(0.00187902583274581,0.00831311712794527,-0.0087837656442451));
#1300=CARTESIAN_POINT('',(0.00402778607409667,0.00844157327949699,-0.00878380551680111));
#1301=CARTESIAN_POINT('',(0.00507932677919077,0.00855432519177104,-0.00878384675009705));
#1302=CARTESIAN_POINT('',(0.00559277863571755,0.00864782240985998,-0.00878387294176392));
#1303=CARTESIAN_POINT('',(0.00562872026567442,0.00865436721512621,-0.0087838747751806));
#1304=CARTESIAN_POINT('',(0.0056646618956313,0.00866091202039243,-0.00878387660859728));
#1305=CARTESIAN_POINT('',(0.00570060352558817,0.00866745682565866,-0.00878387844201396));
#1306=CARTESIAN_POINT('',(-0.00560400509436915,0.008584023184065,-0.00893684776788729));
#1307=CARTESIAN_POINT('',(-0.00508598699462324,0.00848914712307305,-0.00893684192795579));
#1308=CARTESIAN_POINT('',(-0.00349271101124347,0.0083192052336831,-0.00893682396685341));
#1309=CARTESIAN_POINT('',(-0.000800551241804843,0.00821673569641871,-0.0089368161205425));
#1310=CARTESIAN_POINT('',(0.0018807159018526,0.00824664631804379,-0.00893681981313575));
#1311=CARTESIAN_POINT('',(0.00403310620654425,0.00837534747789049,-0.00893683364029967));
#1312=CARTESIAN_POINT('',(0.00508709423383513,0.00848822113833071,-0.00893684788251745));
#1313=CARTESIAN_POINT('',(0.00560468112812238,0.00858246469137912,-0.00893685698362992));
#1314=CARTESIAN_POINT('',(0.00564091221072249,0.00858906174009251,-0.00893685762070779));
#1315=CARTESIAN_POINT('',(0.00567714329332259,0.0085956587888059,-0.00893685825778567));
#1316=CARTESIAN_POINT('',(0.0057133743759227,0.00860225583751928,-0.00893685889486354));
#1317=CARTESIAN_POINT('',(-0.00563182060380721,0.00843216821954116,-0.009));
#1318=CARTESIAN_POINT('',(-0.00510422975989286,0.00833553205714328,-0.00900000010577921));
#1319=CARTESIAN_POINT('',(-0.00350213285553251,0.00816498014795937,-0.00900000026134068));
#1320=CARTESIAN_POINT('',(-0.000802079393718957,0.00806221038839679,-0.0090000002741562));
#1321=CARTESIAN_POINT('',(0.00188478104924242,0.00809210572658044,-0.0090000003700589));
#1322=CARTESIAN_POINT('',(0.00404554660230977,0.00822140916583836,-0.00900000019745741));
#1323=CARTESIAN_POINT('',(0.00510530511138697,0.00833461732263938,-0.00900000016482799));
#1324=CARTESIAN_POINT('',(0.00563233918163937,0.008430591687473,-0.009));
#1325=CARTESIAN_POINT('',(0.00566923156655704,0.00843730989301135,-0.00899999998846204));
#1326=CARTESIAN_POINT('',(0.00570612395147471,0.00844402809854971,-0.00899999997692408));
#1327=CARTESIAN_POINT('',(0.00574301633639237,0.00845074630408806,-0.00899999996538612));
#1328=CARTESIAN_POINT('',(-0.00564577956315218,0.00835596119263626,-0.009));
#1329=CARTESIAN_POINT('',(-0.00511336238492457,0.00825843751211377,-0.009));
#1330=CARTESIAN_POINT('',(-0.00350685087866268,0.00808758018087546,-0.009));
#1331=CARTESIAN_POINT('',(-0.000802837353489107,0.00798466027488755,-0.009));
#1332=CARTESIAN_POINT('',(0.00188680225359436,0.00801454689756849,-0.009));
#1333=CARTESIAN_POINT('',(0.00405177960289235,0.00814415375119306,-0.009));
#1334=CARTESIAN_POINT('',(0.00511442203483242,0.00825752851433806,-0.009));
#1335=CARTESIAN_POINT('',(0.00564621910767929,0.00835437569272183,-0.009));
#1336=CARTESIAN_POINT('',(0.00568344490277857,0.00836115499520869,-0.009));
#1337=CARTESIAN_POINT('',(0.00572067069787785,0.00836793429769556,-0.009));
#1338=CARTESIAN_POINT('',(0.00575789649297713,0.00837471360018242,-0.009));
#1339=CARTESIAN_POINT('',(0.00564621941038204,0.00835437048926711,-0.00899936738817503));
#1340=CARTESIAN_POINT('',(0.00561858900037284,0.00850584130769608,-0.00899813860751551));
#1341=CARTESIAN_POINT('',(0.00559303155198036,0.00864349687899511,-0.00886027314050358));
#1342=CARTESIAN_POINT('',(0.00559296159410041,0.00864715251264502,-0.00870636626852081));
#1343=CARTESIAN_POINT('',(0.00563606514422446,0.00839726858261442,-0.00800095053994073));
#1344=CARTESIAN_POINT('',(0.00661104053186926,0.00861731261738269,-0.00799999993920687));
#1345=CARTESIAN_POINT('',(0.00656710039910075,0.00877581762623086,-0.00800352558004473));
#1346=CARTESIAN_POINT('',(0.00637538350357524,0.00887505389288584,-0.00800667323267901));
#1347=CARTESIAN_POINT('',(0.00622054850543547,0.00881943862624307,-0.00800641110999017));
#1348=CARTESIAN_POINT('',(0.00661104158677135,0.00861731291026063,-0.00799999991932912));
#1349=CARTESIAN_POINT('',(0.00564621910768068,0.00835437569272213,-0.009));
#1350=CARTESIAN_POINT('',(0.00590211050328409,0.00840815247871284,-0.00900000000000038));
#1351=CARTESIAN_POINT('',(0.00640942147610999,0.00853411237369977,-0.00878348562130985));
#1352=CARTESIAN_POINT('',(0.00661209195279703,0.00861352545598254,-0.00826196477449801));
#1353=CARTESIAN_POINT('',(0.0066110418890864,0.00861731318579551,-0.00799999999999963));
#1354=CARTESIAN_POINT('',(0.00739401507296168,0.00204982596082106,-0.008));
#1355=CARTESIAN_POINT('',(0.00796228365615959,0.,-0.009));
#1356=CARTESIAN_POINT('',(0.00822702822434772,0.,-0.009));
#1357=CARTESIAN_POINT('',(0.00877860572750066,0.,-0.00878665241825141));
#1358=CARTESIAN_POINT('',(0.009,0.,-0.00825512228824339));
#1359=CARTESIAN_POINT('',(0.009,0.,-0.008));
#1360=CARTESIAN_POINT('',(0.009,3.25260651745652E-19,-0.00799999999999981));
#1361=CARTESIAN_POINT('',(0.00835766954938553,0.00231697769685935,-0.00799999999999963));
#1362=CARTESIAN_POINT('',(0.00632767366367777,0.00851651556283865,-0.00900000006191374));
#1363=CARTESIAN_POINT('',(0.00653937265628927,0.00887581954504719,0.004515057735987));
#1364=CARTESIAN_POINT('',(0.00656326199791404,0.00878965038964217,0.000343371854877539));
#1365=CARTESIAN_POINT('',(0.00658715133953881,0.00870348123423714,-0.00382831402623193));
#1366=CARTESIAN_POINT('',(0.00661104068116358,0.00861731207883211,-0.00799999990734139));
#1367=CARTESIAN_POINT('',(0.009,0.,-0.009));
#1368=CARTESIAN_POINT('',(0.009,0.,1.21115239050017E-18));
#1369=CARTESIAN_POINT('',(-1.11022302462516E-18,0.,1.21115239050017E-18));
#1370=MECHANICAL_DESIGN_GEOMETRIC_PRESENTATION_REPRESENTATION('',(#635),
#1371);
#1371=(
GEOMETRIC_REPRESENTATION_CONTEXT(3)
GLOBAL_UNCERTAINTY_ASSIGNED_CONTEXT((#1372))
GLOBAL_UNIT_ASSIGNED_CONTEXT((#1375,#1374,#1373))
REPRESENTATION_CONTEXT('1x1 R3 v8:1__Body2','TOP_LEVEL_ASSEMBLY_PART')
);
#1372=UNCERTAINTY_MEASURE_WITH_UNIT(LENGTH_MEASURE(2.E-5),#1375,
'DISTANCE_ACCURACY_VALUE','Maximum Tolerance applied to model');
#1373=(
NAMED_UNIT(*)
SI_UNIT($,.STERADIAN.)
SOLID_ANGLE_UNIT()
);
#1374=(
NAMED_UNIT(*)
PLANE_ANGLE_UNIT()
SI_UNIT($,.RADIAN.)
);
#1375=(
LENGTH_UNIT()
NAMED_UNIT(*)
SI_UNIT($,.METRE.)
);
#1376=PRODUCT_DEFINITION_SHAPE('','',#1377);
#1377=PRODUCT_DEFINITION('','',#1379,#1378);
#1378=PRODUCT_DEFINITION_CONTEXT('',#1385,'design');
#1379=PRODUCT_DEFINITION_FORMATION_WITH_SPECIFIED_SOURCE('','',#1381,
 .NOT_KNOWN.);
#1380=PRODUCT_RELATED_PRODUCT_CATEGORY('','',(#1381));
#1381=PRODUCT('1x1 R3 v8:1__Body2','1x1 R3 v8:1__Body2',
'1x1 R3 v8:1__Body2',(#1383));
#1382=PRODUCT_CATEGORY('','');
#1383=PRODUCT_CONTEXT('',#1385,'mechanical');
#1384=APPLICATION_PROTOCOL_DEFINITION('international standard',
'ap242_managed_model_based_3d_engineering',2020,#1385);
#1385=APPLICATION_CONTEXT('managed model based 3d engineering');
ENDSEC;
END-ISO-10303-21;
