#VRML V2.0 utf8
Shape { appearance Appearance { material Material { diffuseColor 0.08 0.08 0.08 specularColor 0.25 0.25 0.25 shininess 0.35 } } geometry IndexedFaceSet { solid TRUE coord Coordinate { point [ -7.824829 0.387500 9.595007, -7.807792 0.387500 9.724414, -7.757841 0.387500 9.845007, -7.678382 0.387500 9.948560, -7.574829 0.387500 10.028015, -7.454238 0.387500 10.077966, -7.324829 0.387500 10.095007, -7.324829 1.187500 10.095007, -7.342105 1.187500 10.094714, -7.359360 1.187500 10.093811, -7.376574 1.187500 10.092322, -7.365447 1.191100 10.093359, -7.486648 1.191100 10.068103, -7.597927 1.191100 10.013831, -7.692463 1.191100 9.933899, -7.764458 1.191100 9.833179, -7.809502 1.191100 9.717859, -7.824829 1.191100 9.595007, -2.824829 1.191100 10.093359, -2.824829 1.191100 9.470007, -6.994829 1.191100 9.470007, -6.994829 1.191100 8.300000, -7.824829 1.191100 8.300000, -2.824829 1.187500 10.092322, -2.824829 1.187500 10.095007, 7.324829 0.387500 10.100012, 7.454238 0.387500 10.082971, 7.574829 0.387500 10.033020, 7.678382 0.387500 9.953564, 7.757841 0.387500 9.850012, 7.807792 0.387500 9.729419, 7.824829 0.387500 9.600012, 7.824829 1.187500 9.600012, 7.823753 1.187500 9.632800, 7.820529 1.187500 9.665442, 7.815172 1.187500 9.697803, 7.815172 1.191100 9.697803, 7.777420 1.191100 9.812524, 7.713265 1.191100 9.914832, 7.626450 1.191100 9.998792, 7.522038 1.191100 10.059473, 7.406120 1.191100 10.093359, 7.412154 1.187500 10.092322, 7.383212 1.187500 10.096582, 7.354071 1.187500 10.099158, 7.324829 1.187500 10.100012, 7.824829 0.387500 8.300000, 7.824829 1.187500 8.300000, 2.815171 0.387500 10.100012, 2.815171 0.387500 9.470007, 6.985172 0.387500 9.470007, 6.985172 0.387500 8.300000, 2.815171 1.187500 10.100012, 2.815171 1.187500 10.092322, 5.975462 -0.055501 5.302100, 5.975462 -0.055501 8.802100, 4.930171 -0.055501 8.802100, 4.930171 -0.055501 5.302100, -6.004829 -0.055501 8.802100, -6.004829 -0.055501 5.302100, -4.939829 -0.055501 5.302100, -4.939829 -0.055501 8.802100, 5.975462 -0.905501 8.802100, 5.975462 -0.905501 5.302100, 6.755574 -0.905501 5.302100, 6.755574 -0.905501 9.492163, 4.930171 -0.905501 9.492163, 4.930171 -0.905501 8.802100, 4.930171 -4.855501 5.302100, 7.285172 0.240498 9.770007, 7.276969 0.222751 9.815686, -4.939829 -0.905501 9.492163, -6.765231 -0.905501 9.492163, -6.765231 -0.905501 5.302100, -6.004829 -0.905501 5.302100, -6.004829 -0.905501 8.802100, -4.939829 -0.905501 8.802100, -7.294829 0.222751 9.815686, -7.183394 -0.026965 9.744080, -7.173367 -0.022333 9.745410, -4.939829 -3.592384 8.721716, 4.930171 -3.592384 8.721716, -4.939829 -4.855501 5.302100, -4.939828 -4.855501 7.630774, -4.939829 -4.843477 7.739771, -4.939829 -4.807985 7.843518, -4.939829 -4.750728 7.937036, -4.939829 -4.423045 8.278625, -4.939829 -4.031148 8.544104, -5.274829 6.126500 8.500000, -5.268285 6.126500 8.406287, -5.248393 6.126500 8.314075, -5.214861 6.126500 8.226147, -5.168923 6.126500 8.147534, -5.111909 6.126500 8.081189, -5.043641 6.126500 8.028577, -4.964553 6.126500 7.993250, -4.922235 6.126500 7.983667, -4.878678 6.126500 7.980029, -4.834847 6.126500 7.982605, -4.791811 6.126500 7.991333, -4.749951 6.126500 8.005994, -4.710160 6.126500 8.026111, -4.638707 6.126500 8.080273, -4.579599 6.126500 8.149146, -4.533711 6.126500 8.228442, -4.501043 6.126500 8.314844, -4.481445 6.126500 8.405823, -4.474828 6.126500 8.499097, -4.481272 6.126500 8.592993, -4.501043 6.126500 8.685156, -4.533826 6.126500 8.771826, -4.578522 6.126500 8.849329, -4.634635 6.126500 8.915820, -4.702921 6.126500 8.969531, -4.782161 6.126500 9.005859, -4.824751 6.126500 9.015918, -4.868699 6.126500 9.019946, -4.912695 6.126500 9.017676, -4.956227 6.126500 9.009119, -4.998516 6.126500 8.994519, -5.038561 6.126500 8.974451, -5.110751 6.126500 8.919934, -5.170342 6.126500 8.850452, -5.216395 6.126500 8.770618, -5.248896 6.126500 8.684192, -5.268346 6.126500 8.593250, -3.344829 6.126500 5.280005, -4.204828 6.126500 5.280005, -4.204828 6.126500 5.080005, -3.344829 6.126500 5.080005, -0.700936 6.126500 5.047095, -0.710658 6.126500 4.965173, -0.739284 6.126500 4.887805, -0.785223 6.126500 4.819287, -0.845923 6.126500 4.763416, -0.918013 6.126500 4.723315, -1.362859 6.126500 4.483789, -1.748420 6.126500 4.157300, -2.057959 6.126500 3.757996, -2.113834 6.126500 3.689185, -2.185202 6.126500 3.636621, -2.267487 6.126500 3.603674, -2.355411 6.126500 3.592444, -5.439617 6.126500 3.592444, -5.439617 6.126500 9.280005, -0.700936 6.126500 9.280005, -0.700936 5.826500 5.047095, -0.710658 5.826500 4.965173, -0.739284 5.826500 4.887805, -0.785223 5.826500 4.819287, -0.845923 5.826500 4.763416, -0.918013 5.826500 4.723315, -0.700936 5.826500 9.280005, -2.057959 5.826500 3.757996, -2.113834 5.826500 3.689185, -2.185202 5.826500 3.636621, -2.267487 5.826500 3.603674, -2.355411 5.826500 3.592444, -5.439617 5.826500 3.592444, -1.362859 5.826500 4.483789, -1.748420 5.826500 4.157300, -5.439617 5.826500 9.280005, -4.204828 8.815498 5.080005, -3.344829 8.815498 5.080005, -4.204828 8.815498 5.280005, 4.465171 6.126500 8.500000, 4.471716 6.126500 8.406287, 4.491607 6.126500 8.314075, 4.525140 6.126500 8.226147, 4.571077 6.126500 8.147534, 4.628091 6.126500 8.081189, 4.696359 6.126500 8.028577, 4.775447 6.126500 7.993250, 4.817765 6.126500 7.983667, 4.861322 6.126500 7.980029, 4.905153 6.126500 7.982605, 4.948189 6.126500 7.991333, 4.990049 6.126500 8.005994, 5.029840 6.126500 8.026111, 5.101293 6.126500 8.080273, 5.160402 6.126500 8.149146, 5.206289 6.126500 8.228442, 5.238957 6.126500 8.314844, 5.258556 6.126500 8.405823, 5.265172 6.126500 8.499097, 5.258728 6.126500 8.592993, 5.238958 6.126500 8.685156, 5.206173 6.126500 8.771826, 5.161478 6.126500 8.849329, 5.105365 6.126500 8.915820, 5.037079 6.126500 8.969531, 4.957840 6.126500 9.005859, 4.915249 6.126500 9.015918, 4.871301 6.126500 9.019946, 4.827305 6.126500 9.017676, 4.783773 6.126500 9.009119, 4.741484 6.126500 8.994519, 4.701439 6.126500 8.974451, 4.629249 6.126500 8.919934, 4.569658 6.126500 8.850452, 4.523605 6.126500 8.770618, 4.491103 6.126500 8.684192, 4.471653 6.126500 8.593250, 2.265171 6.126500 7.780005, 2.265171 6.126500 7.580005, 3.125171 6.126500 7.580005, 3.125171 6.126500 7.780005, 0.916140 6.126500 4.723315, 0.844051 6.126500 4.763416, 0.783350 6.126500 4.819287, 0.737411 6.126500 4.887805, 0.708786 6.126500 4.965173, 0.699064 6.126500 5.047095, 0.699064 6.126500 9.280005, 5.437745 6.126500 9.280005, 5.437745 6.126500 3.592444, 2.353538 6.126500 3.592444, 2.265615 6.126500 3.603674, 2.183330 6.126500 3.636621, 2.111961 6.126500 3.689185, 2.056087 6.126500 3.757996, 1.746547 6.126500 4.157300, 1.360987 6.126500 4.483789, 0.916140 5.826500 4.723315, 0.844051 5.826500 4.763416, 0.783350 5.826500 4.819287, 0.737411 5.826500 4.887805, 0.708786 5.826500 4.965173, 0.699064 5.826500 5.047095, 0.699064 5.826500 9.280005, 2.353538 5.826500 3.592444, 2.265615 5.826500 3.603674, 2.183330 5.826500 3.636621, 2.111961 5.826500 3.689185, 2.056087 5.826500 3.757996, 5.437745 5.826500 3.592444, 1.746547 5.826500 4.157300, 1.360987 5.826500 4.483789, 5.437745 5.826500 9.280005, 6.365171 5.826500 9.280005, -6.374829 5.826500 9.280005, -0.004829 5.826500 4.405005, -0.503055 5.826500 4.339417, -0.967329 5.826500 4.147107, -1.366009 5.826500 3.841187, -1.671928 5.826500 3.442505, -1.864236 5.826500 2.978235, -1.929829 5.826500 2.480005, -1.864236 5.826500 1.981775, -1.671928 5.826500 1.517505, -1.366009 5.826500 1.118823, -0.967329 5.826500 0.812903, -0.503055 5.826500 0.620593, -0.004829 5.826500 0.555005, 0.493398 5.826500 0.620593, 0.957671 5.826500 0.812903, 1.356352 5.826500 1.118823, 1.662270 5.826500 1.517505, 1.854579 5.826500 1.981775, 1.920171 5.826500 2.480005, 1.854579 5.826500 2.978235, 1.662270 5.826500 3.442505, 1.356352 5.826500 3.841187, 0.957671 5.826500 4.147107, 0.493398 5.826500 4.339417, 3.125171 8.815498 7.580005, 3.125171 8.815498 7.780005, 2.265171 8.815498 7.580005, 4.548843 6.213716 8.500000, 4.649689 6.277684 8.500000, 4.758229 6.314929 8.500000, 4.865171 6.326500 8.500000, 4.787970 6.213715 8.101208, 4.571051 6.213715 8.651379, 4.664817 6.277684 8.603113, 4.765737 6.314929 8.551184, 4.600404 6.213715 8.725037, 4.684812 6.277684 8.653296, 4.775660 6.314929 8.576086, 4.641492 6.213715 8.790784, 4.712801 6.277684 8.698083, 4.789551 6.314929 8.598315, 4.692072 6.213715 8.844202, 4.747256 6.277684 8.734473, 4.806651 6.314929 8.616370, 4.748732 6.213715 8.882361, 4.785853 6.277684 8.760461, 4.825806 6.314929 8.629272, 4.807611 6.213715 8.904370, 4.825961 6.277684 8.775452, 4.845712 6.314929 8.636707, 4.865171 6.213715 8.911230, 4.865171 6.277684 8.780139, 4.865171 6.314929 8.639026, 4.922732 6.213715 8.904370, 4.904382 6.277684 8.775452, 4.884631 6.314929 8.636707, 4.981611 6.213715 8.882361, 4.944490 6.277684 8.760461, 4.904536 6.314929 8.629272, 5.038270 6.213715 8.844202, 4.983086 6.277684 8.734473, 4.923692 6.314929 8.616370, 5.088850 6.213715 8.790784, 5.017542 6.277684 8.698083, 4.940792 6.314929 8.598315, 5.150887 6.213715 8.676501, 5.059800 6.277684 8.620227, 4.961765 6.314929 8.559668, 5.179202 6.213715 8.549500, 5.079089 6.277684 8.533716, 4.971337 6.314929 8.516736, 5.176257 6.213715 8.425439, 5.077075 6.277684 8.449146, 4.970333 6.314929 8.474731, 5.141094 6.213715 8.298901, 5.053130 6.277684 8.363013, 4.958454 6.314929 8.432019, 5.072895 6.213715 8.189868, 5.006672 6.277684 8.288733, 4.935397 6.314929 8.395154, 5.029146 6.213715 8.148340, 4.976871 6.277684 8.260449, 4.920607 6.314929 8.381116, 4.981611 6.213715 8.117651, 4.944490 6.277684 8.239539, 4.904536 6.314929 8.370740, 4.932541 6.213715 8.098206, 4.911063 6.277684 8.226306, 4.887947 6.314929 8.364172, 4.884025 6.213715 8.089502, 4.878014 6.277684 8.220374, 4.871545 6.314929 8.361230, 4.836748 6.213715 8.090442, 4.845809 6.277684 8.221008, 4.855562 6.314929 8.361536, 4.812582 6.277684 8.228345, 4.839072 6.314929 8.365186, 4.822526 6.314929 8.372510, 4.779244 6.277684 8.243115, 4.739030 6.213715 8.122888, 4.692072 6.213715 8.155811, 4.747256 6.277684 8.265540, 4.806651 6.314929 8.383643, 4.612877 6.213715 8.251941, 4.693309 6.277684 8.331018, 4.779877 6.314929 8.416138, 4.564039 6.213715 8.374072, 4.660040 6.277684 8.414221, 4.763366 6.314929 8.457434, -5.191156 6.213716 8.500000, -5.090311 6.277684 8.500000, -4.981771 6.314929 8.500000, -4.874829 6.326500 8.500000, -4.952030 6.213715 8.101208, -5.168949 6.213715 8.651379, -5.075183 6.277684 8.603113, -4.974263 6.314929 8.551184, -5.139596 6.213715 8.725037, -5.055188 6.277684 8.653296, -4.964340 6.314929 8.576086, -5.098508 6.213715 8.790784, -5.027199 6.277684 8.698083, -4.950449 6.314929 8.598315, -5.047927 6.213715 8.844202, -4.992744 6.277684 8.734473, -4.933349 6.314929 8.616370, -4.991268 6.213715 8.882361, -4.954147 6.277684 8.760461, -4.914194 6.314929 8.629272, -4.932389 6.213715 8.904370, -4.914039 6.277684 8.775452, -4.894288 6.314929 8.636707, -4.874829 6.213715 8.911230, -4.874829 6.277684 8.780139, -4.874829 6.314929 8.639026, -4.817268 6.213715 8.904370, -4.835619 6.277684 8.775452, -4.855369 6.314929 8.636707, -4.758389 6.213715 8.882361, -4.795510 6.277684 8.760461, -4.835463 6.314929 8.629272, -4.701730 6.213715 8.844202, -4.756914 6.277684 8.734473, -4.816308 6.314929 8.616370, -4.651149 6.213715 8.790784, -4.722458 6.277684 8.698083, -4.799208 6.314929 8.598315, -4.589114 6.213715 8.676501, -4.680200 6.277684 8.620227, -4.778236 6.314929 8.559668, -4.560798 6.213715 8.549500, -4.660911 6.277684 8.533716, -4.768663 6.314929 8.516736, -4.563742 6.213715 8.425439, -4.662925 6.277684 8.449146, -4.769667 6.314929 8.474731, -4.598906 6.213715 8.298901, -4.686871 6.277684 8.363013, -4.781546 6.314929 8.432019, -4.667105 6.213715 8.189868, -4.733327 6.277684 8.288733, -4.804603 6.314929 8.395154, -4.710854 6.213715 8.148340, -4.763129 6.277684 8.260449, -4.819393 6.314929 8.381116, -4.758389 6.213715 8.117651, -4.795510 6.277684 8.239539, -4.835463 6.314929 8.370740, -4.807460 6.213715 8.098206, -4.828937 6.277684 8.226306, -4.852053 6.314929 8.364172, -4.855975 6.213715 8.089502, -4.861986 6.277684 8.220374, -4.868455 6.314929 8.361230, -4.903252 6.213715 8.090442, -4.894191 6.277684 8.221008, -4.884438 6.314929 8.361536, -4.927418 6.277684 8.228345, -4.900928 6.314929 8.365186, -4.917474 6.314929 8.372510, -4.960756 6.277684 8.243115, -5.000970 6.213715 8.122888, -5.047927 6.213715 8.155811, -4.992744 6.277684 8.265540, -4.933349 6.314929 8.383643, -5.127123 6.213715 8.251941, -5.046692 6.277684 8.331018, -4.960123 6.314929 8.416138, -5.175961 6.213715 8.374072, -5.079960 6.277684 8.414221, -4.976634 6.314929 8.457434, -0.479829 -9.026500 2.855005, -0.479829 -9.026500 4.280005, -0.679829 -8.826500 4.480005, -0.679829 -8.826500 3.055005, 0.470171 -9.026500 4.280005, 0.670171 -8.826500 4.480005, 0.470171 -9.026500 2.855005, 0.670171 -8.826500 3.055005, 1.795172 -9.026500 2.855005, 1.995172 -8.826500 3.055005, 1.795172 -9.026500 2.105005, 1.995172 -8.826500 1.905005, 0.470171 -9.026500 2.105005, 0.670171 -8.826500 1.905005, 0.470171 -9.026500 0.680005, 0.670171 -8.826500 0.480005, -0.679829 -8.826500 0.480005, -0.479829 -9.026500 0.680005, -0.679829 -8.826500 1.905005, -0.479829 -9.026500 2.105005, -2.004829 -8.826500 1.905005, -1.804829 -9.026500 2.105005, -2.004829 -8.826500 3.055005, -1.804829 -9.026500 2.855005, -0.679829 -5.378902 0.480005, 0.670171 -5.378902 0.480005, -0.679829 -5.378902 1.905005, -2.004829 -5.378902 1.905005, -2.004829 -5.378902 3.055005, -0.679829 -5.378902 3.055005, -0.679829 -5.378902 4.480005, 1.995172 -5.378902 1.905005, 1.995172 -5.378902 3.055005, 0.670171 -5.378902 4.480005, 0.670171 -5.378902 3.055005, -2.824829 0.387500 10.095007, -2.824829 0.387500 9.470007, 7.815172 1.187500 8.300000, 2.815171 1.191100 10.093359, 2.815171 1.191100 9.470007, 7.815172 1.191100 8.300000, 6.985172 2.592500 9.470007, 6.985172 1.191100 9.470007, 6.985172 1.191100 8.300000, 6.985172 0.338499 9.470007, -7.173367 -0.022333 9.667883, -7.294829 0.240498 9.770007, -3.604828 -4.855501 5.260010, 3.595171 -4.855501 5.260010, 4.930171 -4.855501 7.630774, 4.930171 -4.750728 7.937036, 4.930171 -4.423045 8.278625, 4.930171 -4.031148 8.544104, 4.930171 -4.843477 7.739771, 4.930171 -4.807985 7.843518, 1.820171 3.034875 9.924158, 1.820171 3.265755 9.929456, 1.095171 3.265755 9.929456, 1.095171 3.034875 9.924158, 1.820171 4.287413 9.370422, 1.095171 4.287413 9.370422, 1.820171 2.994299 9.850000, 1.820171 2.896300 9.850000, 1.820171 2.465100 9.480005, 1.820171 2.465100 9.470007, 1.820171 2.592500 9.470007, 1.820171 3.670499 9.406677, 1.820171 3.842770 9.396545, 1.095171 3.670499 9.406677, 1.095171 3.861238 9.395471, -1.829829 3.670499 9.406677, -1.829829 4.287407 9.370435, -1.104829 4.287407 9.370435, -1.104829 3.670499 9.406677, 1.095171 4.018268 9.386243, 1.095171 2.994299 9.850000, -1.104829 3.265755 9.929456, -1.104829 3.034875 9.924158, -1.104829 2.994299 9.850000, -1.104829 2.896300 9.850000, -1.104829 2.465100 9.480005, -1.104829 2.465100 9.470007, -1.104829 2.592500 9.470007, -1.829829 3.265755 9.929456, -1.829829 3.034875 9.924158, -1.829829 2.592500 9.470007, -1.829829 2.465100 9.470007, -1.829829 2.465100 9.480005, -1.829829 2.896300 9.850000, -1.829829 2.994299 9.850000, 0.905171 1.191100 10.960010, -0.914829 1.191100 10.960010, -0.914829 0.387500 10.960010, 0.905171 0.387500 10.960010, 0.905171 0.387500 9.470007, 0.905171 1.191100 9.470007, -0.914829 0.387500 9.470007, 3.595171 -4.859285 5.260010, 3.295171 -5.378902 4.960010, 3.295171 -5.378902 0.000000, -3.304828 -5.378902 0.000000, 0.670171 -5.378902 1.905005, -3.304828 -5.378902 4.960010, -3.604828 -4.859285 5.260010, -0.914829 1.191100 9.470007, -0.004829 9.026500 3.805554, 0.338250 9.026500 3.760388, 0.657949 9.026500 3.627966, 0.932480 9.026500 3.417310, 1.143136 9.026500 3.142786, 1.275559 9.026500 2.823083, 1.320727 9.026500 2.480005, 1.275559 9.026500 2.136926, 1.143136 9.026500 1.817224, 0.932480 9.026500 1.542700, 0.657949 9.026500 1.332043, 0.338250 9.026500 1.199622, -0.004829 9.026500 1.154456, -0.347908 9.026500 1.199622, -0.667606 9.026500 1.332043, -0.942138 9.026500 1.542700, -1.152793 9.026500 1.817224, -1.285217 9.026500 2.136926, -1.330384 9.026500 2.480005, -1.285217 9.026500 2.823083, -1.152793 9.026500 3.142786, -0.942138 9.026500 3.417310, -0.667606 9.026500 3.627966, -0.347908 9.026500 3.760388, -0.004829 7.988231 4.405005, 0.493398 7.988231 4.339417, 0.957671 7.988231 4.147107, 1.356352 7.988231 3.841187, 1.662270 7.988231 3.442505, 1.854579 7.988231 2.978235, 1.920171 7.988231 2.480005, 1.854579 7.988231 1.981775, 1.662270 7.988231 1.517505, 1.356352 7.988231 1.118823, 0.957671 7.988231 0.812903, 0.493398 7.988231 0.620593, -0.004829 7.988231 0.555005, -0.503055 7.988231 0.620593, -0.967329 7.988231 0.812903, -1.366009 7.988231 1.118823, -1.671928 7.988231 1.517505, -1.864236 7.988231 1.981775, -1.929829 7.988231 2.480005, -1.864236 7.988231 2.978235, -1.671928 7.988231 3.442505, -1.366009 7.988231 3.841187, -0.967329 7.988231 4.147107, -0.503055 7.988231 4.339417, 7.285172 0.338499 9.770007, -7.294829 0.338499 9.770007, 1.095171 2.465100 9.470007, 1.095171 2.592500 9.470007, -6.994829 2.592500 9.470007, -6.994829 0.387500 9.470007, -6.994829 0.338499 9.470007, -7.824829 0.387500 8.300000, -6.994829 0.387500 8.300000, 1.095171 2.896300 9.850000, 1.095171 2.465100 9.480005, -3.344829 8.815498 5.280005, 2.265171 8.815498 7.780005 ] } coordIndex [ 17, 0, 16 -1, 16, 0, 1 -1, 16, 1, 15 -1, 15, 1, 2 -1, 15, 2, 14 -1, 14, 2, 3 -1, 14, 3, 13 -1, 13, 3, 4 -1, 13, 4, 12 -1, 12, 4, 5 -1, 12, 5, 10 -1, 10, 5, 6 -1, 10, 6, 9 -1, 9, 6, 8 -1, 8, 6, 7 -1, 10, 11, 12 -1, 22, 17, 20 -1, 20, 17, 16 -1, 20, 16, 15 -1, 15, 14, 20 -1, 20, 14, 11 -1, 20, 11, 18 -1, 14, 13, 11 -1, 11, 13, 12 -1, 18, 19, 20 -1, 20, 21, 22 -1, 10, 23, 11 -1, 11, 23, 18 -1, 23, 10, 7 -1, 7, 10, 9 -1, 7, 9, 8 -1, 7, 24, 23 -1, 26, 43, 25 -1, 25, 43, 44 -1, 25, 44, 45 -1, 27, 40, 26 -1, 26, 40, 42 -1, 26, 42, 43 -1, 40, 27, 39 -1, 39, 27, 28 -1, 39, 28, 38 -1, 38, 28, 29 -1, 38, 29, 37 -1, 37, 29, 30 -1, 37, 30, 36 -1, 36, 30, 35 -1, 35, 30, 34 -1, 34, 30, 31 -1, 34, 31, 33 -1, 33, 31, 32 -1, 40, 41, 42 -1, 32, 31, 47 -1, 47, 31, 46 -1, 46, 31, 50 -1, 50, 31, 30 -1, 50, 30, 29 -1, 29, 28, 50 -1, 50, 28, 25 -1, 50, 25, 48 -1, 28, 27, 25 -1, 25, 27, 26 -1, 48, 49, 50 -1, 50, 51, 46 -1, 25, 45, 48 -1, 48, 45, 52 -1, 44, 43, 45 -1, 45, 43, 42 -1, 45, 42, 53 -1, 53, 52, 45 -1, 55, 56, 54 -1, 54, 56, 57 -1, 59, 60, 58 -1, 58, 60, 61 -1, 63, 64, 62 -1, 62, 64, 65 -1, 62, 65, 66 -1, 66, 67, 62 -1, 63, 62, 54 -1, 54, 62, 55 -1, 70, 65, 69 -1, 69, 65, 64 -1, 67, 56, 62 -1, 62, 56, 55 -1, 76, 71, 75 -1, 75, 71, 72 -1, 75, 72, 73 -1, 73, 74, 75 -1, 65, 70, 66 -1, 66, 70, 71 -1, 66, 71, 80 -1, 70, 77, 71 -1, 71, 77, 79 -1, 71, 79, 72 -1, 77, 78, 79 -1, 80, 81, 66 -1, 75, 74, 58 -1, 58, 74, 59 -1, 61, 60, 76 -1, 76, 60, 80 -1, 76, 80, 71 -1, 82, 83, 60 -1, 60, 83, 80 -1, 84, 86, 83 -1, 83, 86, 87 -1, 83, 87, 88 -1, 84, 85, 86 -1, 88, 80, 83 -1, 126, 89, 145 -1, 145, 89, 90 -1, 145, 90, 144 -1, 144, 90, 91 -1, 144, 91, 92 -1, 92, 93, 144 -1, 144, 93, 94 -1, 144, 94, 128 -1, 128, 94, 95 -1, 128, 95, 96 -1, 96, 97, 128 -1, 128, 97, 98 -1, 128, 98, 99 -1, 99, 100, 128 -1, 128, 100, 101 -1, 128, 101, 102 -1, 102, 103, 128 -1, 128, 103, 127 -1, 127, 103, 104 -1, 127, 104, 105 -1, 105, 106, 127 -1, 127, 106, 146 -1, 127, 146, 131 -1, 106, 107, 146 -1, 146, 107, 108 -1, 146, 108, 109 -1, 109, 110, 146 -1, 146, 110, 111 -1, 146, 111, 112 -1, 112, 113, 146 -1, 146, 113, 114 -1, 146, 114, 115 -1, 146, 115, 145 -1, 145, 115, 116 -1, 145, 116, 117 -1, 117, 118, 145 -1, 145, 118, 119 -1, 145, 119, 120 -1, 120, 121, 145 -1, 145, 121, 122 -1, 145, 122, 123 -1, 123, 124, 145 -1, 145, 124, 125 -1, 145, 125, 126 -1, 128, 129, 144 -1, 144, 129, 143 -1, 143, 129, 130 -1, 143, 130, 139 -1, 139, 130, 138 -1, 138, 130, 127 -1, 138, 127, 137 -1, 137, 127, 131 -1, 137, 131, 136 -1, 136, 131, 135 -1, 135, 131, 134 -1, 134, 131, 133 -1, 133, 131, 132 -1, 140, 141, 139 -1, 139, 141, 142 -1, 139, 142, 143 -1, 131, 147, 132 -1, 132, 147, 148 -1, 132, 148, 133 -1, 133, 148, 149 -1, 133, 149, 134 -1, 134, 149, 150 -1, 134, 150, 135 -1, 135, 150, 151 -1, 135, 151, 136 -1, 136, 151, 152 -1, 147, 131, 153 -1, 153, 131, 146 -1, 154, 155, 139 -1, 139, 155, 140 -1, 140, 155, 141 -1, 141, 155, 156 -1, 141, 156, 142 -1, 142, 156, 157 -1, 142, 157, 158 -1, 158, 143, 142 -1, 143, 158, 144 -1, 144, 158, 159 -1, 152, 160, 136 -1, 136, 160, 137 -1, 137, 160, 161 -1, 137, 161, 138 -1, 138, 161, 139 -1, 139, 161, 154 -1, 162, 145, 159 -1, 159, 145, 144 -1, 153, 146, 162 -1, 162, 146, 145 -1, 129, 163, 130 -1, 130, 163, 164 -1, 128, 165, 129 -1, 129, 165, 163 -1, 203, 166, 207 -1, 207, 166, 167 -1, 207, 167, 168 -1, 168, 169, 207 -1, 207, 169, 206 -1, 206, 169, 170 -1, 206, 170, 171 -1, 171, 172, 206 -1, 206, 172, 173 -1, 206, 173, 216 -1, 216, 173, 174 -1, 216, 174, 175 -1, 175, 176, 216 -1, 216, 176, 177 -1, 216, 177, 178 -1, 178, 179, 216 -1, 216, 179, 180 -1, 216, 180, 181 -1, 181, 182, 216 -1, 216, 182, 183 -1, 216, 183, 184 -1, 216, 184, 215 -1, 215, 184, 185 -1, 215, 185, 186 -1, 186, 187, 215 -1, 215, 187, 188 -1, 215, 188, 189 -1, 189, 190, 215 -1, 215, 190, 191 -1, 215, 191, 192 -1, 192, 193, 215 -1, 215, 193, 194 -1, 215, 194, 195 -1, 195, 196, 215 -1, 215, 196, 214 -1, 214, 196, 197 -1, 214, 197, 198 -1, 198, 199, 214 -1, 214, 199, 200 -1, 214, 200, 207 -1, 207, 200, 201 -1, 207, 201, 202 -1, 202, 203, 207 -1, 207, 204, 214 -1, 214, 204, 205 -1, 214, 205, 213 -1, 213, 205, 223 -1, 213, 223, 208 -1, 223, 205, 222 -1, 222, 205, 206 -1, 222, 206, 217 -1, 217, 206, 216 -1, 208, 209, 213 -1, 213, 209, 210 -1, 213, 210, 211 -1, 211, 212, 213 -1, 222, 217, 221 -1, 221, 217, 218 -1, 221, 218, 219 -1, 219, 220, 221 -1, 229, 213, 228 -1, 228, 213, 212 -1, 228, 212, 227 -1, 227, 212, 211 -1, 227, 211, 226 -1, 226, 211, 210 -1, 226, 210, 225 -1, 225, 210, 209 -1, 225, 209, 224 -1, 224, 209, 208 -1, 213, 229, 214 -1, 214, 229, 230 -1, 221, 220, 235 -1, 235, 220, 234 -1, 234, 220, 233 -1, 233, 220, 219 -1, 233, 219, 232 -1, 232, 219, 218 -1, 232, 218, 217 -1, 217, 231, 232 -1, 231, 217, 236 -1, 236, 217, 216 -1, 208, 223, 224 -1, 224, 223, 238 -1, 238, 223, 222 -1, 238, 222, 237 -1, 237, 222, 235 -1, 235, 222, 221 -1, 215, 239, 216 -1, 216, 239, 236 -1, 214, 230, 215 -1, 215, 230, 239 -1, 153, 230, 147 -1, 147, 230, 229 -1, 147, 229, 242 -1, 242, 229, 228 -1, 242, 228, 265 -1, 265, 228, 227 -1, 265, 227, 226 -1, 226, 225, 265 -1, 265, 225, 224 -1, 265, 224, 264 -1, 264, 224, 238 -1, 264, 238, 263 -1, 263, 238, 237 -1, 263, 237, 262 -1, 262, 237, 235 -1, 262, 235, 234 -1, 234, 233, 262 -1, 262, 233, 261 -1, 261, 233, 232 -1, 261, 232, 231 -1, 261, 231, 260 -1, 260, 231, 236 -1, 260, 236, 259 -1, 259, 236, 258 -1, 239, 240, 236 -1, 159, 241, 162 -1, 158, 248, 159 -1, 159, 248, 249 -1, 159, 249, 250 -1, 248, 158, 247 -1, 247, 158, 157 -1, 247, 157, 156 -1, 247, 156, 246 -1, 246, 156, 155 -1, 246, 155, 154 -1, 154, 161, 246 -1, 246, 161, 245 -1, 245, 161, 160 -1, 245, 160, 244 -1, 244, 160, 152 -1, 244, 152, 243 -1, 243, 152, 151 -1, 243, 151, 150 -1, 150, 149, 243 -1, 243, 149, 148 -1, 243, 148, 242 -1, 242, 148, 147 -1, 206, 266, 207 -1, 207, 266, 267 -1, 205, 268, 206 -1, 206, 268, 266 -1, 166, 203, 269 -1, 269, 203, 274 -1, 269, 274, 275 -1, 275, 274, 278 -1, 275, 278, 279 -1, 279, 278, 282 -1, 279, 282, 272 -1, 203, 202, 274 -1, 274, 202, 201 -1, 274, 201, 277 -1, 277, 201, 200 -1, 277, 200, 280 -1, 280, 200, 199 -1, 280, 199, 283 -1, 283, 199, 198 -1, 283, 198, 286 -1, 286, 198, 197 -1, 286, 197, 289 -1, 289, 197, 196 -1, 289, 196, 195 -1, 289, 195, 292 -1, 292, 195, 194 -1, 292, 194, 193 -1, 292, 193, 295 -1, 295, 193, 192 -1, 295, 192, 298 -1, 298, 192, 191 -1, 298, 191, 301 -1, 301, 191, 190 -1, 301, 190, 304 -1, 304, 190, 189 -1, 304, 189, 188 -1, 304, 188, 307 -1, 307, 188, 187 -1, 307, 187, 310 -1, 310, 187, 186 -1, 310, 186, 185 -1, 310, 185, 313 -1, 313, 185, 184 -1, 313, 184, 183 -1, 313, 183, 316 -1, 316, 183, 182 -1, 316, 182, 181 -1, 316, 181, 319 -1, 319, 181, 180 -1, 319, 180, 322 -1, 322, 180, 179 -1, 322, 179, 325 -1, 325, 179, 178 -1, 325, 178, 328 -1, 328, 178, 177 -1, 328, 177, 176 -1, 328, 176, 331 -1, 331, 176, 175 -1, 331, 175, 334 -1, 334, 175, 174 -1, 334, 174, 273 -1, 273, 174, 173 -1, 273, 173, 172 -1, 171, 342, 172 -1, 172, 342, 341 -1, 172, 341, 273 -1, 273, 341, 340 -1, 273, 340, 337 -1, 337, 340, 339 -1, 337, 339, 338 -1, 338, 339, 272 -1, 171, 170, 342 -1, 342, 170, 345 -1, 342, 345, 346 -1, 346, 345, 349 -1, 346, 349, 350 -1, 350, 349, 270 -1, 350, 270, 271 -1, 170, 169, 345 -1, 345, 169, 348 -1, 345, 348, 349 -1, 349, 348, 269 -1, 349, 269, 270 -1, 169, 168, 348 -1, 348, 168, 167 -1, 348, 167, 269 -1, 269, 167, 166 -1, 271, 272, 350 -1, 272, 271, 276 -1, 276, 271, 270 -1, 276, 270, 275 -1, 275, 270, 269 -1, 350, 272, 347 -1, 347, 272, 344 -1, 344, 272, 339 -1, 338, 272, 336 -1, 336, 272, 333 -1, 333, 272, 330 -1, 330, 272, 327 -1, 324, 272, 321 -1, 321, 272, 318 -1, 312, 272, 309 -1, 309, 272, 306 -1, 306, 272, 303 -1, 300, 272, 297 -1, 297, 272, 294 -1, 294, 272, 291 -1, 291, 272, 288 -1, 288, 272, 285 -1, 285, 272, 282 -1, 279, 272, 276 -1, 327, 272, 324 -1, 272, 315, 318 -1, 318, 315, 317 -1, 318, 317, 321 -1, 321, 317, 320 -1, 321, 320, 324 -1, 324, 320, 323 -1, 324, 323, 327 -1, 327, 323, 326 -1, 327, 326, 330 -1, 330, 326, 329 -1, 330, 329, 333 -1, 333, 329, 332 -1, 333, 332, 336 -1, 336, 332, 335 -1, 336, 335, 338 -1, 338, 335, 337 -1, 315, 272, 312 -1, 303, 272, 300 -1, 279, 276, 275 -1, 274, 277, 278 -1, 278, 277, 281 -1, 278, 281, 282 -1, 282, 281, 285 -1, 277, 280, 281 -1, 281, 280, 284 -1, 281, 284, 285 -1, 285, 284, 288 -1, 280, 283, 284 -1, 284, 283, 287 -1, 284, 287, 288 -1, 288, 287, 291 -1, 283, 286, 287 -1, 287, 286, 290 -1, 287, 290, 291 -1, 291, 290, 294 -1, 286, 289, 290 -1, 290, 289, 293 -1, 290, 293, 294 -1, 294, 293, 297 -1, 289, 292, 293 -1, 293, 292, 296 -1, 293, 296, 297 -1, 297, 296, 300 -1, 292, 295, 296 -1, 296, 295, 299 -1, 296, 299, 300 -1, 300, 299, 303 -1, 295, 298, 299 -1, 299, 298, 302 -1, 299, 302, 303 -1, 303, 302, 306 -1, 298, 301, 302 -1, 302, 301, 305 -1, 302, 305, 306 -1, 306, 305, 309 -1, 301, 304, 305 -1, 305, 304, 308 -1, 305, 308, 309 -1, 309, 308, 312 -1, 304, 307, 308 -1, 308, 307, 311 -1, 308, 311, 312 -1, 312, 311, 315 -1, 307, 310, 311 -1, 311, 310, 314 -1, 311, 314, 315 -1, 315, 314, 317 -1, 310, 313, 314 -1, 314, 313, 316 -1, 314, 316, 317 -1, 317, 316, 320 -1, 323, 320, 319 -1, 319, 320, 316 -1, 326, 323, 322 -1, 322, 323, 319 -1, 329, 326, 325 -1, 325, 326, 322 -1, 332, 329, 328 -1, 328, 329, 325 -1, 335, 332, 331 -1, 331, 332, 328 -1, 337, 335, 334 -1, 334, 335, 331 -1, 273, 337, 334 -1, 339, 340, 344 -1, 344, 340, 343 -1, 344, 343, 347 -1, 347, 343, 346 -1, 347, 346, 350 -1, 340, 341, 343 -1, 343, 341, 342 -1, 343, 342, 346 -1, 89, 126, 351 -1, 351, 126, 356 -1, 351, 356, 357 -1, 357, 356, 360 -1, 357, 360, 361 -1, 361, 360, 364 -1, 361, 364, 354 -1, 126, 125, 356 -1, 356, 125, 124 -1, 356, 124, 359 -1, 359, 124, 123 -1, 359, 123, 362 -1, 362, 123, 122 -1, 362, 122, 365 -1, 365, 122, 121 -1, 365, 121, 368 -1, 368, 121, 120 -1, 368, 120, 371 -1, 371, 120, 119 -1, 371, 119, 118 -1, 371, 118, 374 -1, 374, 118, 117 -1, 374, 117, 116 -1, 374, 116, 377 -1, 377, 116, 115 -1, 377, 115, 380 -1, 380, 115, 114 -1, 380, 114, 383 -1, 383, 114, 113 -1, 383, 113, 386 -1, 386, 113, 112 -1, 386, 112, 111 -1, 386, 111, 389 -1, 389, 111, 110 -1, 389, 110, 392 -1, 392, 110, 109 -1, 392, 109, 108 -1, 392, 108, 395 -1, 395, 108, 107 -1, 395, 107, 106 -1, 395, 106, 398 -1, 398, 106, 105 -1, 398, 105, 104 -1, 398, 104, 401 -1, 401, 104, 103 -1, 401, 103, 404 -1, 404, 103, 102 -1, 404, 102, 407 -1, 407, 102, 101 -1, 407, 101, 410 -1, 410, 101, 100 -1, 410, 100, 99 -1, 410, 99, 413 -1, 413, 99, 98 -1, 413, 98, 416 -1, 416, 98, 97 -1, 416, 97, 355 -1, 355, 97, 96 -1, 355, 96, 95 -1, 94, 424, 95 -1, 95, 424, 423 -1, 95, 423, 355 -1, 355, 423, 422 -1, 355, 422, 419 -1, 419, 422, 421 -1, 419, 421, 420 -1, 420, 421, 354 -1, 94, 93, 424 -1, 424, 93, 427 -1, 424, 427, 428 -1, 428, 427, 431 -1, 428, 431, 432 -1, 432, 431, 352 -1, 432, 352, 353 -1, 93, 92, 427 -1, 427, 92, 430 -1, 427, 430, 431 -1, 431, 430, 351 -1, 431, 351, 352 -1, 92, 91, 430 -1, 430, 91, 90 -1, 430, 90, 351 -1, 351, 90, 89 -1, 353, 354, 432 -1, 354, 353, 358 -1, 358, 353, 352 -1, 358, 352, 357 -1, 357, 352, 351 -1, 432, 354, 429 -1, 429, 354, 426 -1, 426, 354, 421 -1, 420, 354, 418 -1, 418, 354, 415 -1, 415, 354, 412 -1, 412, 354, 409 -1, 406, 354, 403 -1, 403, 354, 400 -1, 394, 354, 391 -1, 391, 354, 388 -1, 388, 354, 385 -1, 382, 354, 379 -1, 379, 354, 376 -1, 376, 354, 373 -1, 373, 354, 370 -1, 370, 354, 367 -1, 367, 354, 364 -1, 361, 354, 358 -1, 409, 354, 406 -1, 354, 397, 400 -1, 400, 397, 399 -1, 400, 399, 403 -1, 403, 399, 402 -1, 403, 402, 406 -1, 406, 402, 405 -1, 406, 405, 409 -1, 409, 405, 408 -1, 409, 408, 412 -1, 412, 408, 411 -1, 412, 411, 415 -1, 415, 411, 414 -1, 415, 414, 418 -1, 418, 414, 417 -1, 418, 417, 420 -1, 420, 417, 419 -1, 397, 354, 394 -1, 385, 354, 382 -1, 361, 358, 357 -1, 356, 359, 360 -1, 360, 359, 363 -1, 360, 363, 364 -1, 364, 363, 367 -1, 359, 362, 363 -1, 363, 362, 366 -1, 363, 366, 367 -1, 367, 366, 370 -1, 362, 365, 366 -1, 366, 365, 369 -1, 366, 369, 370 -1, 370, 369, 373 -1, 365, 368, 369 -1, 369, 368, 372 -1, 369, 372, 373 -1, 373, 372, 376 -1, 368, 371, 372 -1, 372, 371, 375 -1, 372, 375, 376 -1, 376, 375, 379 -1, 371, 374, 375 -1, 375, 374, 378 -1, 375, 378, 379 -1, 379, 378, 382 -1, 374, 377, 378 -1, 378, 377, 381 -1, 378, 381, 382 -1, 382, 381, 385 -1, 377, 380, 381 -1, 381, 380, 384 -1, 381, 384, 385 -1, 385, 384, 388 -1, 380, 383, 384 -1, 384, 383, 387 -1, 384, 387, 388 -1, 388, 387, 391 -1, 383, 386, 387 -1, 387, 386, 390 -1, 387, 390, 391 -1, 391, 390, 394 -1, 386, 389, 390 -1, 390, 389, 393 -1, 390, 393, 394 -1, 394, 393, 397 -1, 389, 392, 393 -1, 393, 392, 396 -1, 393, 396, 397 -1, 397, 396, 399 -1, 392, 395, 396 -1, 396, 395, 398 -1, 396, 398, 399 -1, 399, 398, 402 -1, 405, 402, 401 -1, 401, 402, 398 -1, 408, 405, 404 -1, 404, 405, 401 -1, 411, 408, 407 -1, 407, 408, 404 -1, 414, 411, 410 -1, 410, 411, 407 -1, 417, 414, 413 -1, 413, 414, 410 -1, 419, 417, 416 -1, 416, 417, 413 -1, 355, 419, 416 -1, 421, 422, 426 -1, 426, 422, 425 -1, 426, 425, 429 -1, 429, 425, 428 -1, 429, 428, 432 -1, 422, 423, 425 -1, 425, 423, 424 -1, 425, 424, 428 -1, 433, 434, 436 -1, 436, 434, 435 -1, 434, 437, 435 -1, 435, 437, 438 -1, 439, 440, 437 -1, 437, 440, 438 -1, 439, 441, 440 -1, 440, 441, 442 -1, 443, 444, 441 -1, 441, 444, 442 -1, 445, 446, 443 -1, 443, 446, 444 -1, 445, 447, 446 -1, 446, 447, 448 -1, 449, 448, 450 -1, 450, 448, 447 -1, 449, 450, 451 -1, 451, 450, 452 -1, 453, 451, 454 -1, 454, 451, 452 -1, 455, 453, 456 -1, 456, 453, 454 -1, 455, 456, 436 -1, 436, 456, 433 -1, 449, 457, 448 -1, 448, 457, 458 -1, 451, 459, 449 -1, 449, 459, 457 -1, 453, 460, 451 -1, 451, 460, 459 -1, 455, 461, 453 -1, 453, 461, 460 -1, 436, 462, 455 -1, 455, 462, 461 -1, 435, 463, 436 -1, 436, 463, 462 -1, 437, 434, 439 -1, 439, 434, 433 -1, 439, 433, 445 -1, 445, 433, 452 -1, 445, 452, 447 -1, 447, 452, 450 -1, 433, 456, 452 -1, 452, 456, 454 -1, 445, 443, 439 -1, 439, 443, 441 -1, 444, 464, 442 -1, 442, 464, 465 -1, 438, 466, 435 -1, 435, 466, 463 -1, 442, 465, 440 -1, 440, 465, 467 -1, 440, 467, 438 -1, 438, 467, 466 -1, 7, 6, 24 -1, 24, 6, 468 -1, 24, 468, 23 -1, 23, 468, 469 -1, 23, 469, 19 -1, 19, 18, 23 -1, 34, 33, 35 -1, 35, 33, 32 -1, 35, 32, 470 -1, 470, 32, 47 -1, 471, 472, 53 -1, 53, 472, 49 -1, 53, 49, 48 -1, 48, 52, 53 -1, 42, 41, 53 -1, 53, 41, 471 -1, 36, 35, 473 -1, 473, 35, 470 -1, 477, 51, 50 -1, 476, 474, 475 -1, 72, 478, 73 -1, 73, 478, 479 -1, 72, 79, 478 -1, 82, 480, 83 -1, 83, 480, 481 -1, 83, 481, 482 -1, 482, 481, 68 -1, 46, 51, 470 -1, 470, 51, 476 -1, 470, 476, 473 -1, 470, 47, 46 -1, 75, 58, 76 -1, 76, 58, 61 -1, 78, 478, 79 -1, 478, 78, 479 -1, 479, 78, 77 -1, 81, 80, 485 -1, 485, 80, 88 -1, 485, 88, 87 -1, 485, 87, 484 -1, 484, 87, 86 -1, 484, 86, 483 -1, 73, 82, 74 -1, 74, 82, 60 -1, 74, 60, 59 -1, 86, 85, 483 -1, 483, 85, 487 -1, 487, 85, 84 -1, 487, 84, 486 -1, 486, 84, 83 -1, 486, 83, 482 -1, 54, 57, 63 -1, 63, 57, 68 -1, 63, 68, 64 -1, 68, 57, 482 -1, 482, 57, 81 -1, 482, 81, 485 -1, 56, 67, 57 -1, 57, 67, 81 -1, 67, 66, 81 -1, 485, 484, 482 -1, 482, 484, 483 -1, 482, 483, 486 -1, 486, 483, 487 -1, 488, 489, 491 -1, 491, 489, 490 -1, 489, 492, 490 -1, 490, 492, 493 -1, 488, 494, 489 -1, 489, 494, 499 -1, 489, 499, 500 -1, 499, 494, 498 -1, 498, 494, 495 -1, 498, 495, 496 -1, 496, 497, 498 -1, 500, 492, 489 -1, 501, 502, 506 -1, 506, 502, 505 -1, 505, 502, 241 -1, 505, 241, 504 -1, 504, 241, 503 -1, 502, 507, 241 -1, 500, 499, 474 -1, 488, 491, 494 -1, 494, 491, 508 -1, 505, 509, 506 -1, 506, 509, 511 -1, 506, 511, 515 -1, 515, 511, 512 -1, 515, 512, 513 -1, 509, 510, 511 -1, 513, 514, 515 -1, 510, 509, 517 -1, 517, 509, 516 -1, 518, 522, 503 -1, 503, 522, 516 -1, 503, 516, 504 -1, 519, 520, 518 -1, 518, 520, 521 -1, 518, 521, 522 -1, 522, 517, 516 -1, 509, 505, 516 -1, 516, 505, 504 -1, 510, 517, 511 -1, 511, 517, 522 -1, 524, 525, 523 -1, 523, 525, 526 -1, 527, 528, 526 -1, 526, 528, 523 -1, 529, 527, 525 -1, 525, 527, 526 -1, 534, 458, 464 -1, 464, 458, 532 -1, 464, 532, 465 -1, 465, 532, 531 -1, 465, 531, 466 -1, 466, 531, 535 -1, 466, 535, 463 -1, 463, 535, 461 -1, 463, 461, 462 -1, 458, 457, 532 -1, 532, 457, 533 -1, 533, 457, 460 -1, 533, 460, 461 -1, 457, 459, 460 -1, 466, 467, 465 -1, 535, 533, 461 -1, 530, 536, 531 -1, 531, 536, 535 -1, 537, 529, 524 -1, 524, 529, 525 -1, 528, 537, 523 -1, 523, 537, 524 -1, 40, 39, 41 -1, 41, 39, 475 -1, 41, 475, 471 -1, 471, 475, 472 -1, 39, 38, 475 -1, 475, 38, 37 -1, 475, 37, 36 -1, 36, 473, 475 -1, 475, 473, 476 -1, 69, 479, 70 -1, 70, 479, 77 -1, 539, 549, 538 -1, 538, 549, 550 -1, 538, 550, 561 -1, 561, 550, 551 -1, 561, 551, 560 -1, 560, 551, 552 -1, 560, 552, 559 -1, 559, 552, 553 -1, 559, 553, 558 -1, 558, 553, 554 -1, 558, 554, 557 -1, 557, 554, 555 -1, 557, 555, 556 -1, 549, 539, 548 -1, 548, 539, 540 -1, 548, 540, 547 -1, 547, 540, 541 -1, 547, 541, 546 -1, 546, 541, 542 -1, 546, 542, 545 -1, 545, 542, 543 -1, 545, 543, 544 -1, 561, 585, 538 -1, 538, 585, 562 -1, 538, 562, 539 -1, 539, 562, 563 -1, 539, 563, 540 -1, 540, 563, 564 -1, 540, 564, 541 -1, 541, 564, 565 -1, 541, 565, 542 -1, 542, 565, 566 -1, 542, 566, 543 -1, 543, 566, 567 -1, 543, 567, 544 -1, 544, 567, 568 -1, 544, 568, 545 -1, 545, 568, 569 -1, 545, 569, 546 -1, 546, 569, 570 -1, 546, 570, 547 -1, 547, 570, 571 -1, 547, 571, 548 -1, 548, 571, 572 -1, 548, 572, 549 -1, 549, 572, 573 -1, 549, 573, 550 -1, 550, 573, 574 -1, 550, 574, 551 -1, 551, 574, 575 -1, 551, 575, 552 -1, 552, 575, 576 -1, 552, 576, 553 -1, 553, 576, 577 -1, 553, 577, 554 -1, 554, 577, 578 -1, 554, 578, 555 -1, 555, 578, 579 -1, 555, 579, 556 -1, 556, 579, 580 -1, 556, 580, 557 -1, 557, 580, 581 -1, 557, 581, 558 -1, 558, 581, 582 -1, 558, 582, 559 -1, 559, 582, 583 -1, 559, 583, 560 -1, 560, 583, 584 -1, 560, 584, 561 -1, 561, 584, 585 -1, 265, 563, 242 -1, 242, 563, 562 -1, 242, 562, 243 -1, 243, 562, 585 -1, 243, 585, 244 -1, 244, 585, 584 -1, 244, 584, 245 -1, 245, 584, 583 -1, 245, 583, 246 -1, 246, 583, 582 -1, 246, 582, 247 -1, 247, 582, 581 -1, 247, 581, 248 -1, 248, 581, 580 -1, 248, 580, 249 -1, 249, 580, 579 -1, 249, 579, 250 -1, 250, 579, 578 -1, 250, 578, 251 -1, 251, 578, 577 -1, 251, 577, 252 -1, 252, 577, 576 -1, 252, 576, 253 -1, 253, 576, 575 -1, 253, 575, 254 -1, 254, 575, 574 -1, 254, 574, 255 -1, 255, 574, 573 -1, 255, 573, 256 -1, 256, 573, 572 -1, 256, 572, 257 -1, 257, 572, 571 -1, 257, 571, 258 -1, 258, 571, 570 -1, 258, 570, 259 -1, 259, 570, 569 -1, 259, 569, 260 -1, 260, 569, 568 -1, 260, 568, 261 -1, 261, 568, 567 -1, 261, 567, 262 -1, 262, 567, 566 -1, 262, 566, 263 -1, 263, 566, 565 -1, 263, 565, 264 -1, 264, 565, 564 -1, 264, 564, 265 -1, 265, 564, 563 -1, 530, 481, 536 -1, 536, 481, 480 -1, 587, 479, 586 -1, 586, 479, 69 -1, 529, 592, 527 -1, 527, 592, 477 -1, 527, 477, 49 -1, 49, 477, 50 -1, 592, 529, 469 -1, 469, 529, 537 -1, 469, 537, 19 -1, 19, 537, 519 -1, 19, 519, 590 -1, 590, 519, 518 -1, 519, 537, 514 -1, 514, 537, 528 -1, 514, 528, 588 -1, 588, 528, 497 -1, 497, 528, 472 -1, 497, 472, 474 -1, 474, 472, 475 -1, 528, 527, 472 -1, 472, 527, 49 -1, 474, 498, 497 -1, 588, 589, 514 -1, 514, 589, 515 -1, 590, 20, 19 -1, 469, 591, 592 -1, 520, 513, 521 -1, 521, 513, 512 -1, 522, 521, 511 -1, 511, 521, 512 -1, 592, 587, 586 -1, 5, 4, 6 -1, 6, 4, 3 -1, 6, 3, 591 -1, 591, 3, 2 -1, 591, 2, 1 -1, 1, 0, 591 -1, 591, 0, 593 -1, 591, 593, 594 -1, 469, 468, 591 -1, 591, 468, 6 -1, 0, 17, 593 -1, 593, 17, 22 -1, 508, 595, 494 -1, 494, 595, 495 -1, 596, 496, 595 -1, 595, 496, 495 -1, 588, 497, 596 -1, 596, 497, 496 -1, 519, 514, 520 -1, 520, 514, 513 -1, 491, 490, 508 -1, 508, 490, 501 -1, 508, 501, 589 -1, 493, 507, 490 -1, 490, 507, 502 -1, 490, 502, 501 -1, 588, 596, 589 -1, 589, 596, 595 -1, 589, 595, 508 -1, 165, 597, 163 -1, 163, 597, 164 -1, 594, 592, 591 -1, 20, 590, 21 -1, 21, 594, 22 -1, 22, 594, 593 -1, 127, 597, 128 -1, 128, 597, 165 -1, 506, 515, 501 -1, 501, 515, 589 -1, 598, 267, 268 -1, 268, 267, 266 -1, 204, 598, 205 -1, 205, 598, 268 -1, 130, 164, 127 -1, 127, 164, 597 -1, 499, 498, 474 -1, 590, 518, 241 -1, 241, 518, 503 -1, 207, 267, 204 -1, 204, 267, 598 -1, 500, 474, 492 -1, 492, 474, 240 -1, 492, 240, 239 -1, 239, 230, 492 -1, 492, 230, 493 -1, 493, 230, 153 -1, 493, 153, 162 -1, 162, 241, 493 -1, 493, 241, 507 -1, 446, 534, 444 -1, 444, 534, 464 -1, 448, 458, 446 -1, 446, 458, 534 -1 ] } }
