#VRML V2.0 utf8
Shape { appearance Appearance { material Material { diffuseColor 0.08 0.08 0.08 specularColor 0.25 0.25 0.25 shininess 0.35 } } geometry IndexedFaceSet { solid TRUE coord Coordinate { point [ -7.824829 0.387500 15.583533, -7.807792 0.387500 15.712939, -7.757841 0.387500 15.833533, -7.678382 0.387500 15.937085, -7.574829 0.387500 16.016541, -7.454238 0.387500 16.066492, -7.324829 0.387500 16.083533, -7.324829 1.187500 16.083533, -7.342105 1.187500 16.083240, -7.359360 1.187500 16.082336, -7.376574 1.187500 16.080847, -7.365447 1.191100 16.081885, -7.486648 1.191100 16.056628, -7.597927 1.191100 16.002356, -7.692463 1.191100 15.922424, -7.764458 1.191100 15.821704, -7.809502 1.191100 15.706384, -7.824829 1.191100 15.583533, -2.824829 1.191100 16.081885, -2.824829 1.191100 15.458533, -6.994829 1.191100 15.458533, -6.994829 1.191100 14.288525, -7.824829 1.191100 14.288525, -2.824829 1.187500 16.080847, -2.824829 1.187500 16.083533, 7.324829 0.387500 16.088538, 7.454238 0.387500 16.071497, 7.574829 0.387500 16.021545, 7.678382 0.387500 15.942090, 7.757841 0.387500 15.838538, 7.807792 0.387500 15.717944, 7.824829 0.387500 15.588538, 7.824829 1.187500 15.588538, 7.823753 1.187500 15.621326, 7.820529 1.187500 15.653967, 7.815172 1.187500 15.686328, 7.815172 1.191100 15.686328, 7.777420 1.191100 15.801050, 7.713265 1.191100 15.903357, 7.626450 1.191100 15.987317, 7.522038 1.191100 16.047998, 7.406120 1.191100 16.081885, 7.412154 1.187500 16.080847, 7.383212 1.187500 16.085107, 7.354071 1.187500 16.087683, 7.324829 1.187500 16.088538, 7.824829 0.387500 14.288525, 7.824829 1.187500 14.288525, 2.815171 0.387500 16.088538, 2.815171 0.387500 15.458533, 6.985172 0.387500 15.458533, 6.985172 0.387500 14.288525, 2.815171 1.187500 16.088538, 2.815171 1.187500 16.080847, -7.324829 0.387500 0.638733, -7.454238 0.387500 0.655774, -7.574829 0.387500 0.705725, -7.678382 0.387500 0.785181, -7.757841 0.387500 0.888733, -7.807792 0.387500 1.009326, -7.824829 0.387500 1.138733, -7.824829 1.191100 1.138733, -7.811803 1.191100 1.025354, -7.773405 1.191100 0.917871, -7.711636 1.191100 0.821912, -7.629713 1.191100 0.742444, -7.531904 1.191100 0.683630, -7.423307 1.191100 0.648535, -7.423307 1.187500 0.648535, -7.390720 1.187500 0.643103, -7.357847 1.187500 0.639832, -7.324829 1.187500 0.638733, -2.824829 1.191100 0.648535, -2.824829 1.187500 0.648535, -7.824829 1.191100 2.648535, -6.994829 1.191100 2.648535, -6.994829 1.191100 1.478528, -2.824829 1.191100 1.478528, -7.824829 0.387500 2.648535, 7.815171 0.387500 1.068530, 7.798135 0.387500 0.939124, 7.748184 0.387500 0.818530, 7.668725 0.387500 0.714978, 7.565172 0.387500 0.635522, 7.444581 0.387500 0.585571, 7.315172 0.387500 0.568530, 7.315172 1.187500 0.568530, 7.410174 1.187500 0.577637, 7.501715 1.187500 0.604639, 7.586460 1.187500 0.648535, 7.586460 1.191100 0.648535, 7.681707 1.191100 0.728455, 7.754287 1.191100 0.829419, 7.799712 1.191100 0.945154, 7.815172 1.191100 1.068530, 2.815171 1.191100 0.648535, 2.815171 1.191100 1.478528, 6.985172 1.191100 1.478528, 6.985172 1.191100 2.648535, 7.815172 1.191100 2.648535, 2.815171 1.187500 0.648535, 2.815171 1.187500 0.568530, 0.863387 -0.996501 1.944092, 0.659442 -0.854279 1.844507, 0.444325 -0.750949 1.772156, 0.221653 -0.688248 1.728247, -0.004829 -0.667229 1.713525, -0.231310 -0.688248 1.728247, -0.453982 -0.750949 1.772156, -0.669100 -0.854279 1.844507, -0.873044 -0.996501 1.944092, -4.004829 -0.996501 1.944092, -4.004829 -4.855501 4.646191, -4.939828 -4.855501 4.646191, -4.939829 -2.491109 2.990625, -4.939833 -2.491109 2.990625, -4.939833 -0.905501 1.880371, -6.765231 -0.905501 1.880371, -7.145664 -0.082278 1.303943, -5.627732 -0.082278 1.303943, 5.618075 -0.082278 1.303943, 7.076785 -0.082278 1.303943, 7.136007 -0.082278 1.303943, 6.723225 -0.975500 1.929382, 4.929359 -0.975500 1.929382, 4.929359 -4.855501 4.646191, 3.995171 -4.855501 4.646191, 3.995171 -0.996501 1.944092, 1.745171 -0.596501 3.463525, 1.685542 -0.596501 3.916467, 1.510716 -0.596501 4.338525, 1.232608 -0.596501 4.700964, 0.870171 -0.596501 4.979077, 0.448105 -0.596501 5.153894, -0.004829 -0.596501 5.213525, -0.457762 -0.596501 5.153894, -0.879829 -0.596501 4.979077, -1.242266 -0.596501 4.700964, -1.520373 -0.596501 4.338525, -1.695199 -0.596501 3.916467, -1.754829 -0.596501 3.463525, -1.695199 -0.596501 3.010596, -1.520373 -0.596501 2.588525, -1.242266 -0.596501 2.226086, -0.879829 -0.596501 1.947986, -0.457762 -0.596501 1.773157, -0.004829 -0.596501 1.713525, 0.448105 -0.596501 1.773157, 0.870171 -0.596501 1.947986, 1.232608 -0.596501 2.226086, 1.510716 -0.596501 2.588525, 1.685542 -0.596501 3.010596, 5.975462 -0.055501 11.290625, 5.975462 -0.055501 14.790625, 4.930171 -0.055501 14.790625, 4.930171 -0.055501 11.290625, 4.930171 -0.055501 2.990625, 5.975462 -0.055501 2.990625, 5.975462 -0.055501 5.490625, 4.930171 -0.055501 5.490625, -6.049129 -0.055501 2.990625, -4.939829 -0.055501 2.990625, -4.939829 -0.055501 5.490625, -6.049129 -0.055501 5.490625, -6.004829 -0.055501 14.790625, -6.004829 -0.055501 11.290625, -4.939829 -0.055501 11.290625, -4.939829 -0.055501 14.790625, 5.975462 -0.905501 14.790625, 5.975462 -0.905501 11.290625, 6.755574 -0.905501 11.290625, 6.755574 -0.905501 15.480688, 4.930171 -0.905501 15.480688, 4.930171 -0.905501 14.790625, 4.930171 -4.855501 11.290625, 4.930171 -4.855501 5.490625, 6.723225 -0.975500 5.490625, 7.285172 0.240498 1.178528, 7.285172 0.240498 15.758533, 7.276969 0.222751 15.804211, 5.975462 -0.975500 5.490625, 5.975462 -0.975500 2.990625, 4.930171 -0.975500 2.990625, 4.930171 -0.975500 5.490625, 4.929359 -0.975500 5.490625, 4.929359 -4.855501 5.490625, 0.888183 -0.996501 4.968530, 1.246138 -0.996501 4.687292, 1.519444 -0.996501 4.323230, 1.689606 -0.996501 3.901013, 1.745113 -0.996501 3.449182, 1.682206 -0.996501 2.998328, 1.505143 -0.996501 2.578943, 1.225905 -0.996501 2.219421, 3.995171 -0.996501 4.968530, -1.235562 -0.996501 2.219421, -1.514800 -0.996501 2.578943, -1.691863 -0.996501 2.998328, -1.754770 -0.996501 3.449182, -1.699264 -0.996501 3.901013, -1.529101 -0.996501 4.323230, -1.255795 -0.996501 4.687292, -0.897841 -0.996501 4.968530, -4.004829 -0.996501 4.968530, -6.049129 -0.905501 5.490625, -4.939833 -0.905501 5.490625, -4.939833 -0.905501 5.490771, -6.765231 -0.905501 5.490771, -4.939833 -0.905501 2.990625, -6.049129 -0.905501 2.990625, -4.939829 -0.905501 15.480688, -6.765231 -0.905501 15.480688, -6.765231 -0.905501 11.290625, -6.004829 -0.905501 11.290625, -6.004829 -0.905501 14.790625, -4.939829 -0.905501 14.790625, -7.294829 0.222751 15.804211, -7.183394 -0.026965 15.732605, -7.173367 -0.022333 15.733936, -4.939829 -3.592384 14.710242, 4.930171 -3.592384 14.710242, -4.939829 -4.855501 11.290625, -4.939828 -4.855501 13.619299, -4.939829 -4.843477 13.728296, -4.939829 -4.807985 13.832043, -4.939829 -4.750728 13.925562, -4.939829 -4.423045 14.267151, -4.939829 -4.031148 14.532629, -5.274829 6.126500 14.488525, -5.268285 6.126500 14.394812, -5.248393 6.126500 14.302600, -5.214861 6.126500 14.214673, -5.168923 6.126500 14.136060, -5.111909 6.126500 14.069714, -5.043641 6.126500 14.017102, -4.964553 6.126500 13.981775, -4.922235 6.126500 13.972192, -4.878678 6.126500 13.968555, -4.834847 6.126500 13.971130, -4.791811 6.126500 13.979858, -4.749951 6.126500 13.994519, -4.710160 6.126500 14.014636, -4.638707 6.126500 14.068799, -4.579599 6.126500 14.137671, -4.533711 6.126500 14.216968, -4.501043 6.126500 14.303369, -4.481445 6.126500 14.394348, -4.474828 6.126500 14.487622, -4.481272 6.126500 14.581519, -4.501043 6.126500 14.673682, -4.533826 6.126500 14.760352, -4.578522 6.126500 14.837854, -4.634635 6.126500 14.904346, -4.702921 6.126500 14.958057, -4.782161 6.126500 14.994385, -4.824751 6.126500 15.004443, -4.868699 6.126500 15.008472, -4.912695 6.126500 15.006201, -4.956227 6.126500 14.997644, -4.998516 6.126500 14.983044, -5.038561 6.126500 14.962976, -5.110751 6.126500 14.908459, -5.170342 6.126500 14.838977, -5.216395 6.126500 14.759143, -5.248896 6.126500 14.672717, -5.268346 6.126500 14.581775, -3.344829 6.126500 11.268530, -4.204828 6.126500 11.268530, -4.204828 6.126500 11.068530, -3.344829 6.126500 11.068530, -0.700936 6.126500 11.035620, -0.710658 6.126500 10.953699, -0.739284 6.126500 10.876331, -0.785223 6.126500 10.807812, -0.845923 6.126500 10.751941, -0.918013 6.126500 10.711841, -1.362859 6.126500 10.472314, -1.748420 6.126500 10.145825, -2.057959 6.126500 9.746521, -2.113834 6.126500 9.677710, -2.185202 6.126500 9.625146, -2.267487 6.126500 9.592200, -2.355411 6.126500 9.580969, -5.439617 6.126500 9.580969, -5.439617 6.126500 15.268530, -0.700936 6.126500 15.268530, -0.700936 5.826500 11.035620, -0.710658 5.826500 10.953699, -0.739284 5.826500 10.876331, -0.785223 5.826500 10.807812, -0.845923 5.826500 10.751941, -0.918013 5.826500 10.711841, -0.700936 5.826500 15.268530, -2.057959 5.826500 9.746521, -2.113834 5.826500 9.677710, -2.185202 5.826500 9.625146, -2.267487 5.826500 9.592200, -2.355411 5.826500 9.580969, -5.439617 5.826500 9.580969, -1.362859 5.826500 10.472314, -1.748420 5.826500 10.145825, -5.439617 5.826500 15.268530, -4.204828 8.815498 11.068530, -3.344829 8.815498 11.068530, -4.204828 8.815498 11.268530, 4.465171 6.126500 14.488525, 4.471716 6.126500 14.394812, 4.491607 6.126500 14.302600, 4.525140 6.126500 14.214673, 4.571077 6.126500 14.136060, 4.628091 6.126500 14.069714, 4.696359 6.126500 14.017102, 4.775447 6.126500 13.981775, 4.817765 6.126500 13.972192, 4.861322 6.126500 13.968555, 4.905153 6.126500 13.971130, 4.948189 6.126500 13.979858, 4.990049 6.126500 13.994519, 5.029840 6.126500 14.014636, 5.101293 6.126500 14.068799, 5.160402 6.126500 14.137671, 5.206289 6.126500 14.216968, 5.238957 6.126500 14.303369, 5.258556 6.126500 14.394348, 5.265172 6.126500 14.487622, 5.258728 6.126500 14.581519, 5.238958 6.126500 14.673682, 5.206173 6.126500 14.760352, 5.161478 6.126500 14.837854, 5.105365 6.126500 14.904346, 5.037079 6.126500 14.958057, 4.957840 6.126500 14.994385, 4.915249 6.126500 15.004443, 4.871301 6.126500 15.008472, 4.827305 6.126500 15.006201, 4.783773 6.126500 14.997644, 4.741484 6.126500 14.983044, 4.701439 6.126500 14.962976, 4.629249 6.126500 14.908459, 4.569658 6.126500 14.838977, 4.523605 6.126500 14.759143, 4.491103 6.126500 14.672717, 4.471653 6.126500 14.581775, 2.265171 6.126500 13.768530, 2.265171 6.126500 13.568530, 3.125171 6.126500 13.568530, 3.125171 6.126500 13.768530, 0.916140 6.126500 10.711841, 0.844051 6.126500 10.751941, 0.783350 6.126500 10.807812, 0.737411 6.126500 10.876331, 0.708786 6.126500 10.953699, 0.699064 6.126500 11.035620, 0.699064 6.126500 15.268530, 5.437745 6.126500 15.268530, 5.437745 6.126500 9.580969, 2.353538 6.126500 9.580969, 2.265615 6.126500 9.592200, 2.183330 6.126500 9.625146, 2.111961 6.126500 9.677710, 2.056087 6.126500 9.746521, 1.746547 6.126500 10.145825, 1.360987 6.126500 10.472314, 0.916140 5.826500 10.711841, 0.844051 5.826500 10.751941, 0.783350 5.826500 10.807812, 0.737411 5.826500 10.876331, 0.708786 5.826500 10.953699, 0.699064 5.826500 11.035620, 0.699064 5.826500 15.268530, 2.353538 5.826500 9.580969, 2.265615 5.826500 9.592200, 2.183330 5.826500 9.625146, 2.111961 5.826500 9.677710, 2.056087 5.826500 9.746521, 5.437745 5.826500 9.580969, 1.746547 5.826500 10.145825, 1.360987 5.826500 10.472314, 5.437745 5.826500 15.268530, 6.365171 5.826500 15.268530, 6.365171 5.826500 1.668530, -6.374829 5.826500 1.668530, -6.374829 5.826500 15.268530, -0.004829 5.826500 10.393530, -0.503055 5.826500 10.327942, -0.967329 5.826500 10.135632, -1.366009 5.826500 9.829712, -1.671928 5.826500 9.431030, -1.864236 5.826500 8.966760, -1.929829 5.826500 8.468530, -1.864236 5.826500 7.970300, -1.671928 5.826500 7.506030, -1.366009 5.826500 7.107349, -0.967329 5.826500 6.801428, -0.503055 5.826500 6.609119, -0.004829 5.826500 6.543530, 0.493398 5.826500 6.609119, 0.957671 5.826500 6.801428, 1.356352 5.826500 7.107349, 1.662270 5.826500 7.506030, 1.854579 5.826500 7.970300, 1.920171 5.826500 8.468530, 1.854579 5.826500 8.966760, 1.662270 5.826500 9.431030, 1.356352 5.826500 9.829712, 0.957671 5.826500 10.135632, 0.493398 5.826500 10.327942, 4.365171 5.826500 2.388525, 4.373395 5.826500 2.280139, 4.398103 5.826500 2.174377, 4.439343 5.826500 2.074072, 4.496986 5.826500 1.982568, 4.570665 5.826500 1.903662, 4.658666 5.826500 1.842090, 4.758453 5.826500 1.802356, 4.864627 5.826500 1.788525, 4.970796 5.826500 1.802075, 5.070713 5.826500 1.841565, 5.158939 5.826500 1.903015, 5.232814 5.826500 1.981873, 5.290648 5.826500 2.073389, 5.332032 5.826500 2.173718, 5.356855 5.826500 2.279553, 5.365171 5.826500 2.388000, 5.357008 5.826500 2.496521, 5.332330 5.826500 2.602393, 5.291104 5.826500 2.702795, 5.233422 5.826500 2.794397, 5.159723 5.826500 2.873364, 5.071581 5.826500 2.935022, 4.971815 5.826500 2.974731, 4.865388 5.826500 2.988525, 4.759245 5.826500 2.974915, 4.659282 5.826500 2.935303, 4.570958 5.826500 2.873657, 4.497122 5.826500 2.794653, 4.439342 5.826500 2.702991, 4.398099 5.826500 2.602673, 4.373395 5.826500 2.496912, -5.374829 5.826500 2.388525, -5.366605 5.826500 2.280139, -5.341897 5.826500 2.174377, -5.300657 5.826500 2.074072, -5.243013 5.826500 1.982568, -5.169336 5.826500 1.903662, -5.081334 5.826500 1.842090, -4.981547 5.826500 1.802356, -4.875373 5.826500 1.788525, -4.769204 5.826500 1.802075, -4.669287 5.826500 1.841565, -4.581061 5.826500 1.903015, -4.507186 5.826500 1.981873, -4.449353 5.826500 2.073389, -4.407969 5.826500 2.173718, -4.383145 5.826500 2.279553, -4.374829 5.826500 2.388000, -4.382992 5.826500 2.496521, -4.407670 5.826500 2.602393, -4.448896 5.826500 2.702795, -4.506578 5.826500 2.794397, -4.580276 5.826500 2.873364, -4.668419 5.826500 2.935022, -4.768185 5.826500 2.974731, -4.874612 5.826500 2.988525, -4.980755 5.826500 2.974915, -5.080718 5.826500 2.935303, -5.169042 5.826500 2.873657, -5.242878 5.826500 2.794653, -5.300657 5.826500 2.702991, -5.341901 5.826500 2.602673, -5.366605 5.826500 2.496912, 3.125171 8.815498 13.568530, 3.125171 8.815498 13.768530, 2.265171 8.815498 13.568530, 4.548843 6.213716 14.488525, 4.649689 6.277684 14.488525, 4.758229 6.314929 14.488525, 4.865171 6.326500 14.488525, 4.787970 6.213715 14.089734, 4.571051 6.213715 14.639905, 4.664817 6.277684 14.591638, 4.765737 6.314929 14.539709, 4.600404 6.213715 14.713562, 4.684812 6.277684 14.641821, 4.775660 6.314929 14.564612, 4.641492 6.213715 14.779309, 4.712801 6.277684 14.686609, 4.789551 6.314929 14.586841, 4.692072 6.213715 14.832727, 4.747256 6.277684 14.722998, 4.806651 6.314929 14.604895, 4.748732 6.213715 14.870886, 4.785853 6.277684 14.748987, 4.825806 6.314929 14.617798, 4.807611 6.213715 14.892896, 4.825961 6.277684 14.763977, 4.845712 6.314929 14.625232, 4.865171 6.213715 14.899756, 4.865171 6.277684 14.768665, 4.865171 6.314929 14.627551, 4.922732 6.213715 14.892896, 4.904382 6.277684 14.763977, 4.884631 6.314929 14.625232, 4.981611 6.213715 14.870886, 4.944490 6.277684 14.748987, 4.904536 6.314929 14.617798, 5.038270 6.213715 14.832727, 4.983086 6.277684 14.722998, 4.923692 6.314929 14.604895, 5.088850 6.213715 14.779309, 5.017542 6.277684 14.686609, 4.940792 6.314929 14.586841, 5.150887 6.213715 14.665027, 5.059800 6.277684 14.608752, 4.961765 6.314929 14.548193, 5.179202 6.213715 14.538025, 5.079089 6.277684 14.522241, 4.971337 6.314929 14.505261, 5.176257 6.213715 14.413965, 5.077075 6.277684 14.437671, 4.970333 6.314929 14.463257, 5.141094 6.213715 14.287427, 5.053130 6.277684 14.351538, 4.958454 6.314929 14.420544, 5.072895 6.213715 14.178394, 5.006672 6.277684 14.277258, 4.935397 6.314929 14.383679, 5.029146 6.213715 14.136865, 4.976871 6.277684 14.248975, 4.920607 6.314929 14.369641, 4.981611 6.213715 14.106177, 4.944490 6.277684 14.228064, 4.904536 6.314929 14.359265, 4.932541 6.213715 14.086731, 4.911063 6.277684 14.214832, 4.887947 6.314929 14.352698, 4.884025 6.213715 14.078027, 4.878014 6.277684 14.208899, 4.871545 6.314929 14.349756, 4.836748 6.213715 14.078967, 4.845809 6.277684 14.209534, 4.855562 6.314929 14.350061, 4.812582 6.277684 14.216870, 4.839072 6.314929 14.353711, 4.822526 6.314929 14.361035, 4.779244 6.277684 14.231641, 4.739030 6.213715 14.111414, 4.692072 6.213715 14.144336, 4.747256 6.277684 14.254065, 4.806651 6.314929 14.372168, 4.612877 6.213715 14.240466, 4.693309 6.277684 14.319543, 4.779877 6.314929 14.404663, 4.564039 6.213715 14.362598, 4.660040 6.277684 14.402747, 4.763366 6.314929 14.445959, -5.191156 6.213716 14.488525, -5.090311 6.277684 14.488525, -4.981771 6.314929 14.488525, -4.874829 6.326500 14.488525, -4.952030 6.213715 14.089734, -5.168949 6.213715 14.639905, -5.075183 6.277684 14.591638, -4.974263 6.314929 14.539709, -5.139596 6.213715 14.713562, -5.055188 6.277684 14.641821, -4.964340 6.314929 14.564612, -5.098508 6.213715 14.779309, -5.027199 6.277684 14.686609, -4.950449 6.314929 14.586841, -5.047927 6.213715 14.832727, -4.992744 6.277684 14.722998, -4.933349 6.314929 14.604895, -4.991268 6.213715 14.870886, -4.954147 6.277684 14.748987, -4.914194 6.314929 14.617798, -4.932389 6.213715 14.892896, -4.914039 6.277684 14.763977, -4.894288 6.314929 14.625232, -4.874829 6.213715 14.899756, -4.874829 6.277684 14.768665, -4.874829 6.314929 14.627551, -4.817268 6.213715 14.892896, -4.835619 6.277684 14.763977, -4.855369 6.314929 14.625232, -4.758389 6.213715 14.870886, -4.795510 6.277684 14.748987, -4.835463 6.314929 14.617798, -4.701730 6.213715 14.832727, -4.756914 6.277684 14.722998, -4.816308 6.314929 14.604895, -4.651149 6.213715 14.779309, -4.722458 6.277684 14.686609, -4.799208 6.314929 14.586841, -4.589114 6.213715 14.665027, -4.680200 6.277684 14.608752, -4.778236 6.314929 14.548193, -4.560798 6.213715 14.538025, -4.660911 6.277684 14.522241, -4.768663 6.314929 14.505261, -4.563742 6.213715 14.413965, -4.662925 6.277684 14.437671, -4.769667 6.314929 14.463257, -4.598906 6.213715 14.287427, -4.686871 6.277684 14.351538, -4.781546 6.314929 14.420544, -4.667105 6.213715 14.178394, -4.733327 6.277684 14.277258, -4.804603 6.314929 14.383679, -4.710854 6.213715 14.136865, -4.763129 6.277684 14.248975, -4.819393 6.314929 14.369641, -4.758389 6.213715 14.106177, -4.795510 6.277684 14.228064, -4.835463 6.314929 14.359265, -4.807460 6.213715 14.086731, -4.828937 6.277684 14.214832, -4.852053 6.314929 14.352698, -4.855975 6.213715 14.078027, -4.861986 6.277684 14.208899, -4.868455 6.314929 14.349756, -4.903252 6.213715 14.078967, -4.894191 6.277684 14.209534, -4.884438 6.314929 14.350061, -4.927418 6.277684 14.216870, -4.900928 6.314929 14.353711, -4.917474 6.314929 14.361035, -4.960756 6.277684 14.231641, -5.000970 6.213715 14.111414, -5.047927 6.213715 14.144336, -4.992744 6.277684 14.254065, -4.933349 6.314929 14.372168, -5.127123 6.213715 14.240466, -5.046692 6.277684 14.319543, -4.960123 6.314929 14.404663, -5.175961 6.213715 14.362598, -5.079960 6.277684 14.402747, -4.976634 6.314929 14.445959, -5.366481 5.917482 2.388525, -5.339723 6.010547 2.388525, -5.293327 6.100105 2.388525, -5.228382 6.180054 2.388525, -5.148434 6.244998 2.388525, -5.058876 6.291394 2.388525, -4.965810 6.318152 2.388525, -4.874829 6.326500 2.388525, -4.996191 5.878571 1.809839, -4.691782 5.878571 1.833691, -4.406678 5.878571 2.187292, -5.363921 5.878571 2.496375, -5.347442 5.964633 2.492834, -5.314619 6.050174 2.485681, -5.265289 6.130417 2.474854, -5.201097 6.200571 2.460730, -5.125391 6.256709 2.444031, -5.042658 6.296471 2.425732, -4.957700 6.319347 2.406921, -5.337195 5.878571 2.608191, -5.321630 5.964633 2.600793, -5.290611 6.050174 2.586060, -5.243985 6.130417 2.563904, -5.183304 6.200571 2.535083, -5.111733 6.256709 2.501074, -5.033514 6.296471 2.463916, -4.953187 6.319347 2.425757, -5.291051 5.878571 2.715076, -5.277039 5.964633 2.704077, -5.249116 6.050174 2.682166, -5.207143 6.130417 2.649243, -5.152518 6.200571 2.606384, -5.088090 6.256709 2.555847, -5.017678 6.296471 2.500598, -4.945367 6.319347 2.443872, -5.226460 5.878571 2.810486, -5.214622 5.964633 2.796277, -5.191032 6.050174 2.767969, -5.155573 6.130417 2.725427, -5.109425 6.200571 2.670044, -5.054995 6.256709 2.604724, -4.995510 6.296471 2.533350, -4.934421 6.319347 2.460046, -5.146946 5.878571 2.888000, -5.137785 5.964633 2.871179, -5.119530 6.050174 2.837671, -5.092089 6.130417 2.787305, -5.056376 6.200571 2.721753, -5.014254 6.256709 2.644446, -4.968220 6.296471 2.559949, -4.920945 6.319347 2.473181, -5.057875 5.878571 2.943372, -5.051713 5.964633 2.924695, -5.039433 6.050174 2.887463, -5.020974 6.130417 2.831519, -4.996951 6.200571 2.758704, -4.968617 6.256709 2.672815, -4.937651 6.296471 2.578955, -4.905850 6.319347 2.482556, -4.965316 5.878571 2.975305, -4.962269 5.964633 2.955554, -4.956199 6.050174 2.916187, -4.947074 6.130417 2.857019, -4.935199 6.200571 2.780005, -4.921192 6.256709 2.689185, -4.905884 6.296471 2.589917, -4.890164 6.319347 2.487976, -4.784342 5.878571 2.975305, -4.787388 5.964633 2.955554, -4.793459 6.050174 2.916187, -4.802583 6.130417 2.857019, -4.814459 6.200571 2.780005, -4.828466 6.256709 2.689185, -4.843773 6.296471 2.589917, -4.859494 6.319347 2.487976, -4.874825 6.319347 2.489661, -4.874812 6.296471 2.593335, -4.874790 6.256709 2.694287, -4.874762 6.200571 2.786658, -4.874729 6.130417 2.864966, -4.874694 6.050174 2.925146, -4.874659 5.964633 2.965173, -4.874628 5.878571 2.985266, -4.691782 5.878571 2.943372, -4.697944 5.964633 2.924695, -4.710224 6.050174 2.887463, -4.728683 6.130417 2.831519, -4.752706 6.200571 2.758704, -4.781040 6.256709 2.672815, -4.812006 6.296471 2.578955, -4.843807 6.319347 2.482556, -4.602711 5.878571 2.888000, -4.611872 5.964633 2.871179, -4.630128 6.050174 2.837671, -4.657569 6.130417 2.787305, -4.693281 6.200571 2.721753, -4.735403 6.256709 2.644446, -4.781437 6.296471 2.559949, -4.828712 6.319347 2.473181, -4.523198 5.878571 2.810486, -4.535035 5.964633 2.796277, -4.558625 6.050174 2.767969, -4.594084 6.130417 2.725427, -4.640232 6.200571 2.670044, -4.694662 6.256709 2.604724, -4.754148 6.296471 2.533350, -4.815237 6.319347 2.460046, -4.468157 5.878571 2.731958, -4.481847 5.964633 2.720398, -4.509130 6.050174 2.697363, -4.550140 6.130417 2.662732, -4.603511 6.200571 2.617651, -4.666461 6.256709 2.564502, -4.735258 6.296471 2.506396, -4.805909 6.319347 2.446729, -4.425675 5.878571 2.644641, -4.440796 5.964633 2.636023, -4.470928 6.050174 2.618835, -4.516222 6.130417 2.593005, -4.575168 6.200571 2.559399, -4.644695 6.256709 2.519751, -4.720678 6.296471 2.476428, -4.798709 6.319347 2.431934, -4.396743 5.878571 2.552722, -4.412838 5.964633 2.547205, -4.444911 6.050174 2.536182, -4.493122 6.130417 2.519629, -4.555865 6.200571 2.498071, -4.629870 6.256709 2.472656, -4.710748 6.296471 2.444885, -4.793806 6.319347 2.416357, -4.381163 5.878571 2.460352, -4.397781 5.964633 2.457935, -4.430900 6.050174 2.453113, -4.480682 6.130417 2.445874, -4.545471 6.200571 2.436450, -4.621887 6.256709 2.425330, -4.705401 6.296471 2.413184, -4.791166 6.319347 2.400708, -4.385821 5.878571 2.280127, -4.402287 5.964633 2.283752, -4.435096 6.050174 2.291003, -4.484410 6.130417 2.301929, -4.548588 6.200571 2.316150, -4.624283 6.256709 2.332935, -4.707007 6.296471 2.351282, -4.791959 6.319347 2.370129, -4.422438 5.964633 2.194067, -4.453844 6.050174 2.207568, -4.501054 6.130417 2.227856, -4.562494 6.200571 2.254272, -4.634960 6.256709 2.285425, -4.714157 6.296471 2.319458, -4.795490 6.319347 2.354431, -4.441070 5.878571 2.096704, -4.455672 5.964633 2.106531, -4.484772 6.050174 2.126099, -4.528513 6.130417 2.155530, -4.585439 6.200571 2.193835, -4.652582 6.256709 2.239001, -4.725961 6.296471 2.288379, -4.801318 6.319347 2.339075, -4.488763 5.878571 2.012402, -4.501759 5.964633 2.025073, -4.527659 6.050174 2.050305, -4.566591 6.130417 2.088232, -4.617258 6.200571 2.137598, -4.677019 6.256709 2.195813, -4.742329 6.296471 2.259448, -4.809401 6.319347 2.324792, -4.548281 5.878571 1.938477, -4.559274 5.964633 1.953638, -4.581181 6.050174 1.983826, -4.614111 6.130417 2.029211, -4.656967 6.200571 2.088269, -4.707514 6.256709 2.157935, -4.762756 6.296471 2.234070, -4.819487 6.319347 2.312256, -4.617055 5.878571 1.878223, -4.625733 5.964633 1.895410, -4.643026 6.050174 1.929639, -4.669020 6.130417 1.981104, -4.702851 6.200571 2.048071, -4.742752 6.256709 2.127063, -4.786360 6.296471 2.213391, -4.831143 6.319347 2.302051, -4.697944 5.964633 1.852368, -4.710224 6.050174 1.889587, -4.728683 6.130417 1.945544, -4.752706 6.200571 2.018359, -4.781040 6.256709 2.104248, -4.812006 6.296471 2.198108, -4.843807 6.319347 2.294495, -4.845190 5.878571 1.792859, -4.846188 5.964633 1.812903, -4.848177 6.050174 1.852869, -4.851165 6.130417 1.912939, -4.855055 6.200571 1.991113, -4.859643 6.256709 2.083325, -4.864657 6.296471 2.184094, -4.869806 6.319347 2.287573, -4.856880 6.319347 2.289722, -4.838481 6.296471 2.188428, -4.820565 6.256709 2.089795, -4.804171 6.200571 1.999536, -4.790273 6.130417 1.923022, -4.779593 6.050174 1.864221, -4.772488 5.964633 1.825110, -4.768922 5.878571 1.805481, -4.919511 5.878571 1.794202, -4.918007 5.964633 1.814209, -4.915010 6.050174 1.854089, -4.910504 6.130417 1.914014, -4.904640 6.200571 1.992017, -4.897723 6.256709 2.084009, -4.890164 6.296471 2.184558, -4.882401 6.319347 2.287805, -4.992105 5.964633 1.829321, -4.983964 6.050174 1.868140, -4.971725 6.130417 1.926501, -4.955798 6.200571 2.002441, -4.937012 6.256709 2.092029, -4.916481 6.296471 2.189917, -4.895396 6.319347 2.290454, -5.146946 5.878571 1.889062, -5.137785 5.964633 1.905884, -5.119530 6.050174 1.939380, -5.092089 6.130417 1.989758, -5.056376 6.200571 2.055298, -5.014254 6.256709 2.132617, -4.968220 6.296471 2.217114, -4.920945 6.319347 2.303882, -4.908435 6.319347 2.295789, -4.942885 6.296471 2.200720, -4.976431 6.256709 2.108142, -5.007126 6.200571 2.023425, -5.033150 6.130417 1.951611, -5.053148 6.050174 1.896423, -5.066451 5.964633 1.859717, -5.073126 5.878571 1.841284, -5.214116 5.878571 1.952258, -5.202694 5.964633 1.966956, -5.179933 6.050174 1.996216, -5.145718 6.130417 2.040210, -5.101190 6.200571 2.097473, -5.048671 6.256709 2.165002, -4.991273 6.296471 2.238806, -4.932329 6.319347 2.314600, -5.271444 5.878571 2.028564, -5.258092 5.964633 2.040674, -5.231484 6.050174 2.064832, -5.191488 6.130417 2.101123, -5.139437 6.200571 2.148364, -5.078044 6.256709 2.204089, -5.010948 6.296471 2.264990, -4.942044 6.319347 2.327527, -5.316556 5.878571 2.114453, -5.301685 5.964633 2.123682, -5.272051 6.050174 2.142065, -5.227506 6.130417 2.169702, -5.169534 6.200571 2.205676, -5.101158 6.256709 2.248096, -5.026431 6.296471 2.294470, -4.949689 6.319347 2.342078, -5.348218 5.878571 2.205786, -5.332282 5.964633 2.211938, -5.300524 6.050174 2.224194, -5.252786 6.130417 2.242627, -5.190659 6.200571 2.266614, -5.117381 6.256709 2.294897, -5.037298 6.296471 2.325818, -4.955056 6.319347 2.357556, -5.366402 5.878571 2.298376, -5.349854 5.964633 2.301416, -5.316875 6.050174 2.307458, -5.267304 6.130417 2.316553, -5.202790 6.200571 2.328381, -5.126698 6.256709 2.342334, -5.043538 6.296471 2.357593, -4.958137 6.319347 2.373254, 4.373519 5.917482 2.388525, 4.400277 6.010547 2.388525, 4.446674 6.100105 2.388525, 4.511618 6.180054 2.388525, 4.591566 6.244998 2.388525, 4.681124 6.291394 2.388525, 4.774190 6.318152 2.388525, 4.865171 6.326500 2.388525, 4.743809 5.878571 1.809839, 5.048218 5.878571 1.833691, 5.333323 5.878571 2.187292, 4.376079 5.878571 2.496375, 4.392558 5.964633 2.492834, 4.425381 6.050174 2.485681, 4.474711 6.130417 2.474854, 4.538903 6.200571 2.460730, 4.614610 6.256709 2.444031, 4.697342 6.296471 2.425732, 4.782300 6.319347 2.406921, 4.402805 5.878571 2.608191, 4.418370 5.964633 2.600793, 4.449389 6.050174 2.586060, 4.496015 6.130417 2.563904, 4.556696 6.200571 2.535083, 4.628267 6.256709 2.501074, 4.706486 6.296471 2.463916, 4.786813 6.319347 2.425757, 4.448949 5.878571 2.715076, 4.462961 5.964633 2.704077, 4.490884 6.050174 2.682166, 4.532857 6.130417 2.649243, 4.587482 6.200571 2.606384, 4.651910 6.256709 2.555847, 4.722322 6.296471 2.500598, 4.794633 6.319347 2.443872, 4.513540 5.878571 2.810486, 4.525378 5.964633 2.796277, 4.548968 6.050174 2.767969, 4.584427 6.130417 2.725427, 4.630575 6.200571 2.670044, 4.685005 6.256709 2.604724, 4.744490 6.296471 2.533350, 4.805579 6.319347 2.460046, 4.593054 5.878571 2.888000, 4.602215 5.964633 2.871179, 4.620470 6.050174 2.837671, 4.647911 6.130417 2.787305, 4.683624 6.200571 2.721753, 4.725746 6.256709 2.644446, 4.771780 6.296471 2.559949, 4.819055 6.319347 2.473181, 4.682125 5.878571 2.943372, 4.688287 5.964633 2.924695, 4.700567 6.050174 2.887463, 4.719026 6.130417 2.831519, 4.743048 6.200571 2.758704, 4.771383 6.256709 2.672815, 4.802349 6.296471 2.578955, 4.834150 6.319347 2.482556, 4.774685 5.878571 2.975305, 4.777731 5.964633 2.955554, 4.783801 6.050174 2.916187, 4.792926 6.130417 2.857019, 4.804802 6.200571 2.780005, 4.818808 6.256709 2.689185, 4.834116 6.296471 2.589917, 4.849836 6.319347 2.487976, 4.955658 5.878571 2.975305, 4.952612 5.964633 2.955554, 4.946542 6.050174 2.916187, 4.937416 6.130417 2.857019, 4.925541 6.200571 2.780005, 4.911535 6.256709 2.689185, 4.896227 6.296471 2.589917, 4.880507 6.319347 2.487976, 4.865176 6.319347 2.489661, 4.865189 6.296471 2.593335, 4.865210 6.256709 2.694287, 4.865238 6.200571 2.786658, 4.865271 6.130417 2.864966, 4.865306 6.050174 2.925146, 4.865340 5.964633 2.965173, 4.865371 5.878571 2.985266, 5.048218 5.878571 2.943372, 5.042056 5.964633 2.924695, 5.029776 6.050174 2.887463, 5.011317 6.130417 2.831519, 4.987294 6.200571 2.758704, 4.958960 6.256709 2.672815, 4.927993 6.296471 2.578955, 4.896193 6.319347 2.482556, 5.137288 5.878571 2.888000, 5.128128 5.964633 2.871179, 5.109872 6.050174 2.837671, 5.082431 6.130417 2.787305, 5.046719 6.200571 2.721753, 5.004597 6.256709 2.644446, 4.958563 6.296471 2.559949, 4.911288 6.319347 2.473181, 5.216802 5.878571 2.810486, 5.204965 5.964633 2.796277, 5.181375 6.050174 2.767969, 5.145916 6.130417 2.725427, 5.099768 6.200571 2.670044, 5.045338 6.256709 2.604724, 4.985852 6.296471 2.533350, 4.924763 6.319347 2.460046, 5.271843 5.878571 2.731958, 5.258153 5.964633 2.720398, 5.230870 6.050174 2.697363, 5.189861 6.130417 2.662732, 5.136489 6.200571 2.617651, 5.073539 6.256709 2.564502, 5.004742 6.296471 2.506396, 4.934091 6.319347 2.446729, 5.314325 5.878571 2.644641, 5.299204 5.964633 2.636023, 5.269072 6.050174 2.618835, 5.223778 6.130417 2.593005, 5.164832 6.200571 2.559399, 5.095306 6.256709 2.519751, 5.019322 6.296471 2.476428, 4.941291 6.319347 2.431934, 5.343257 5.878571 2.552722, 5.327163 5.964633 2.547205, 5.295089 6.050174 2.536182, 5.246878 6.130417 2.519629, 5.184134 6.200571 2.498071, 5.110130 6.256709 2.472656, 5.029252 6.296471 2.444885, 4.946194 6.319347 2.416357, 5.358838 5.878571 2.460352, 5.342218 5.964633 2.457935, 5.309100 6.050174 2.453113, 5.259317 6.130417 2.445874, 5.194529 6.200571 2.436450, 5.118113 6.256709 2.425330, 5.034599 6.296471 2.413184, 4.948835 6.319347 2.400708, 5.354179 5.878571 2.280127, 5.337713 5.964633 2.283752, 5.304904 6.050174 2.291003, 5.255589 6.130417 2.301929, 5.191412 6.200571 2.316150, 5.115717 6.256709 2.332935, 5.032993 6.296471 2.351282, 4.948041 6.319347 2.370129, 5.317562 5.964633 2.194067, 5.286156 6.050174 2.207568, 5.238946 6.130417 2.227856, 5.177506 6.200571 2.254272, 5.105040 6.256709 2.285425, 5.025842 6.296471 2.319458, 4.944510 6.319347 2.354431, 5.298930 5.878571 2.096704, 5.284328 5.964633 2.106531, 5.255228 6.050174 2.126099, 5.211487 6.130417 2.155530, 5.154561 6.200571 2.193835, 5.087418 6.256709 2.239001, 5.014039 6.296471 2.288379, 4.938682 6.319347 2.339075, 5.251237 5.878571 2.012402, 5.238240 5.964633 2.025073, 5.212341 6.050174 2.050305, 5.173409 6.130417 2.088232, 5.122742 6.200571 2.137598, 5.062981 6.256709 2.195813, 4.997671 6.296471 2.259448, 4.930599 6.319347 2.324792, 5.191719 5.878571 1.938477, 5.180726 5.964633 1.953638, 5.158819 6.050174 1.983826, 5.125889 6.130417 2.029211, 5.083033 6.200571 2.088269, 5.032486 6.256709 2.157935, 4.977244 6.296471 2.234070, 4.920512 6.319347 2.312256, 5.122945 5.878571 1.878223, 5.114267 5.964633 1.895410, 5.096974 6.050174 1.929639, 5.070979 6.130417 1.981104, 5.037149 6.200571 2.048071, 4.997248 6.256709 2.127063, 4.953640 6.296471 2.213391, 4.908857 6.319347 2.302051, 5.042056 5.964633 1.852368, 5.029776 6.050174 1.889587, 5.011317 6.130417 1.945544, 4.987294 6.200571 2.018359, 4.958960 6.256709 2.104248, 4.927993 6.296471 2.198108, 4.896193 6.319347 2.294495, 4.894810 5.878571 1.792859, 4.893812 5.964633 1.812903, 4.891824 6.050174 1.852869, 4.888835 6.130417 1.912939, 4.884945 6.200571 1.991113, 4.880357 6.256709 2.083325, 4.875343 6.296471 2.184094, 4.870194 6.319347 2.287573, 4.883120 6.319347 2.289722, 4.901519 6.296471 2.188428, 4.919435 6.256709 2.089795, 4.935828 6.200571 1.999536, 4.949728 6.130417 1.923022, 4.960408 6.050174 1.864221, 4.967513 5.964633 1.825110, 4.971078 5.878571 1.805481, 4.820488 5.878571 1.794202, 4.821992 5.964633 1.814209, 4.824990 6.050174 1.854089, 4.829496 6.130417 1.914014, 4.835360 6.200571 1.992017, 4.842277 6.256709 2.084009, 4.849836 6.296471 2.184558, 4.857599 6.319347 2.287805, 4.747894 5.964633 1.829321, 4.756036 6.050174 1.868140, 4.768275 6.130417 1.926501, 4.784202 6.200571 2.002441, 4.802988 6.256709 2.092029, 4.823519 6.296471 2.189917, 4.844604 6.319347 2.290454, 4.593054 5.878571 1.889062, 4.602215 5.964633 1.905884, 4.620470 6.050174 1.939380, 4.647911 6.130417 1.989758, 4.683624 6.200571 2.055298, 4.725746 6.256709 2.132617, 4.771780 6.296471 2.217114, 4.819055 6.319347 2.303882, 4.831565 6.319347 2.295789, 4.797115 6.296471 2.200720, 4.763569 6.256709 2.108142, 4.732874 6.200571 2.023425, 4.706849 6.130417 1.951611, 4.686853 6.050174 1.896423, 4.673549 5.964633 1.859717, 4.666874 5.878571 1.841284, 4.525884 5.878571 1.952258, 4.537306 5.964633 1.966956, 4.560067 6.050174 1.996216, 4.594282 6.130417 2.040210, 4.638810 6.200571 2.097473, 4.691329 6.256709 2.165002, 4.748727 6.296471 2.238806, 4.807671 6.319347 2.314600, 4.468556 5.878571 2.028564, 4.481908 5.964633 2.040674, 4.508516 6.050174 2.064832, 4.548512 6.130417 2.101123, 4.600563 6.200571 2.148364, 4.661956 6.256709 2.204089, 4.729052 6.296471 2.264990, 4.797956 6.319347 2.327527, 4.423444 5.878571 2.114453, 4.438315 5.964633 2.123682, 4.467949 6.050174 2.142065, 4.512494 6.130417 2.169702, 4.570465 6.200571 2.205676, 4.638842 6.256709 2.248096, 4.713569 6.296471 2.294470, 4.790311 6.319347 2.342078, 4.391782 5.878571 2.205786, 4.407718 5.964633 2.211938, 4.439476 6.050174 2.224194, 4.487214 6.130417 2.242627, 4.549341 6.200571 2.266614, 4.622619 6.256709 2.294897, 4.702702 6.296471 2.325818, 4.784945 6.319347 2.357556, 4.373598 5.878571 2.298376, 4.390147 5.964633 2.301416, 4.423125 6.050174 2.307458, 4.472696 6.130417 2.316553, 4.537210 6.200571 2.328381, 4.613302 6.256709 2.342334, 4.696461 6.296471 2.357593, 4.781863 6.319347 2.373254, -0.479829 -9.026500 8.843530, -0.479829 -9.026500 10.268530, -0.679829 -8.826500 10.468530, -0.679829 -8.826500 9.043530, 0.470171 -9.026500 10.268530, 0.670171 -8.826500 10.468530, 0.470171 -9.026500 8.843530, 0.670171 -8.826500 9.043530, 1.795172 -9.026500 8.843530, 1.995172 -8.826500 9.043530, 1.795172 -9.026500 8.093530, 1.995172 -8.826500 7.893530, 0.470171 -9.026500 8.093530, 0.670171 -8.826500 7.893530, 0.470171 -9.026500 6.668530, 0.670171 -8.826500 6.468530, -0.679829 -8.826500 6.468530, -0.479829 -9.026500 6.668530, -0.679829 -8.826500 7.893530, -0.479829 -9.026500 8.093530, -2.004829 -8.826500 7.893530, -1.804829 -9.026500 8.093530, -2.004829 -8.826500 9.043530, -1.804829 -9.026500 8.843530, -0.679829 -5.378902 6.468530, 0.670171 -5.378902 6.468530, -0.679829 -5.378902 7.893530, -2.004829 -5.378902 7.893530, -2.004829 -5.378902 9.043530, -0.679829 -5.378902 9.043530, -0.679829 -5.378902 10.468530, 1.995172 -5.378902 7.893530, 1.995172 -5.378902 9.043530, 0.670171 -5.378902 10.468530, 0.670171 -5.378902 9.043530, -2.824829 0.387500 16.083533, -2.824829 0.387500 15.458533, 7.815172 1.187500 14.288525, 2.815171 1.191100 16.081885, 2.815171 1.191100 15.458533, 7.815172 1.191100 14.288525, -0.914829 1.187500 0.003528, 0.905171 1.187500 0.003528, 0.905171 1.187500 0.000000, -0.914829 1.187500 0.000000, 0.905171 0.387500 0.000000, -0.914829 0.387500 0.000000, -0.914829 0.387500 1.478528, -0.914829 1.191100 1.478528, -0.914829 1.191100 0.003528, 6.985172 1.187500 2.648535, 6.985172 1.187500 2.648535, 7.815171 1.187500 2.648535, 7.815171 1.187500 2.648535, 2.815171 0.387500 0.568530, 6.985172 0.387500 2.648535, 7.815171 0.387500 2.648535, 6.985172 0.387500 1.478528, 6.985172 2.592500 1.478528, 6.985172 2.592500 15.458533, 6.985172 1.191100 15.458533, 6.985172 1.191100 14.288525, 6.985172 0.338499 15.458533, 6.985172 0.338499 1.478528, -2.824829 1.187500 0.638733, -2.824829 0.387500 0.638733, -4.939833 -4.855492 5.490771, -4.939833 -4.855492 5.490625, -4.939829 -4.855501 5.490625, -7.173367 -0.022333 15.656409, -7.294829 0.240498 15.758533, -7.294829 0.240498 1.178528, 3.595171 -4.855501 5.688525, 3.510911 -4.855501 5.688525, -3.604828 -4.855501 5.688525, -3.604828 -4.855501 11.248535, 3.595171 -4.855501 11.248535, 4.930171 -4.855501 13.619299, -4.004829 -4.855501 4.968530, -0.897841 -4.855501 4.968530, -0.557504 -4.855501 5.123962, -0.191904 -4.855501 5.203503, 0.182247 -4.855501 5.203503, 0.547847 -4.855501 5.123962, 0.888183 -4.855501 4.968530, 3.995171 -4.855501 4.968530, 2.815171 0.387500 1.478528, -2.824829 0.387500 1.478528, -6.994829 0.387500 1.478528, -6.994829 0.387500 2.648535, 0.905171 0.387500 1.478528, 0.905171 1.191100 0.003528, 0.905171 1.191100 1.478528, 4.930171 -4.750728 13.925562, 4.930171 -4.423045 14.267151, 4.930171 -4.031148 14.532629, 4.930171 -4.843477 13.728296, 4.930171 -4.807985 13.832043, 1.095171 3.034875 1.024377, 1.095171 3.265755 1.019080, 1.820171 3.265755 1.019080, 1.820171 3.034875 1.024377, 1.095171 4.287407 1.578101, 1.820171 4.287407 1.578101, 1.095171 2.994299 1.098535, 1.095171 2.896300 1.098535, 1.095171 2.465100 1.468530, 1.095171 2.465100 1.478528, 1.095171 2.592500 1.478528, 1.095171 3.670499 1.541858, 1.820171 2.994299 1.098535, 1.820171 3.034875 15.912683, 1.820171 3.265755 15.917981, 1.095171 3.265755 15.917981, 1.095171 3.034875 15.912683, 1.820171 4.287413 15.358948, 1.095171 4.287413 15.358948, 1.820171 2.994299 15.838525, 1.820171 2.896300 15.838525, 1.820171 2.465100 15.468530, 1.820171 2.465100 15.458533, 1.820171 2.592500 15.458533, 1.820171 3.670499 15.395203, 1.820171 3.842770 15.385071, 1.095171 3.670499 15.395203, 1.095171 3.861238 15.383997, -1.829829 3.670499 15.395203, -1.829829 4.287407 15.358960, -1.104829 4.287407 15.358960, -1.104829 3.670499 15.395203, 1.095171 4.018268 15.374768, 1.095171 2.994299 15.838525, -1.829829 3.034875 1.024377, -1.829829 3.265755 1.019080, -1.104829 3.265755 1.019080, -1.104829 3.034875 1.024377, -1.829829 4.287407 1.578101, -1.104829 4.287407 1.578101, -1.829829 2.994299 1.098535, -1.829829 2.896300 1.098535, -1.829829 2.465100 1.468530, -1.829829 2.465100 1.478528, -1.829829 2.592500 1.478528, -1.829829 3.670499 1.541858, -1.104829 2.994299 1.098535, -1.104829 3.265755 15.917981, -1.104829 3.034875 15.912683, -1.104829 2.994299 15.838525, -1.104829 2.896300 15.838525, -1.104829 2.465100 15.468530, -1.104829 2.465100 15.458533, -1.104829 2.592500 15.458533, -1.829829 3.265755 15.917981, -1.829829 3.034875 15.912683, -1.829829 2.592500 15.458533, -1.829829 2.465100 15.458533, -1.829829 2.465100 15.468530, -1.829829 2.896300 15.838525, -1.829829 2.994299 15.838525, 0.905171 1.191100 16.948535, -0.914829 1.191100 16.948535, -0.914829 0.387500 16.948535, 0.905171 0.387500 16.948535, 0.905171 0.387500 15.458533, 0.905171 1.191100 15.458533, -0.914829 0.387500 15.458533, 3.595171 -4.859285 11.248535, 3.295171 -5.378902 10.948535, 3.295171 -5.378902 5.988525, 3.510911 -5.005229 5.772791, 3.595171 -4.859285 5.688525, -3.304828 -5.378902 5.988525, -3.604828 -4.859285 5.688525, 3.510911 -4.859285 5.688525, 0.670171 -5.378902 7.893530, -3.304828 -5.378902 10.948535, -3.604828 -4.859285 11.248535, -0.914829 1.191100 15.458533, -0.004829 9.026500 9.794080, 0.338250 9.026500 9.748914, 0.657949 9.026500 9.616492, 0.932480 9.026500 9.405835, 1.143136 9.026500 9.131311, 1.275559 9.026500 8.811609, 1.320727 9.026500 8.468530, 1.275559 9.026500 8.125452, 1.143136 9.026500 7.805750, 0.932480 9.026500 7.531226, 0.657949 9.026500 7.320569, 0.338250 9.026500 7.188147, -0.004829 9.026500 7.142981, -0.347908 9.026500 7.188147, -0.667606 9.026500 7.320569, -0.942138 9.026500 7.531226, -1.152793 9.026500 7.805750, -1.285217 9.026500 8.125452, -1.330384 9.026500 8.468530, -1.285217 9.026500 8.811609, -1.152793 9.026500 9.131311, -0.942138 9.026500 9.405835, -0.667606 9.026500 9.616492, -0.347908 9.026500 9.748914, -0.004829 7.988231 10.393530, 0.493398 7.988231 10.327942, 0.957671 7.988231 10.135632, 1.356352 7.988231 9.829712, 1.662270 7.988231 9.431030, 1.854579 7.988231 8.966760, 1.920171 7.988231 8.468530, 1.854579 7.988231 7.970300, 1.662270 7.988231 7.506030, 1.356352 7.988231 7.107349, 0.957671 7.988231 6.801428, 0.493398 7.988231 6.609119, -0.004829 7.988231 6.543530, -0.503055 7.988231 6.609119, -0.967329 7.988231 6.801428, -1.366009 7.988231 7.107349, -1.671928 7.988231 7.506030, -1.864236 7.988231 7.970300, -1.929829 7.988231 8.468530, -1.864236 7.988231 8.966760, -1.671928 7.988231 9.431030, -1.366009 7.988231 9.829712, -0.967329 7.988231 10.135632, -0.503055 7.988231 10.327942, 7.285172 0.338499 1.178528, 7.285172 0.338499 15.758533, -7.294829 0.338499 15.758533, -7.294829 0.338499 1.178528, 1.095171 2.465100 15.458533, 1.095171 2.592500 15.458533, -6.994829 2.592500 15.458533, -6.994829 0.387500 15.458533, -6.994829 0.338499 15.458533, -6.994829 0.338499 1.478528, -7.824829 0.387500 14.288525, -6.994829 0.387500 14.288525, 1.095171 2.896300 15.838525, 1.095171 2.465100 15.468530, -3.344829 8.815498 11.268530, -6.994829 2.592500 1.478528, -1.104829 2.465100 1.478528, -1.104829 2.592500 1.478528, 1.820171 2.465100 1.478528, 1.820171 2.592500 1.478528, 1.820171 2.465100 1.468530, -1.104829 2.896300 1.098535, -1.104829 2.465100 1.468530, 2.265171 8.815498 13.768530, 1.820171 3.670499 1.541858, 1.820171 2.896300 1.098535, -1.104829 3.670499 1.541858 ] } coordIndex [ 17, 0, 16 -1, 16, 0, 1 -1, 16, 1, 15 -1, 15, 1, 2 -1, 15, 2, 14 -1, 14, 2, 3 -1, 14, 3, 13 -1, 13, 3, 4 -1, 13, 4, 12 -1, 12, 4, 5 -1, 12, 5, 10 -1, 10, 5, 6 -1, 10, 6, 9 -1, 9, 6, 8 -1, 8, 6, 7 -1, 10, 11, 12 -1, 22, 17, 20 -1, 20, 17, 16 -1, 20, 16, 15 -1, 15, 14, 20 -1, 20, 14, 11 -1, 20, 11, 18 -1, 14, 13, 11 -1, 11, 13, 12 -1, 18, 19, 20 -1, 20, 21, 22 -1, 10, 23, 11 -1, 11, 23, 18 -1, 23, 10, 7 -1, 7, 10, 9 -1, 7, 9, 8 -1, 7, 24, 23 -1, 26, 43, 25 -1, 25, 43, 44 -1, 25, 44, 45 -1, 27, 40, 26 -1, 26, 40, 42 -1, 26, 42, 43 -1, 40, 27, 39 -1, 39, 27, 28 -1, 39, 28, 38 -1, 38, 28, 29 -1, 38, 29, 37 -1, 37, 29, 30 -1, 37, 30, 36 -1, 36, 30, 35 -1, 35, 30, 34 -1, 34, 30, 31 -1, 34, 31, 33 -1, 33, 31, 32 -1, 40, 41, 42 -1, 32, 31, 47 -1, 47, 31, 46 -1, 46, 31, 50 -1, 50, 31, 30 -1, 50, 30, 29 -1, 29, 28, 50 -1, 50, 28, 25 -1, 50, 25, 48 -1, 28, 27, 25 -1, 25, 27, 26 -1, 48, 49, 50 -1, 50, 51, 46 -1, 25, 45, 48 -1, 48, 45, 52 -1, 44, 43, 45 -1, 45, 43, 42 -1, 45, 42, 53 -1, 53, 52, 45 -1, 55, 69, 54 -1, 54, 69, 70 -1, 54, 70, 71 -1, 56, 66, 55 -1, 55, 66, 67 -1, 55, 67, 68 -1, 66, 56, 65 -1, 65, 56, 57 -1, 65, 57, 64 -1, 64, 57, 58 -1, 64, 58, 63 -1, 63, 58, 59 -1, 63, 59, 62 -1, 62, 59, 60 -1, 62, 60, 61 -1, 68, 69, 55 -1, 68, 67, 73 -1, 73, 67, 72 -1, 66, 65, 67 -1, 67, 65, 64 -1, 67, 64, 76 -1, 76, 64, 63 -1, 76, 63, 62 -1, 62, 61, 76 -1, 76, 61, 74 -1, 76, 74, 75 -1, 77, 72, 76 -1, 76, 72, 67 -1, 61, 60, 74 -1, 74, 60, 78 -1, 94, 79, 93 -1, 93, 79, 80 -1, 93, 80, 92 -1, 92, 80, 81 -1, 92, 81, 91 -1, 91, 81, 82 -1, 91, 82, 90 -1, 90, 82, 89 -1, 89, 82, 83 -1, 89, 83, 88 -1, 88, 83, 84 -1, 88, 84, 87 -1, 87, 84, 85 -1, 87, 85, 86 -1, 99, 94, 97 -1, 97, 94, 93 -1, 97, 93, 92 -1, 92, 91, 97 -1, 97, 91, 90 -1, 97, 90, 95 -1, 95, 96, 97 -1, 97, 98, 99 -1, 90, 89, 95 -1, 95, 89, 100 -1, 100, 89, 86 -1, 86, 89, 88 -1, 86, 88, 87 -1, 86, 101, 100 -1, 102, 103, 127 -1, 127, 103, 104 -1, 127, 104, 120 -1, 120, 104, 105 -1, 120, 105, 106 -1, 120, 106, 119 -1, 119, 106, 107 -1, 119, 107, 108 -1, 119, 108, 111 -1, 111, 108, 109 -1, 111, 109, 110 -1, 112, 114, 111 -1, 111, 114, 116 -1, 111, 116, 119 -1, 119, 116, 117 -1, 119, 117, 118 -1, 112, 113, 114 -1, 114, 115, 116 -1, 121, 123, 120 -1, 120, 123, 124 -1, 120, 124, 127 -1, 127, 124, 125 -1, 127, 125, 126 -1, 121, 122, 123 -1, 129, 139, 128 -1, 128, 139, 140 -1, 128, 140, 151 -1, 151, 140, 141 -1, 151, 141, 150 -1, 150, 141, 142 -1, 150, 142, 149 -1, 149, 142, 143 -1, 149, 143, 148 -1, 148, 143, 144 -1, 148, 144, 147 -1, 147, 144, 145 -1, 147, 145, 146 -1, 139, 129, 138 -1, 138, 129, 130 -1, 138, 130, 137 -1, 137, 130, 131 -1, 137, 131, 136 -1, 136, 131, 132 -1, 136, 132, 135 -1, 135, 132, 133 -1, 135, 133, 134 -1, 153, 154, 152 -1, 152, 154, 155 -1, 156, 157, 159 -1, 159, 157, 158 -1, 160, 161, 163 -1, 163, 161, 162 -1, 165, 166, 164 -1, 164, 166, 167 -1, 169, 170, 168 -1, 168, 170, 171 -1, 168, 171, 172 -1, 172, 173, 168 -1, 169, 168, 152 -1, 152, 168, 153 -1, 179, 171, 178 -1, 178, 171, 170 -1, 178, 170, 177 -1, 177, 170, 176 -1, 177, 176, 122 -1, 122, 176, 123 -1, 170, 174, 176 -1, 176, 174, 175 -1, 173, 154, 168 -1, 168, 154, 153 -1, 124, 123, 181 -1, 181, 123, 176 -1, 181, 176, 180 -1, 181, 182, 124 -1, 124, 182, 184 -1, 184, 182, 183 -1, 181, 180, 157 -1, 157, 180, 158 -1, 159, 180, 183 -1, 183, 180, 175 -1, 183, 175, 184 -1, 184, 175, 185 -1, 159, 158, 180 -1, 180, 176, 175 -1, 186, 187, 194 -1, 194, 187, 188 -1, 194, 188, 189 -1, 189, 190, 194 -1, 194, 190, 127 -1, 127, 190, 191 -1, 127, 191, 192 -1, 192, 193, 127 -1, 127, 193, 102 -1, 110, 195, 111 -1, 111, 195, 196 -1, 111, 196, 197 -1, 197, 198, 111 -1, 111, 198, 203 -1, 203, 198, 199 -1, 203, 199, 200 -1, 200, 201, 203 -1, 203, 201, 202 -1, 205, 206, 204 -1, 204, 206, 207 -1, 204, 207, 209 -1, 209, 207, 117 -1, 209, 117, 116 -1, 116, 208, 209 -1, 204, 209, 163 -1, 163, 209, 160 -1, 209, 208, 160 -1, 160, 208, 161 -1, 161, 208, 114 -1, 114, 208, 115 -1, 215, 210, 214 -1, 214, 210, 211 -1, 214, 211, 212 -1, 212, 213, 214 -1, 171, 179, 172 -1, 172, 179, 210 -1, 172, 210, 219 -1, 179, 216, 210 -1, 210, 216, 218 -1, 210, 218, 211 -1, 216, 217, 218 -1, 219, 220, 172 -1, 214, 213, 164 -1, 164, 213, 165 -1, 167, 166, 215 -1, 215, 166, 219 -1, 215, 219, 210 -1, 221, 222, 166 -1, 166, 222, 219 -1, 223, 225, 222 -1, 222, 225, 226 -1, 222, 226, 227 -1, 223, 224, 225 -1, 227, 219, 222 -1, 265, 228, 284 -1, 284, 228, 229 -1, 284, 229, 283 -1, 283, 229, 230 -1, 283, 230, 231 -1, 231, 232, 283 -1, 283, 232, 233 -1, 283, 233, 267 -1, 267, 233, 234 -1, 267, 234, 235 -1, 235, 236, 267 -1, 267, 236, 237 -1, 267, 237, 238 -1, 238, 239, 267 -1, 267, 239, 240 -1, 267, 240, 241 -1, 241, 242, 267 -1, 267, 242, 266 -1, 266, 242, 243 -1, 266, 243, 244 -1, 244, 245, 266 -1, 266, 245, 285 -1, 266, 285, 270 -1, 245, 246, 285 -1, 285, 246, 247 -1, 285, 247, 248 -1, 248, 249, 285 -1, 285, 249, 250 -1, 285, 250, 251 -1, 251, 252, 285 -1, 285, 252, 253 -1, 285, 253, 254 -1, 285, 254, 284 -1, 284, 254, 255 -1, 284, 255, 256 -1, 256, 257, 284 -1, 284, 257, 258 -1, 284, 258, 259 -1, 259, 260, 284 -1, 284, 260, 261 -1, 284, 261, 262 -1, 262, 263, 284 -1, 284, 263, 264 -1, 284, 264, 265 -1, 267, 268, 283 -1, 283, 268, 282 -1, 282, 268, 269 -1, 282, 269, 278 -1, 278, 269, 277 -1, 277, 269, 266 -1, 277, 266, 276 -1, 276, 266, 270 -1, 276, 270, 275 -1, 275, 270, 274 -1, 274, 270, 273 -1, 273, 270, 272 -1, 272, 270, 271 -1, 279, 280, 278 -1, 278, 280, 281 -1, 278, 281, 282 -1, 270, 286, 271 -1, 271, 286, 287 -1, 271, 287, 272 -1, 272, 287, 288 -1, 272, 288, 273 -1, 273, 288, 289 -1, 273, 289, 274 -1, 274, 289, 290 -1, 274, 290, 275 -1, 275, 290, 291 -1, 286, 270, 292 -1, 292, 270, 285 -1, 293, 294, 278 -1, 278, 294, 279 -1, 279, 294, 280 -1, 280, 294, 295 -1, 280, 295, 281 -1, 281, 295, 296 -1, 281, 296, 297 -1, 297, 282, 281 -1, 282, 297, 283 -1, 283, 297, 298 -1, 291, 299, 275 -1, 275, 299, 276 -1, 276, 299, 300 -1, 276, 300, 277 -1, 277, 300, 278 -1, 278, 300, 293 -1, 301, 284, 298 -1, 298, 284, 283 -1, 292, 285, 301 -1, 301, 285, 284 -1, 268, 302, 269 -1, 269, 302, 303 -1, 267, 304, 268 -1, 268, 304, 302 -1, 342, 305, 346 -1, 346, 305, 306 -1, 346, 306, 307 -1, 307, 308, 346 -1, 346, 308, 345 -1, 345, 308, 309 -1, 345, 309, 310 -1, 310, 311, 345 -1, 345, 311, 312 -1, 345, 312, 355 -1, 355, 312, 313 -1, 355, 313, 314 -1, 314, 315, 355 -1, 355, 315, 316 -1, 355, 316, 317 -1, 317, 318, 355 -1, 355, 318, 319 -1, 355, 319, 320 -1, 320, 321, 355 -1, 355, 321, 322 -1, 355, 322, 323 -1, 355, 323, 354 -1, 354, 323, 324 -1, 354, 324, 325 -1, 325, 326, 354 -1, 354, 326, 327 -1, 354, 327, 328 -1, 328, 329, 354 -1, 354, 329, 330 -1, 354, 330, 331 -1, 331, 332, 354 -1, 354, 332, 333 -1, 354, 333, 334 -1, 334, 335, 354 -1, 354, 335, 353 -1, 353, 335, 336 -1, 353, 336, 337 -1, 337, 338, 353 -1, 353, 338, 339 -1, 353, 339, 346 -1, 346, 339, 340 -1, 346, 340, 341 -1, 341, 342, 346 -1, 346, 343, 353 -1, 353, 343, 344 -1, 353, 344, 352 -1, 352, 344, 362 -1, 352, 362, 347 -1, 362, 344, 361 -1, 361, 344, 345 -1, 361, 345, 356 -1, 356, 345, 355 -1, 347, 348, 352 -1, 352, 348, 349 -1, 352, 349, 350 -1, 350, 351, 352 -1, 361, 356, 360 -1, 360, 356, 357 -1, 360, 357, 358 -1, 358, 359, 360 -1, 368, 352, 367 -1, 367, 352, 351 -1, 367, 351, 366 -1, 366, 351, 350 -1, 366, 350, 365 -1, 365, 350, 349 -1, 365, 349, 364 -1, 364, 349, 348 -1, 364, 348, 363 -1, 363, 348, 347 -1, 352, 368, 353 -1, 353, 368, 369 -1, 360, 359, 374 -1, 374, 359, 373 -1, 373, 359, 372 -1, 372, 359, 358 -1, 372, 358, 371 -1, 371, 358, 357 -1, 371, 357, 356 -1, 356, 370, 371 -1, 370, 356, 375 -1, 375, 356, 355 -1, 347, 362, 363 -1, 363, 362, 377 -1, 377, 362, 361 -1, 377, 361, 376 -1, 376, 361, 374 -1, 374, 361, 360 -1, 354, 378, 355 -1, 355, 378, 375 -1, 353, 369, 354 -1, 354, 369, 378 -1, 292, 369, 286 -1, 286, 369, 368 -1, 286, 368, 383 -1, 383, 368, 367 -1, 383, 367, 406 -1, 406, 367, 366 -1, 406, 366, 365 -1, 365, 364, 406 -1, 406, 364, 363 -1, 406, 363, 405 -1, 405, 363, 377 -1, 405, 377, 404 -1, 404, 377, 376 -1, 404, 376, 403 -1, 403, 376, 374 -1, 403, 374, 373 -1, 373, 372, 403 -1, 403, 372, 402 -1, 402, 372, 371 -1, 402, 371, 370 -1, 402, 370, 401 -1, 401, 370, 375 -1, 401, 375, 400 -1, 400, 375, 399 -1, 399, 375, 431 -1, 399, 431, 432 -1, 378, 379, 375 -1, 375, 379, 380 -1, 375, 380, 427 -1, 427, 380, 426 -1, 426, 380, 425 -1, 425, 380, 424 -1, 424, 380, 423 -1, 423, 380, 422 -1, 422, 380, 421 -1, 421, 380, 420 -1, 420, 380, 419 -1, 419, 380, 418 -1, 418, 380, 417 -1, 417, 380, 416 -1, 416, 380, 415 -1, 415, 380, 381 -1, 415, 381, 447 -1, 447, 381, 446 -1, 446, 381, 445 -1, 445, 381, 444 -1, 444, 381, 443 -1, 443, 381, 442 -1, 442, 381, 441 -1, 441, 381, 440 -1, 440, 381, 439 -1, 439, 381, 470 -1, 470, 381, 469 -1, 469, 381, 468 -1, 468, 381, 467 -1, 467, 381, 298 -1, 467, 298, 466 -1, 466, 298, 465 -1, 465, 298, 464 -1, 464, 298, 463 -1, 463, 298, 391 -1, 463, 391, 462 -1, 462, 391, 461 -1, 461, 391, 392 -1, 461, 392, 460 -1, 460, 392, 459 -1, 459, 392, 393 -1, 459, 393, 458 -1, 458, 393, 457 -1, 457, 393, 394 -1, 457, 394, 456 -1, 456, 394, 455 -1, 455, 394, 395 -1, 455, 395, 454 -1, 454, 395, 408 -1, 454, 408, 409 -1, 381, 382, 298 -1, 298, 382, 301 -1, 297, 389, 298 -1, 298, 389, 390 -1, 298, 390, 391 -1, 389, 297, 388 -1, 388, 297, 296 -1, 388, 296, 295 -1, 388, 295, 387 -1, 387, 295, 294 -1, 387, 294, 293 -1, 293, 300, 387 -1, 387, 300, 386 -1, 386, 300, 299 -1, 386, 299, 385 -1, 385, 299, 291 -1, 385, 291, 384 -1, 384, 291, 290 -1, 384, 290, 289 -1, 289, 288, 384 -1, 384, 288, 287 -1, 384, 287, 383 -1, 383, 287, 286 -1, 408, 395, 407 -1, 407, 395, 396 -1, 407, 396, 438 -1, 438, 396, 437 -1, 437, 396, 397 -1, 437, 397, 436 -1, 436, 397, 435 -1, 435, 397, 398 -1, 435, 398, 434 -1, 434, 398, 433 -1, 433, 398, 399 -1, 433, 399, 432 -1, 454, 409, 453 -1, 453, 409, 410 -1, 453, 410, 452 -1, 452, 410, 411 -1, 452, 411, 451 -1, 451, 411, 412 -1, 451, 412, 450 -1, 450, 412, 413 -1, 450, 413, 449 -1, 449, 413, 414 -1, 449, 414, 448 -1, 448, 414, 415 -1, 448, 415, 447 -1, 427, 428, 375 -1, 375, 428, 429 -1, 375, 429, 430 -1, 430, 431, 375 -1, 345, 471, 346 -1, 346, 471, 472 -1, 344, 473, 345 -1, 345, 473, 471 -1, 305, 342, 474 -1, 474, 342, 479 -1, 474, 479, 480 -1, 480, 479, 483 -1, 480, 483, 484 -1, 484, 483, 487 -1, 484, 487, 477 -1, 342, 341, 479 -1, 479, 341, 340 -1, 479, 340, 482 -1, 482, 340, 339 -1, 482, 339, 485 -1, 485, 339, 338 -1, 485, 338, 488 -1, 488, 338, 337 -1, 488, 337, 491 -1, 491, 337, 336 -1, 491, 336, 494 -1, 494, 336, 335 -1, 494, 335, 334 -1, 494, 334, 497 -1, 497, 334, 333 -1, 497, 333, 332 -1, 497, 332, 500 -1, 500, 332, 331 -1, 500, 331, 503 -1, 503, 331, 330 -1, 503, 330, 506 -1, 506, 330, 329 -1, 506, 329, 509 -1, 509, 329, 328 -1, 509, 328, 327 -1, 509, 327, 512 -1, 512, 327, 326 -1, 512, 326, 515 -1, 515, 326, 325 -1, 515, 325, 324 -1, 515, 324, 518 -1, 518, 324, 323 -1, 518, 323, 322 -1, 518, 322, 521 -1, 521, 322, 321 -1, 521, 321, 320 -1, 521, 320, 524 -1, 524, 320, 319 -1, 524, 319, 527 -1, 527, 319, 318 -1, 527, 318, 530 -1, 530, 318, 317 -1, 530, 317, 533 -1, 533, 317, 316 -1, 533, 316, 315 -1, 533, 315, 536 -1, 536, 315, 314 -1, 536, 314, 539 -1, 539, 314, 313 -1, 539, 313, 478 -1, 478, 313, 312 -1, 478, 312, 311 -1, 310, 547, 311 -1, 311, 547, 546 -1, 311, 546, 478 -1, 478, 546, 545 -1, 478, 545, 542 -1, 542, 545, 544 -1, 542, 544, 543 -1, 543, 544, 477 -1, 310, 309, 547 -1, 547, 309, 550 -1, 547, 550, 551 -1, 551, 550, 554 -1, 551, 554, 555 -1, 555, 554, 475 -1, 555, 475, 476 -1, 309, 308, 550 -1, 550, 308, 553 -1, 550, 553, 554 -1, 554, 553, 474 -1, 554, 474, 475 -1, 308, 307, 553 -1, 553, 307, 306 -1, 553, 306, 474 -1, 474, 306, 305 -1, 476, 477, 555 -1, 477, 476, 481 -1, 481, 476, 475 -1, 481, 475, 480 -1, 480, 475, 474 -1, 555, 477, 552 -1, 552, 477, 549 -1, 549, 477, 544 -1, 543, 477, 541 -1, 541, 477, 538 -1, 538, 477, 535 -1, 535, 477, 532 -1, 529, 477, 526 -1, 526, 477, 523 -1, 517, 477, 514 -1, 514, 477, 511 -1, 511, 477, 508 -1, 505, 477, 502 -1, 502, 477, 499 -1, 499, 477, 496 -1, 496, 477, 493 -1, 493, 477, 490 -1, 490, 477, 487 -1, 484, 477, 481 -1, 532, 477, 529 -1, 477, 520, 523 -1, 523, 520, 522 -1, 523, 522, 526 -1, 526, 522, 525 -1, 526, 525, 529 -1, 529, 525, 528 -1, 529, 528, 532 -1, 532, 528, 531 -1, 532, 531, 535 -1, 535, 531, 534 -1, 535, 534, 538 -1, 538, 534, 537 -1, 538, 537, 541 -1, 541, 537, 540 -1, 541, 540, 543 -1, 543, 540, 542 -1, 520, 477, 517 -1, 508, 477, 505 -1, 484, 481, 480 -1, 479, 482, 483 -1, 483, 482, 486 -1, 483, 486, 487 -1, 487, 486, 490 -1, 482, 485, 486 -1, 486, 485, 489 -1, 486, 489, 490 -1, 490, 489, 493 -1, 485, 488, 489 -1, 489, 488, 492 -1, 489, 492, 493 -1, 493, 492, 496 -1, 488, 491, 492 -1, 492, 491, 495 -1, 492, 495, 496 -1, 496, 495, 499 -1, 491, 494, 495 -1, 495, 494, 498 -1, 495, 498, 499 -1, 499, 498, 502 -1, 494, 497, 498 -1, 498, 497, 501 -1, 498, 501, 502 -1, 502, 501, 505 -1, 497, 500, 501 -1, 501, 500, 504 -1, 501, 504, 505 -1, 505, 504, 508 -1, 500, 503, 504 -1, 504, 503, 507 -1, 504, 507, 508 -1, 508, 507, 511 -1, 503, 506, 507 -1, 507, 506, 510 -1, 507, 510, 511 -1, 511, 510, 514 -1, 506, 509, 510 -1, 510, 509, 513 -1, 510, 513, 514 -1, 514, 513, 517 -1, 509, 512, 513 -1, 513, 512, 516 -1, 513, 516, 517 -1, 517, 516, 520 -1, 512, 515, 516 -1, 516, 515, 519 -1, 516, 519, 520 -1, 520, 519, 522 -1, 515, 518, 519 -1, 519, 518, 521 -1, 519, 521, 522 -1, 522, 521, 525 -1, 528, 525, 524 -1, 524, 525, 521 -1, 531, 528, 527 -1, 527, 528, 524 -1, 534, 531, 530 -1, 530, 531, 527 -1, 537, 534, 533 -1, 533, 534, 530 -1, 540, 537, 536 -1, 536, 537, 533 -1, 542, 540, 539 -1, 539, 540, 536 -1, 478, 542, 539 -1, 544, 545, 549 -1, 549, 545, 548 -1, 549, 548, 552 -1, 552, 548, 551 -1, 552, 551, 555 -1, 545, 546, 548 -1, 548, 546, 547 -1, 548, 547, 551 -1, 228, 265, 556 -1, 556, 265, 561 -1, 556, 561, 562 -1, 562, 561, 565 -1, 562, 565, 566 -1, 566, 565, 569 -1, 566, 569, 559 -1, 265, 264, 561 -1, 561, 264, 263 -1, 561, 263, 564 -1, 564, 263, 262 -1, 564, 262, 567 -1, 567, 262, 261 -1, 567, 261, 570 -1, 570, 261, 260 -1, 570, 260, 573 -1, 573, 260, 259 -1, 573, 259, 576 -1, 576, 259, 258 -1, 576, 258, 257 -1, 576, 257, 579 -1, 579, 257, 256 -1, 579, 256, 255 -1, 579, 255, 582 -1, 582, 255, 254 -1, 582, 254, 585 -1, 585, 254, 253 -1, 585, 253, 588 -1, 588, 253, 252 -1, 588, 252, 591 -1, 591, 252, 251 -1, 591, 251, 250 -1, 591, 250, 594 -1, 594, 250, 249 -1, 594, 249, 597 -1, 597, 249, 248 -1, 597, 248, 247 -1, 597, 247, 600 -1, 600, 247, 246 -1, 600, 246, 245 -1, 600, 245, 603 -1, 603, 245, 244 -1, 603, 244, 243 -1, 603, 243, 606 -1, 606, 243, 242 -1, 606, 242, 609 -1, 609, 242, 241 -1, 609, 241, 612 -1, 612, 241, 240 -1, 612, 240, 615 -1, 615, 240, 239 -1, 615, 239, 238 -1, 615, 238, 618 -1, 618, 238, 237 -1, 618, 237, 621 -1, 621, 237, 236 -1, 621, 236, 560 -1, 560, 236, 235 -1, 560, 235, 234 -1, 233, 629, 234 -1, 234, 629, 628 -1, 234, 628, 560 -1, 560, 628, 627 -1, 560, 627, 624 -1, 624, 627, 626 -1, 624, 626, 625 -1, 625, 626, 559 -1, 233, 232, 629 -1, 629, 232, 632 -1, 629, 632, 633 -1, 633, 632, 636 -1, 633, 636, 637 -1, 637, 636, 557 -1, 637, 557, 558 -1, 232, 231, 632 -1, 632, 231, 635 -1, 632, 635, 636 -1, 636, 635, 556 -1, 636, 556, 557 -1, 231, 230, 635 -1, 635, 230, 229 -1, 635, 229, 556 -1, 556, 229, 228 -1, 558, 559, 637 -1, 559, 558, 563 -1, 563, 558, 557 -1, 563, 557, 562 -1, 562, 557, 556 -1, 637, 559, 634 -1, 634, 559, 631 -1, 631, 559, 626 -1, 625, 559, 623 -1, 623, 559, 620 -1, 620, 559, 617 -1, 617, 559, 614 -1, 611, 559, 608 -1, 608, 559, 605 -1, 599, 559, 596 -1, 596, 559, 593 -1, 593, 559, 590 -1, 587, 559, 584 -1, 584, 559, 581 -1, 581, 559, 578 -1, 578, 559, 575 -1, 575, 559, 572 -1, 572, 559, 569 -1, 566, 559, 563 -1, 614, 559, 611 -1, 559, 602, 605 -1, 605, 602, 604 -1, 605, 604, 608 -1, 608, 604, 607 -1, 608, 607, 611 -1, 611, 607, 610 -1, 611, 610, 614 -1, 614, 610, 613 -1, 614, 613, 617 -1, 617, 613, 616 -1, 617, 616, 620 -1, 620, 616, 619 -1, 620, 619, 623 -1, 623, 619, 622 -1, 623, 622, 625 -1, 625, 622, 624 -1, 602, 559, 599 -1, 590, 559, 587 -1, 566, 563, 562 -1, 561, 564, 565 -1, 565, 564, 568 -1, 565, 568, 569 -1, 569, 568, 572 -1, 564, 567, 568 -1, 568, 567, 571 -1, 568, 571, 572 -1, 572, 571, 575 -1, 567, 570, 571 -1, 571, 570, 574 -1, 571, 574, 575 -1, 575, 574, 578 -1, 570, 573, 574 -1, 574, 573, 577 -1, 574, 577, 578 -1, 578, 577, 581 -1, 573, 576, 577 -1, 577, 576, 580 -1, 577, 580, 581 -1, 581, 580, 584 -1, 576, 579, 580 -1, 580, 579, 583 -1, 580, 583, 584 -1, 584, 583, 587 -1, 579, 582, 583 -1, 583, 582, 586 -1, 583, 586, 587 -1, 587, 586, 590 -1, 582, 585, 586 -1, 586, 585, 589 -1, 586, 589, 590 -1, 590, 589, 593 -1, 585, 588, 589 -1, 589, 588, 592 -1, 589, 592, 593 -1, 593, 592, 596 -1, 588, 591, 592 -1, 592, 591, 595 -1, 592, 595, 596 -1, 596, 595, 599 -1, 591, 594, 595 -1, 595, 594, 598 -1, 595, 598, 599 -1, 599, 598, 602 -1, 594, 597, 598 -1, 598, 597, 601 -1, 598, 601, 602 -1, 602, 601, 604 -1, 597, 600, 601 -1, 601, 600, 603 -1, 601, 603, 604 -1, 604, 603, 607 -1, 610, 607, 606 -1, 606, 607, 603 -1, 613, 610, 609 -1, 609, 610, 606 -1, 616, 613, 612 -1, 612, 613, 609 -1, 619, 616, 615 -1, 615, 616, 612 -1, 622, 619, 618 -1, 618, 619, 615 -1, 624, 622, 621 -1, 621, 622, 618 -1, 560, 624, 621 -1, 626, 627, 631 -1, 631, 627, 630 -1, 631, 630, 634 -1, 634, 630, 633 -1, 634, 633, 637 -1, 627, 628, 630 -1, 630, 628, 629 -1, 630, 629, 633 -1, 638, 439, 649 -1, 649, 439, 470 -1, 649, 470, 469 -1, 649, 469, 657 -1, 657, 469, 468 -1, 657, 468, 665 -1, 665, 468, 467 -1, 665, 467, 673 -1, 673, 467, 466 -1, 673, 466, 681 -1, 681, 466, 465 -1, 681, 465, 689 -1, 689, 465, 464 -1, 689, 464, 697 -1, 697, 464, 463 -1, 697, 463, 720 -1, 720, 463, 705 -1, 720, 705, 706 -1, 706, 705, 722 -1, 706, 722, 723 -1, 723, 722, 731 -1, 723, 731, 732 -1, 732, 731, 740 -1, 732, 740, 741 -1, 741, 740, 749 -1, 741, 749, 750 -1, 750, 749, 758 -1, 750, 758, 759 -1, 759, 758, 767 -1, 759, 767, 768 -1, 768, 767, 776 -1, 768, 776, 645 -1, 463, 462, 705 -1, 705, 462, 721 -1, 705, 721, 722 -1, 722, 721, 730 -1, 722, 730, 731 -1, 731, 730, 739 -1, 731, 739, 740 -1, 740, 739, 748 -1, 740, 748, 749 -1, 749, 748, 757 -1, 749, 757, 758 -1, 758, 757, 766 -1, 758, 766, 767 -1, 767, 766, 775 -1, 767, 775, 776 -1, 776, 775, 784 -1, 776, 784, 645 -1, 645, 784, 791 -1, 462, 461, 721 -1, 721, 461, 729 -1, 721, 729, 730 -1, 730, 729, 738 -1, 730, 738, 739 -1, 739, 738, 747 -1, 739, 747, 748 -1, 748, 747, 756 -1, 748, 756, 757 -1, 757, 756, 765 -1, 757, 765, 766 -1, 766, 765, 774 -1, 766, 774, 775 -1, 775, 774, 783 -1, 775, 783, 784 -1, 784, 783, 790 -1, 784, 790, 791 -1, 791, 790, 799 -1, 791, 799, 645 -1, 461, 460, 729 -1, 729, 460, 737 -1, 729, 737, 738 -1, 738, 737, 746 -1, 738, 746, 747 -1, 747, 746, 755 -1, 747, 755, 756 -1, 756, 755, 764 -1, 756, 764, 765 -1, 765, 764, 773 -1, 765, 773, 774 -1, 774, 773, 782 -1, 774, 782, 783 -1, 783, 782, 789 -1, 783, 789, 790 -1, 790, 789, 798 -1, 790, 798, 799 -1, 799, 798, 807 -1, 799, 807, 645 -1, 460, 459, 737 -1, 737, 459, 745 -1, 737, 745, 746 -1, 746, 745, 754 -1, 746, 754, 755 -1, 755, 754, 763 -1, 755, 763, 764 -1, 764, 763, 772 -1, 764, 772, 773 -1, 773, 772, 781 -1, 773, 781, 782 -1, 782, 781, 788 -1, 782, 788, 789 -1, 789, 788, 797 -1, 789, 797, 798 -1, 798, 797, 806 -1, 798, 806, 807 -1, 807, 806, 815 -1, 807, 815, 645 -1, 459, 458, 745 -1, 745, 458, 753 -1, 745, 753, 754 -1, 754, 753, 762 -1, 754, 762, 763 -1, 763, 762, 771 -1, 763, 771, 772 -1, 772, 771, 780 -1, 772, 780, 781 -1, 781, 780, 787 -1, 781, 787, 788 -1, 788, 787, 796 -1, 788, 796, 797 -1, 797, 796, 805 -1, 797, 805, 806 -1, 806, 805, 814 -1, 806, 814, 815 -1, 815, 814, 823 -1, 815, 823, 645 -1, 458, 457, 753 -1, 753, 457, 761 -1, 753, 761, 762 -1, 762, 761, 770 -1, 762, 770, 771 -1, 771, 770, 779 -1, 771, 779, 780 -1, 780, 779, 786 -1, 780, 786, 787 -1, 787, 786, 795 -1, 787, 795, 796 -1, 796, 795, 804 -1, 796, 804, 805 -1, 805, 804, 813 -1, 805, 813, 814 -1, 814, 813, 822 -1, 814, 822, 823 -1, 823, 822, 830 -1, 823, 830, 645 -1, 457, 456, 761 -1, 761, 456, 769 -1, 761, 769, 770 -1, 770, 769, 778 -1, 770, 778, 779 -1, 779, 778, 785 -1, 779, 785, 786 -1, 786, 785, 794 -1, 786, 794, 795 -1, 795, 794, 803 -1, 795, 803, 804 -1, 804, 803, 812 -1, 804, 812, 813 -1, 813, 812, 821 -1, 813, 821, 822 -1, 822, 821, 829 -1, 822, 829, 830 -1, 830, 829, 839 -1, 830, 839, 645 -1, 456, 455, 769 -1, 769, 455, 777 -1, 769, 777, 778 -1, 778, 777, 648 -1, 778, 648, 785 -1, 785, 648, 793 -1, 785, 793, 794 -1, 794, 793, 802 -1, 794, 802, 803 -1, 803, 802, 811 -1, 803, 811, 812 -1, 812, 811, 820 -1, 812, 820, 821 -1, 821, 820, 828 -1, 821, 828, 829 -1, 829, 828, 840 -1, 829, 840, 839 -1, 839, 840, 838 -1, 839, 838, 645 -1, 455, 454, 777 -1, 777, 454, 648 -1, 454, 453, 648 -1, 648, 453, 792 -1, 648, 792, 793 -1, 793, 792, 801 -1, 793, 801, 802 -1, 802, 801, 810 -1, 802, 810, 811 -1, 811, 810, 819 -1, 811, 819, 820 -1, 820, 819, 827 -1, 820, 827, 828 -1, 828, 827, 841 -1, 828, 841, 840 -1, 840, 841, 837 -1, 840, 837, 838 -1, 838, 837, 854 -1, 838, 854, 645 -1, 453, 452, 792 -1, 792, 452, 800 -1, 792, 800, 801 -1, 801, 800, 809 -1, 801, 809, 810 -1, 810, 809, 818 -1, 810, 818, 819 -1, 819, 818, 826 -1, 819, 826, 827 -1, 827, 826, 842 -1, 827, 842, 841 -1, 841, 842, 836 -1, 841, 836, 837 -1, 837, 836, 853 -1, 837, 853, 854 -1, 854, 853, 861 -1, 854, 861, 645 -1, 452, 451, 800 -1, 800, 451, 808 -1, 800, 808, 809 -1, 809, 808, 817 -1, 809, 817, 818 -1, 818, 817, 825 -1, 818, 825, 826 -1, 826, 825, 843 -1, 826, 843, 842 -1, 842, 843, 835 -1, 842, 835, 836 -1, 836, 835, 852 -1, 836, 852, 853 -1, 853, 852, 860 -1, 853, 860, 861 -1, 861, 860, 870 -1, 861, 870, 645 -1, 451, 450, 808 -1, 808, 450, 816 -1, 808, 816, 817 -1, 817, 816, 824 -1, 817, 824, 825 -1, 825, 824, 844 -1, 825, 844, 843 -1, 843, 844, 834 -1, 843, 834, 835 -1, 835, 834, 851 -1, 835, 851, 852 -1, 852, 851, 859 -1, 852, 859, 860 -1, 860, 859, 871 -1, 860, 871, 870 -1, 870, 871, 869 -1, 870, 869, 645 -1, 450, 449, 816 -1, 816, 449, 647 -1, 816, 647, 824 -1, 824, 647, 845 -1, 824, 845, 844 -1, 844, 845, 833 -1, 844, 833, 834 -1, 834, 833, 850 -1, 834, 850, 851 -1, 851, 850, 858 -1, 851, 858, 859 -1, 859, 858, 872 -1, 859, 872, 871 -1, 871, 872, 868 -1, 871, 868, 869 -1, 869, 868, 885 -1, 869, 885, 645 -1, 449, 448, 647 -1, 647, 448, 846 -1, 647, 846, 845 -1, 845, 846, 832 -1, 845, 832, 833 -1, 833, 832, 849 -1, 833, 849, 850 -1, 850, 849, 857 -1, 850, 857, 858 -1, 858, 857, 873 -1, 858, 873, 872 -1, 872, 873, 867 -1, 872, 867, 868 -1, 868, 867, 884 -1, 868, 884, 885 -1, 885, 884, 893 -1, 885, 893, 645 -1, 846, 448, 831 -1, 831, 448, 447 -1, 831, 447, 847 -1, 847, 447, 446 -1, 847, 446, 646 -1, 646, 446, 445 -1, 646, 445, 877 -1, 877, 445, 862 -1, 877, 862, 863 -1, 863, 862, 879 -1, 863, 879, 880 -1, 880, 879, 888 -1, 880, 888, 889 -1, 889, 888, 897 -1, 889, 897, 898 -1, 898, 897, 906 -1, 898, 906, 907 -1, 907, 906, 915 -1, 907, 915, 916 -1, 916, 915, 643 -1, 916, 643, 644 -1, 445, 444, 862 -1, 862, 444, 878 -1, 862, 878, 879 -1, 879, 878, 887 -1, 879, 887, 888 -1, 888, 887, 896 -1, 888, 896, 897 -1, 897, 896, 905 -1, 897, 905, 906 -1, 906, 905, 914 -1, 906, 914, 915 -1, 915, 914, 642 -1, 915, 642, 643 -1, 444, 443, 878 -1, 878, 443, 886 -1, 878, 886, 887 -1, 887, 886, 895 -1, 887, 895, 896 -1, 896, 895, 904 -1, 896, 904, 905 -1, 905, 904, 913 -1, 905, 913, 914 -1, 914, 913, 641 -1, 914, 641, 642 -1, 443, 442, 886 -1, 886, 442, 894 -1, 886, 894, 895 -1, 895, 894, 903 -1, 895, 903, 904 -1, 904, 903, 912 -1, 904, 912, 913 -1, 913, 912, 640 -1, 913, 640, 641 -1, 442, 441, 894 -1, 894, 441, 902 -1, 894, 902, 903 -1, 903, 902, 911 -1, 903, 911, 912 -1, 912, 911, 639 -1, 912, 639, 640 -1, 441, 440, 902 -1, 902, 440, 910 -1, 902, 910, 911 -1, 911, 910, 638 -1, 911, 638, 639 -1, 440, 439, 910 -1, 910, 439, 638 -1, 916, 644, 917 -1, 917, 644, 645 -1, 643, 655, 644 -1, 644, 655, 656 -1, 644, 656, 645 -1, 645, 656, 664 -1, 655, 643, 654 -1, 654, 643, 642 -1, 654, 642, 653 -1, 653, 642, 641 -1, 653, 641, 652 -1, 652, 641, 640 -1, 652, 640, 651 -1, 651, 640, 639 -1, 651, 639, 650 -1, 650, 639, 638 -1, 650, 638, 649 -1, 917, 645, 909 -1, 909, 645, 901 -1, 901, 645, 893 -1, 768, 645, 760 -1, 760, 645, 752 -1, 752, 645, 744 -1, 744, 645, 736 -1, 728, 645, 712 -1, 712, 645, 713 -1, 713, 645, 704 -1, 704, 645, 696 -1, 696, 645, 688 -1, 688, 645, 680 -1, 680, 645, 672 -1, 672, 645, 664 -1, 736, 645, 728 -1, 649, 657, 650 -1, 650, 657, 658 -1, 650, 658, 651 -1, 651, 658, 659 -1, 651, 659, 652 -1, 652, 659, 660 -1, 652, 660, 653 -1, 653, 660, 661 -1, 653, 661, 654 -1, 654, 661, 662 -1, 654, 662, 655 -1, 655, 662, 663 -1, 655, 663, 656 -1, 656, 663, 664 -1, 658, 657, 666 -1, 666, 657, 665 -1, 666, 665, 674 -1, 674, 665, 673 -1, 674, 673, 682 -1, 682, 673, 681 -1, 682, 681, 690 -1, 690, 681, 689 -1, 690, 689, 698 -1, 698, 689, 697 -1, 698, 697, 719 -1, 719, 697, 720 -1, 719, 720, 706 -1, 659, 658, 667 -1, 667, 658, 666 -1, 667, 666, 675 -1, 675, 666, 674 -1, 675, 674, 683 -1, 683, 674, 682 -1, 683, 682, 691 -1, 691, 682, 690 -1, 691, 690, 699 -1, 699, 690, 698 -1, 699, 698, 718 -1, 718, 698, 719 -1, 718, 719, 707 -1, 707, 719, 706 -1, 707, 706, 723 -1, 660, 659, 668 -1, 668, 659, 667 -1, 668, 667, 676 -1, 676, 667, 675 -1, 676, 675, 684 -1, 684, 675, 683 -1, 684, 683, 692 -1, 692, 683, 691 -1, 692, 691, 700 -1, 700, 691, 699 -1, 700, 699, 717 -1, 717, 699, 718 -1, 717, 718, 708 -1, 708, 718, 707 -1, 708, 707, 724 -1, 724, 707, 723 -1, 724, 723, 732 -1, 661, 660, 669 -1, 669, 660, 668 -1, 669, 668, 677 -1, 677, 668, 676 -1, 677, 676, 685 -1, 685, 676, 684 -1, 685, 684, 693 -1, 693, 684, 692 -1, 693, 692, 701 -1, 701, 692, 700 -1, 701, 700, 716 -1, 716, 700, 717 -1, 716, 717, 709 -1, 709, 717, 708 -1, 709, 708, 725 -1, 725, 708, 724 -1, 725, 724, 733 -1, 733, 724, 732 -1, 733, 732, 741 -1, 662, 661, 670 -1, 670, 661, 669 -1, 670, 669, 678 -1, 678, 669, 677 -1, 678, 677, 686 -1, 686, 677, 685 -1, 686, 685, 694 -1, 694, 685, 693 -1, 694, 693, 702 -1, 702, 693, 701 -1, 702, 701, 715 -1, 715, 701, 716 -1, 715, 716, 710 -1, 710, 716, 709 -1, 710, 709, 726 -1, 726, 709, 725 -1, 726, 725, 734 -1, 734, 725, 733 -1, 734, 733, 742 -1, 742, 733, 741 -1, 742, 741, 750 -1, 672, 664, 663 -1, 663, 662, 671 -1, 671, 662, 670 -1, 671, 670, 679 -1, 679, 670, 678 -1, 679, 678, 687 -1, 687, 678, 686 -1, 687, 686, 695 -1, 695, 686, 694 -1, 695, 694, 703 -1, 703, 694, 702 -1, 703, 702, 714 -1, 714, 702, 715 -1, 714, 715, 711 -1, 711, 715, 710 -1, 711, 710, 727 -1, 727, 710, 726 -1, 727, 726, 735 -1, 735, 726, 734 -1, 735, 734, 743 -1, 743, 734, 742 -1, 743, 742, 751 -1, 751, 742, 750 -1, 751, 750, 759 -1, 680, 672, 671 -1, 671, 672, 663 -1, 680, 671, 679 -1, 688, 680, 679 -1, 688, 679, 687 -1, 696, 688, 687 -1, 696, 687, 695 -1, 704, 696, 695 -1, 704, 695, 703 -1, 713, 704, 703 -1, 713, 703, 714 -1, 713, 714, 712 -1, 712, 714, 711 -1, 712, 711, 728 -1, 728, 711, 727 -1, 728, 727, 736 -1, 736, 727, 735 -1, 736, 735, 744 -1, 744, 735, 743 -1, 744, 743, 752 -1, 752, 743, 751 -1, 752, 751, 760 -1, 760, 751, 759 -1, 760, 759, 768 -1, 846, 831, 832 -1, 832, 831, 848 -1, 832, 848, 849 -1, 849, 848, 856 -1, 849, 856, 857 -1, 857, 856, 874 -1, 857, 874, 873 -1, 873, 874, 866 -1, 873, 866, 867 -1, 867, 866, 883 -1, 867, 883, 884 -1, 884, 883, 892 -1, 884, 892, 893 -1, 893, 892, 901 -1, 831, 847, 848 -1, 848, 847, 855 -1, 848, 855, 856 -1, 856, 855, 875 -1, 856, 875, 874 -1, 874, 875, 865 -1, 874, 865, 866 -1, 866, 865, 882 -1, 866, 882, 883 -1, 883, 882, 891 -1, 883, 891, 892 -1, 892, 891, 900 -1, 892, 900, 901 -1, 901, 900, 909 -1, 847, 646, 855 -1, 855, 646, 876 -1, 855, 876, 875 -1, 875, 876, 864 -1, 875, 864, 865 -1, 865, 864, 881 -1, 865, 881, 882 -1, 882, 881, 890 -1, 882, 890, 891 -1, 891, 890, 899 -1, 891, 899, 900 -1, 900, 899, 908 -1, 900, 908, 909 -1, 909, 908, 917 -1, 877, 863, 876 -1, 876, 863, 864 -1, 881, 864, 880 -1, 880, 864, 863 -1, 646, 877, 876 -1, 890, 881, 889 -1, 889, 881, 880 -1, 899, 890, 898 -1, 898, 890, 889 -1, 908, 899, 907 -1, 907, 899, 898 -1, 917, 908, 916 -1, 916, 908, 907 -1, 918, 407, 929 -1, 929, 407, 438 -1, 929, 438, 437 -1, 929, 437, 937 -1, 937, 437, 436 -1, 937, 436, 945 -1, 945, 436, 435 -1, 945, 435, 953 -1, 953, 435, 434 -1, 953, 434, 961 -1, 961, 434, 433 -1, 961, 433, 969 -1, 969, 433, 432 -1, 969, 432, 977 -1, 977, 432, 431 -1, 977, 431, 1000 -1, 1000, 431, 985 -1, 1000, 985, 986 -1, 986, 985, 1002 -1, 986, 1002, 1003 -1, 1003, 1002, 1011 -1, 1003, 1011, 1012 -1, 1012, 1011, 1020 -1, 1012, 1020, 1021 -1, 1021, 1020, 1029 -1, 1021, 1029, 1030 -1, 1030, 1029, 1038 -1, 1030, 1038, 1039 -1, 1039, 1038, 1047 -1, 1039, 1047, 1048 -1, 1048, 1047, 1056 -1, 1048, 1056, 925 -1, 431, 430, 985 -1, 985, 430, 1001 -1, 985, 1001, 1002 -1, 1002, 1001, 1010 -1, 1002, 1010, 1011 -1, 1011, 1010, 1019 -1, 1011, 1019, 1020 -1, 1020, 1019, 1028 -1, 1020, 1028, 1029 -1, 1029, 1028, 1037 -1, 1029, 1037, 1038 -1, 1038, 1037, 1046 -1, 1038, 1046, 1047 -1, 1047, 1046, 1055 -1, 1047, 1055, 1056 -1, 1056, 1055, 1064 -1, 1056, 1064, 925 -1, 925, 1064, 1071 -1, 430, 429, 1001 -1, 1001, 429, 1009 -1, 1001, 1009, 1010 -1, 1010, 1009, 1018 -1, 1010, 1018, 1019 -1, 1019, 1018, 1027 -1, 1019, 1027, 1028 -1, 1028, 1027, 1036 -1, 1028, 1036, 1037 -1, 1037, 1036, 1045 -1, 1037, 1045, 1046 -1, 1046, 1045, 1054 -1, 1046, 1054, 1055 -1, 1055, 1054, 1063 -1, 1055, 1063, 1064 -1, 1064, 1063, 1070 -1, 1064, 1070, 1071 -1, 1071, 1070, 1079 -1, 1071, 1079, 925 -1, 429, 428, 1009 -1, 1009, 428, 1017 -1, 1009, 1017, 1018 -1, 1018, 1017, 1026 -1, 1018, 1026, 1027 -1, 1027, 1026, 1035 -1, 1027, 1035, 1036 -1, 1036, 1035, 1044 -1, 1036, 1044, 1045 -1, 1045, 1044, 1053 -1, 1045, 1053, 1054 -1, 1054, 1053, 1062 -1, 1054, 1062, 1063 -1, 1063, 1062, 1069 -1, 1063, 1069, 1070 -1, 1070, 1069, 1078 -1, 1070, 1078, 1079 -1, 1079, 1078, 1087 -1, 1079, 1087, 925 -1, 428, 427, 1017 -1, 1017, 427, 1025 -1, 1017, 1025, 1026 -1, 1026, 1025, 1034 -1, 1026, 1034, 1035 -1, 1035, 1034, 1043 -1, 1035, 1043, 1044 -1, 1044, 1043, 1052 -1, 1044, 1052, 1053 -1, 1053, 1052, 1061 -1, 1053, 1061, 1062 -1, 1062, 1061, 1068 -1, 1062, 1068, 1069 -1, 1069, 1068, 1077 -1, 1069, 1077, 1078 -1, 1078, 1077, 1086 -1, 1078, 1086, 1087 -1, 1087, 1086, 1095 -1, 1087, 1095, 925 -1, 427, 426, 1025 -1, 1025, 426, 1033 -1, 1025, 1033, 1034 -1, 1034, 1033, 1042 -1, 1034, 1042, 1043 -1, 1043, 1042, 1051 -1, 1043, 1051, 1052 -1, 1052, 1051, 1060 -1, 1052, 1060, 1061 -1, 1061, 1060, 1067 -1, 1061, 1067, 1068 -1, 1068, 1067, 1076 -1, 1068, 1076, 1077 -1, 1077, 1076, 1085 -1, 1077, 1085, 1086 -1, 1086, 1085, 1094 -1, 1086, 1094, 1095 -1, 1095, 1094, 1103 -1, 1095, 1103, 925 -1, 426, 425, 1033 -1, 1033, 425, 1041 -1, 1033, 1041, 1042 -1, 1042, 1041, 1050 -1, 1042, 1050, 1051 -1, 1051, 1050, 1059 -1, 1051, 1059, 1060 -1, 1060, 1059, 1066 -1, 1060, 1066, 1067 -1, 1067, 1066, 1075 -1, 1067, 1075, 1076 -1, 1076, 1075, 1084 -1, 1076, 1084, 1085 -1, 1085, 1084, 1093 -1, 1085, 1093, 1094 -1, 1094, 1093, 1102 -1, 1094, 1102, 1103 -1, 1103, 1102, 1110 -1, 1103, 1110, 925 -1, 425, 424, 1041 -1, 1041, 424, 1049 -1, 1041, 1049, 1050 -1, 1050, 1049, 1058 -1, 1050, 1058, 1059 -1, 1059, 1058, 1065 -1, 1059, 1065, 1066 -1, 1066, 1065, 1074 -1, 1066, 1074, 1075 -1, 1075, 1074, 1083 -1, 1075, 1083, 1084 -1, 1084, 1083, 1092 -1, 1084, 1092, 1093 -1, 1093, 1092, 1101 -1, 1093, 1101, 1102 -1, 1102, 1101, 1109 -1, 1102, 1109, 1110 -1, 1110, 1109, 1119 -1, 1110, 1119, 925 -1, 424, 423, 1049 -1, 1049, 423, 1057 -1, 1049, 1057, 1058 -1, 1058, 1057, 928 -1, 1058, 928, 1065 -1, 1065, 928, 1073 -1, 1065, 1073, 1074 -1, 1074, 1073, 1082 -1, 1074, 1082, 1083 -1, 1083, 1082, 1091 -1, 1083, 1091, 1092 -1, 1092, 1091, 1100 -1, 1092, 1100, 1101 -1, 1101, 1100, 1108 -1, 1101, 1108, 1109 -1, 1109, 1108, 1120 -1, 1109, 1120, 1119 -1, 1119, 1120, 1118 -1, 1119, 1118, 925 -1, 423, 422, 1057 -1, 1057, 422, 928 -1, 422, 421, 928 -1, 928, 421, 1072 -1, 928, 1072, 1073 -1, 1073, 1072, 1081 -1, 1073, 1081, 1082 -1, 1082, 1081, 1090 -1, 1082, 1090, 1091 -1, 1091, 1090, 1099 -1, 1091, 1099, 1100 -1, 1100, 1099, 1107 -1, 1100, 1107, 1108 -1, 1108, 1107, 1121 -1, 1108, 1121, 1120 -1, 1120, 1121, 1117 -1, 1120, 1117, 1118 -1, 1118, 1117, 1134 -1, 1118, 1134, 925 -1, 421, 420, 1072 -1, 1072, 420, 1080 -1, 1072, 1080, 1081 -1, 1081, 1080, 1089 -1, 1081, 1089, 1090 -1, 1090, 1089, 1098 -1, 1090, 1098, 1099 -1, 1099, 1098, 1106 -1, 1099, 1106, 1107 -1, 1107, 1106, 1122 -1, 1107, 1122, 1121 -1, 1121, 1122, 1116 -1, 1121, 1116, 1117 -1, 1117, 1116, 1133 -1, 1117, 1133, 1134 -1, 1134, 1133, 1141 -1, 1134, 1141, 925 -1, 420, 419, 1080 -1, 1080, 419, 1088 -1, 1080, 1088, 1089 -1, 1089, 1088, 1097 -1, 1089, 1097, 1098 -1, 1098, 1097, 1105 -1, 1098, 1105, 1106 -1, 1106, 1105, 1123 -1, 1106, 1123, 1122 -1, 1122, 1123, 1115 -1, 1122, 1115, 1116 -1, 1116, 1115, 1132 -1, 1116, 1132, 1133 -1, 1133, 1132, 1140 -1, 1133, 1140, 1141 -1, 1141, 1140, 1150 -1, 1141, 1150, 925 -1, 419, 418, 1088 -1, 1088, 418, 1096 -1, 1088, 1096, 1097 -1, 1097, 1096, 1104 -1, 1097, 1104, 1105 -1, 1105, 1104, 1124 -1, 1105, 1124, 1123 -1, 1123, 1124, 1114 -1, 1123, 1114, 1115 -1, 1115, 1114, 1131 -1, 1115, 1131, 1132 -1, 1132, 1131, 1139 -1, 1132, 1139, 1140 -1, 1140, 1139, 1151 -1, 1140, 1151, 1150 -1, 1150, 1151, 1149 -1, 1150, 1149, 925 -1, 418, 417, 1096 -1, 1096, 417, 927 -1, 1096, 927, 1104 -1, 1104, 927, 1125 -1, 1104, 1125, 1124 -1, 1124, 1125, 1113 -1, 1124, 1113, 1114 -1, 1114, 1113, 1130 -1, 1114, 1130, 1131 -1, 1131, 1130, 1138 -1, 1131, 1138, 1139 -1, 1139, 1138, 1152 -1, 1139, 1152, 1151 -1, 1151, 1152, 1148 -1, 1151, 1148, 1149 -1, 1149, 1148, 1165 -1, 1149, 1165, 925 -1, 417, 416, 927 -1, 927, 416, 1126 -1, 927, 1126, 1125 -1, 1125, 1126, 1112 -1, 1125, 1112, 1113 -1, 1113, 1112, 1129 -1, 1113, 1129, 1130 -1, 1130, 1129, 1137 -1, 1130, 1137, 1138 -1, 1138, 1137, 1153 -1, 1138, 1153, 1152 -1, 1152, 1153, 1147 -1, 1152, 1147, 1148 -1, 1148, 1147, 1164 -1, 1148, 1164, 1165 -1, 1165, 1164, 1173 -1, 1165, 1173, 925 -1, 1126, 416, 1111 -1, 1111, 416, 415 -1, 1111, 415, 1127 -1, 1127, 415, 414 -1, 1127, 414, 926 -1, 926, 414, 413 -1, 926, 413, 1157 -1, 1157, 413, 1142 -1, 1157, 1142, 1143 -1, 1143, 1142, 1159 -1, 1143, 1159, 1160 -1, 1160, 1159, 1168 -1, 1160, 1168, 1169 -1, 1169, 1168, 1177 -1, 1169, 1177, 1178 -1, 1178, 1177, 1186 -1, 1178, 1186, 1187 -1, 1187, 1186, 1195 -1, 1187, 1195, 1196 -1, 1196, 1195, 923 -1, 1196, 923, 924 -1, 413, 412, 1142 -1, 1142, 412, 1158 -1, 1142, 1158, 1159 -1, 1159, 1158, 1167 -1, 1159, 1167, 1168 -1, 1168, 1167, 1176 -1, 1168, 1176, 1177 -1, 1177, 1176, 1185 -1, 1177, 1185, 1186 -1, 1186, 1185, 1194 -1, 1186, 1194, 1195 -1, 1195, 1194, 922 -1, 1195, 922, 923 -1, 412, 411, 1158 -1, 1158, 411, 1166 -1, 1158, 1166, 1167 -1, 1167, 1166, 1175 -1, 1167, 1175, 1176 -1, 1176, 1175, 1184 -1, 1176, 1184, 1185 -1, 1185, 1184, 1193 -1, 1185, 1193, 1194 -1, 1194, 1193, 921 -1, 1194, 921, 922 -1, 411, 410, 1166 -1, 1166, 410, 1174 -1, 1166, 1174, 1175 -1, 1175, 1174, 1183 -1, 1175, 1183, 1184 -1, 1184, 1183, 1192 -1, 1184, 1192, 1193 -1, 1193, 1192, 920 -1, 1193, 920, 921 -1, 410, 409, 1174 -1, 1174, 409, 1182 -1, 1174, 1182, 1183 -1, 1183, 1182, 1191 -1, 1183, 1191, 1192 -1, 1192, 1191, 919 -1, 1192, 919, 920 -1, 409, 408, 1182 -1, 1182, 408, 1190 -1, 1182, 1190, 1191 -1, 1191, 1190, 918 -1, 1191, 918, 919 -1, 408, 407, 1190 -1, 1190, 407, 918 -1, 1196, 924, 1197 -1, 1197, 924, 925 -1, 923, 935, 924 -1, 924, 935, 936 -1, 924, 936, 925 -1, 925, 936, 944 -1, 935, 923, 934 -1, 934, 923, 922 -1, 934, 922, 933 -1, 933, 922, 921 -1, 933, 921, 932 -1, 932, 921, 920 -1, 932, 920, 931 -1, 931, 920, 919 -1, 931, 919, 930 -1, 930, 919, 918 -1, 930, 918, 929 -1, 1197, 925, 1189 -1, 1189, 925, 1181 -1, 1181, 925, 1173 -1, 1048, 925, 1040 -1, 1040, 925, 1032 -1, 1032, 925, 1024 -1, 1024, 925, 1016 -1, 1008, 925, 992 -1, 992, 925, 993 -1, 993, 925, 984 -1, 984, 925, 976 -1, 976, 925, 968 -1, 968, 925, 960 -1, 960, 925, 952 -1, 952, 925, 944 -1, 1016, 925, 1008 -1, 929, 937, 930 -1, 930, 937, 938 -1, 930, 938, 931 -1, 931, 938, 939 -1, 931, 939, 932 -1, 932, 939, 940 -1, 932, 940, 933 -1, 933, 940, 941 -1, 933, 941, 934 -1, 934, 941, 942 -1, 934, 942, 935 -1, 935, 942, 943 -1, 935, 943, 936 -1, 936, 943, 944 -1, 938, 937, 946 -1, 946, 937, 945 -1, 946, 945, 954 -1, 954, 945, 953 -1, 954, 953, 962 -1, 962, 953, 961 -1, 962, 961, 970 -1, 970, 961, 969 -1, 970, 969, 978 -1, 978, 969, 977 -1, 978, 977, 999 -1, 999, 977, 1000 -1, 999, 1000, 986 -1, 939, 938, 947 -1, 947, 938, 946 -1, 947, 946, 955 -1, 955, 946, 954 -1, 955, 954, 963 -1, 963, 954, 962 -1, 963, 962, 971 -1, 971, 962, 970 -1, 971, 970, 979 -1, 979, 970, 978 -1, 979, 978, 998 -1, 998, 978, 999 -1, 998, 999, 987 -1, 987, 999, 986 -1, 987, 986, 1003 -1, 940, 939, 948 -1, 948, 939, 947 -1, 948, 947, 956 -1, 956, 947, 955 -1, 956, 955, 964 -1, 964, 955, 963 -1, 964, 963, 972 -1, 972, 963, 971 -1, 972, 971, 980 -1, 980, 971, 979 -1, 980, 979, 997 -1, 997, 979, 998 -1, 997, 998, 988 -1, 988, 998, 987 -1, 988, 987, 1004 -1, 1004, 987, 1003 -1, 1004, 1003, 1012 -1, 941, 940, 949 -1, 949, 940, 948 -1, 949, 948, 957 -1, 957, 948, 956 -1, 957, 956, 965 -1, 965, 956, 964 -1, 965, 964, 973 -1, 973, 964, 972 -1, 973, 972, 981 -1, 981, 972, 980 -1, 981, 980, 996 -1, 996, 980, 997 -1, 996, 997, 989 -1, 989, 997, 988 -1, 989, 988, 1005 -1, 1005, 988, 1004 -1, 1005, 1004, 1013 -1, 1013, 1004, 1012 -1, 1013, 1012, 1021 -1, 942, 941, 950 -1, 950, 941, 949 -1, 950, 949, 958 -1, 958, 949, 957 -1, 958, 957, 966 -1, 966, 957, 965 -1, 966, 965, 974 -1, 974, 965, 973 -1, 974, 973, 982 -1, 982, 973, 981 -1, 982, 981, 995 -1, 995, 981, 996 -1, 995, 996, 990 -1, 990, 996, 989 -1, 990, 989, 1006 -1, 1006, 989, 1005 -1, 1006, 1005, 1014 -1, 1014, 1005, 1013 -1, 1014, 1013, 1022 -1, 1022, 1013, 1021 -1, 1022, 1021, 1030 -1, 952, 944, 943 -1, 943, 942, 951 -1, 951, 942, 950 -1, 951, 950, 959 -1, 959, 950, 958 -1, 959, 958, 967 -1, 967, 958, 966 -1, 967, 966, 975 -1, 975, 966, 974 -1, 975, 974, 983 -1, 983, 974, 982 -1, 983, 982, 994 -1, 994, 982, 995 -1, 994, 995, 991 -1, 991, 995, 990 -1, 991, 990, 1007 -1, 1007, 990, 1006 -1, 1007, 1006, 1015 -1, 1015, 1006, 1014 -1, 1015, 1014, 1023 -1, 1023, 1014, 1022 -1, 1023, 1022, 1031 -1, 1031, 1022, 1030 -1, 1031, 1030, 1039 -1, 960, 952, 951 -1, 951, 952, 943 -1, 960, 951, 959 -1, 968, 960, 959 -1, 968, 959, 967 -1, 976, 968, 967 -1, 976, 967, 975 -1, 984, 976, 975 -1, 984, 975, 983 -1, 993, 984, 983 -1, 993, 983, 994 -1, 993, 994, 992 -1, 992, 994, 991 -1, 992, 991, 1008 -1, 1008, 991, 1007 -1, 1008, 1007, 1016 -1, 1016, 1007, 1015 -1, 1016, 1015, 1024 -1, 1024, 1015, 1023 -1, 1024, 1023, 1032 -1, 1032, 1023, 1031 -1, 1032, 1031, 1040 -1, 1040, 1031, 1039 -1, 1040, 1039, 1048 -1, 1126, 1111, 1112 -1, 1112, 1111, 1128 -1, 1112, 1128, 1129 -1, 1129, 1128, 1136 -1, 1129, 1136, 1137 -1, 1137, 1136, 1154 -1, 1137, 1154, 1153 -1, 1153, 1154, 1146 -1, 1153, 1146, 1147 -1, 1147, 1146, 1163 -1, 1147, 1163, 1164 -1, 1164, 1163, 1172 -1, 1164, 1172, 1173 -1, 1173, 1172, 1181 -1, 1111, 1127, 1128 -1, 1128, 1127, 1135 -1, 1128, 1135, 1136 -1, 1136, 1135, 1155 -1, 1136, 1155, 1154 -1, 1154, 1155, 1145 -1, 1154, 1145, 1146 -1, 1146, 1145, 1162 -1, 1146, 1162, 1163 -1, 1163, 1162, 1171 -1, 1163, 1171, 1172 -1, 1172, 1171, 1180 -1, 1172, 1180, 1181 -1, 1181, 1180, 1189 -1, 1127, 926, 1135 -1, 1135, 926, 1156 -1, 1135, 1156, 1155 -1, 1155, 1156, 1144 -1, 1155, 1144, 1145 -1, 1145, 1144, 1161 -1, 1145, 1161, 1162 -1, 1162, 1161, 1170 -1, 1162, 1170, 1171 -1, 1171, 1170, 1179 -1, 1171, 1179, 1180 -1, 1180, 1179, 1188 -1, 1180, 1188, 1189 -1, 1189, 1188, 1197 -1, 1157, 1143, 1156 -1, 1156, 1143, 1144 -1, 1161, 1144, 1160 -1, 1160, 1144, 1143 -1, 926, 1157, 1156 -1, 1170, 1161, 1169 -1, 1169, 1161, 1160 -1, 1179, 1170, 1178 -1, 1178, 1170, 1169 -1, 1188, 1179, 1187 -1, 1187, 1179, 1178 -1, 1197, 1188, 1196 -1, 1196, 1188, 1187 -1, 1198, 1199, 1201 -1, 1201, 1199, 1200 -1, 1199, 1202, 1200 -1, 1200, 1202, 1203 -1, 1204, 1205, 1202 -1, 1202, 1205, 1203 -1, 1204, 1206, 1205 -1, 1205, 1206, 1207 -1, 1208, 1209, 1206 -1, 1206, 1209, 1207 -1, 1210, 1211, 1208 -1, 1208, 1211, 1209 -1, 1210, 1212, 1211 -1, 1211, 1212, 1213 -1, 1214, 1213, 1215 -1, 1215, 1213, 1212 -1, 1214, 1215, 1216 -1, 1216, 1215, 1217 -1, 1218, 1216, 1219 -1, 1219, 1216, 1217 -1, 1220, 1218, 1221 -1, 1221, 1218, 1219 -1, 1220, 1221, 1201 -1, 1201, 1221, 1198 -1, 1214, 1222, 1213 -1, 1213, 1222, 1223 -1, 1216, 1224, 1214 -1, 1214, 1224, 1222 -1, 1218, 1225, 1216 -1, 1216, 1225, 1224 -1, 1220, 1226, 1218 -1, 1218, 1226, 1225 -1, 1201, 1227, 1220 -1, 1220, 1227, 1226 -1, 1200, 1228, 1201 -1, 1201, 1228, 1227 -1, 1202, 1199, 1204 -1, 1204, 1199, 1198 -1, 1204, 1198, 1210 -1, 1210, 1198, 1217 -1, 1210, 1217, 1212 -1, 1212, 1217, 1215 -1, 1198, 1221, 1217 -1, 1217, 1221, 1219 -1, 1210, 1208, 1204 -1, 1204, 1208, 1206 -1, 1209, 1229, 1207 -1, 1207, 1229, 1230 -1, 1203, 1231, 1200 -1, 1200, 1231, 1228 -1, 1207, 1230, 1205 -1, 1205, 1230, 1232 -1, 1205, 1232, 1203 -1, 1203, 1232, 1231 -1, 7, 6, 24 -1, 24, 6, 1233 -1, 24, 1233, 23 -1, 23, 1233, 1234 -1, 23, 1234, 19 -1, 19, 18, 23 -1, 34, 33, 35 -1, 35, 33, 32 -1, 35, 32, 1235 -1, 1235, 32, 47 -1, 1236, 1237, 53 -1, 53, 1237, 49 -1, 53, 49, 48 -1, 48, 52, 53 -1, 42, 41, 53 -1, 53, 41, 1236 -1, 36, 35, 1238 -1, 1238, 35, 1235 -1, 1240, 1241, 1239 -1, 1239, 1241, 1242 -1, 1241, 1243, 1242 -1, 1242, 1243, 1244 -1, 1242, 1244, 1239 -1, 1239, 1244, 1245 -1, 1239, 1245, 1246 -1, 1246, 1247, 1239 -1, 1248, 1249, 1251 -1, 1251, 1249, 1250 -1, 86, 85, 101 -1, 101, 85, 1252 -1, 1249, 1253, 1250 -1, 1250, 1253, 1254 -1, 1255, 1253, 1261 -1, 1261, 1253, 1260 -1, 1260, 1253, 51 -1, 1260, 51, 50 -1, 1253, 1249, 51 -1, 51, 1249, 1259 -1, 1259, 1249, 98 -1, 1259, 98, 1256 -1, 1256, 98, 97 -1, 1249, 1248, 98 -1, 1256, 1257, 1259 -1, 1259, 1257, 1258 -1, 1248, 1251, 98 -1, 98, 1251, 99 -1, 70, 69, 71 -1, 71, 69, 68 -1, 71, 68, 73 -1, 73, 1262, 71 -1, 54, 71, 1263 -1, 1263, 71, 1262 -1, 1264, 212, 207 -1, 207, 212, 1269 -1, 207, 1269, 118 -1, 1265, 1266, 1264 -1, 1264, 1266, 221 -1, 1264, 221, 212 -1, 211, 1267, 212 -1, 212, 1267, 1268 -1, 212, 1268, 1269 -1, 211, 218, 1267 -1, 118, 117, 207 -1, 1264, 207, 206 -1, 1264, 206, 1265 -1, 1265, 206, 205 -1, 116, 115, 208 -1, 204, 163, 205 -1, 205, 163, 162 -1, 205, 162, 1266 -1, 1266, 1265, 205 -1, 185, 125, 184 -1, 184, 125, 124 -1, 182, 181, 156 -1, 156, 181, 157 -1, 1271, 1283, 1270 -1, 1270, 1283, 185 -1, 1270, 185, 174 -1, 174, 185, 175 -1, 1272, 1279, 1271 -1, 1271, 1279, 1280 -1, 1271, 1280, 1281 -1, 1273, 221, 1272 -1, 1272, 221, 1266 -1, 1272, 1266, 1276 -1, 1276, 1266, 113 -1, 1276, 113, 112 -1, 221, 1273, 222 -1, 222, 1273, 1274 -1, 222, 1274, 1275 -1, 1275, 1274, 174 -1, 174, 1274, 1270 -1, 126, 125, 1283 -1, 1283, 125, 185 -1, 1276, 1277, 1272 -1, 1272, 1277, 1278 -1, 1272, 1278, 1279 -1, 1281, 1282, 1271 -1, 1271, 1282, 1283 -1, 1252, 1284, 100 -1, 100, 1284, 96 -1, 100, 96, 95 -1, 100, 101, 1252 -1, 84, 83, 85 -1, 85, 83, 82 -1, 85, 82, 81 -1, 81, 80, 85 -1, 85, 80, 1255 -1, 85, 1255, 1252 -1, 1252, 1255, 1284 -1, 80, 79, 1255 -1, 1255, 79, 1254 -1, 1255, 1254, 1253 -1, 78, 60, 1286 -1, 1286, 60, 59 -1, 1286, 59, 58 -1, 1286, 58, 54 -1, 54, 58, 57 -1, 54, 57, 56 -1, 56, 55, 54 -1, 54, 1263, 1286 -1, 1286, 1263, 1285 -1, 1286, 1287, 78 -1, 72, 77, 73 -1, 73, 77, 1285 -1, 73, 1285, 1263 -1, 1263, 1262, 73 -1, 1288, 1245, 1243 -1, 1243, 1245, 1244 -1, 1289, 1290, 1240 -1, 1240, 1290, 1288 -1, 1240, 1288, 1243 -1, 1243, 1241, 1240 -1, 46, 51, 1235 -1, 1235, 51, 1259 -1, 1235, 1259, 1238 -1, 1235, 47, 46 -1, 182, 156, 183 -1, 183, 156, 159 -1, 1254, 79, 1251 -1, 1251, 79, 94 -1, 1251, 94, 99 -1, 1251, 1250, 1254 -1, 214, 164, 215 -1, 215, 164, 167 -1, 217, 1267, 218 -1, 1267, 217, 1268 -1, 1268, 217, 216 -1, 220, 219, 1293 -1, 1293, 219, 227 -1, 1293, 227, 226 -1, 1293, 226, 1292 -1, 1292, 226, 225 -1, 1292, 225, 1291 -1, 195, 110, 144 -1, 144, 110, 109 -1, 144, 109, 145 -1, 145, 109, 108 -1, 145, 108, 107 -1, 145, 107, 146 -1, 146, 107, 106 -1, 146, 106, 105 -1, 146, 105, 147 -1, 147, 105, 104 -1, 147, 104, 103 -1, 147, 103, 148 -1, 148, 103, 102 -1, 148, 102, 193 -1, 148, 193, 149 -1, 149, 193, 192 -1, 149, 192, 150 -1, 150, 192, 191 -1, 150, 191, 151 -1, 151, 191, 190 -1, 151, 190, 128 -1, 128, 190, 189 -1, 128, 189, 129 -1, 129, 189, 188 -1, 129, 188, 130 -1, 130, 188, 187 -1, 130, 187, 131 -1, 131, 187, 186 -1, 131, 186, 132 -1, 132, 186, 1282 -1, 132, 1282, 1281 -1, 132, 1281, 133 -1, 133, 1281, 1280 -1, 133, 1280, 134 -1, 134, 1280, 1279 -1, 134, 1279, 135 -1, 135, 1279, 1278 -1, 135, 1278, 136 -1, 136, 1278, 1277 -1, 136, 1277, 202 -1, 136, 202, 137 -1, 137, 202, 201 -1, 137, 201, 138 -1, 138, 201, 200 -1, 138, 200, 139 -1, 139, 200, 199 -1, 139, 199, 140 -1, 140, 199, 198 -1, 140, 198, 141 -1, 141, 198, 197 -1, 141, 197, 142 -1, 142, 197, 196 -1, 142, 196, 143 -1, 143, 196, 195 -1, 143, 195, 144 -1, 202, 1277, 203 -1, 203, 1277, 1276 -1, 1276, 112, 203 -1, 203, 112, 111 -1, 1282, 186, 1283 -1, 1283, 186, 194 -1, 127, 126, 194 -1, 194, 126, 1283 -1, 212, 221, 213 -1, 213, 221, 166 -1, 213, 166, 165 -1, 225, 224, 1291 -1, 1291, 224, 1295 -1, 1295, 224, 223 -1, 1295, 223, 1294 -1, 1294, 223, 222 -1, 1294, 222, 1275 -1, 161, 114, 162 -1, 162, 114, 113 -1, 162, 113, 1266 -1, 152, 155, 169 -1, 169, 155, 174 -1, 169, 174, 170 -1, 174, 155, 1275 -1, 1275, 155, 220 -1, 1275, 220, 1293 -1, 154, 173, 155 -1, 155, 173, 220 -1, 173, 172, 220 -1, 1293, 1292, 1275 -1, 1275, 1292, 1291 -1, 1275, 1291, 1294 -1, 1294, 1291, 1295 -1, 1296, 1297, 1299 -1, 1299, 1297, 1298 -1, 1297, 1300, 1298 -1, 1298, 1300, 1301 -1, 1296, 1302, 1297 -1, 1297, 1302, 1307 -1, 1297, 1307, 1300 -1, 1307, 1302, 1306 -1, 1306, 1302, 1303 -1, 1306, 1303, 1304 -1, 1304, 1305, 1306 -1, 1296, 1299, 1302 -1, 1302, 1299, 1308 -1, 1309, 1310, 1312 -1, 1312, 1310, 1311 -1, 1310, 1313, 1311 -1, 1311, 1313, 1314 -1, 1309, 1315, 1310 -1, 1310, 1315, 1320 -1, 1310, 1320, 1321 -1, 1320, 1315, 1319 -1, 1319, 1315, 1316 -1, 1319, 1316, 1317 -1, 1317, 1318, 1319 -1, 1321, 1313, 1310 -1, 1322, 1323, 1327 -1, 1327, 1323, 1326 -1, 1326, 1323, 382 -1, 1326, 382, 1325 -1, 1325, 382, 1324 -1, 1323, 1328, 382 -1, 1321, 1320, 1257 -1, 1309, 1312, 1315 -1, 1315, 1312, 1329 -1, 1330, 1331, 1333 -1, 1333, 1331, 1332 -1, 1331, 1334, 1332 -1, 1332, 1334, 1335 -1, 1330, 1336, 1331 -1, 1331, 1336, 1341 -1, 1331, 1341, 1334 -1, 1341, 1336, 1340 -1, 1340, 1336, 1337 -1, 1340, 1337, 1338 -1, 1338, 1339, 1340 -1, 1330, 1333, 1336 -1, 1336, 1333, 1342 -1, 1326, 1343, 1327 -1, 1327, 1343, 1345 -1, 1327, 1345, 1349 -1, 1349, 1345, 1346 -1, 1349, 1346, 1347 -1, 1343, 1344, 1345 -1, 1347, 1348, 1349 -1, 1344, 1343, 1351 -1, 1351, 1343, 1350 -1, 1352, 1356, 1324 -1, 1324, 1356, 1350 -1, 1324, 1350, 1325 -1, 1353, 1354, 1352 -1, 1352, 1354, 1355 -1, 1352, 1355, 1356 -1, 1356, 1351, 1350 -1, 1343, 1326, 1350 -1, 1350, 1326, 1325 -1, 1344, 1351, 1345 -1, 1345, 1351, 1356 -1, 1358, 1359, 1357 -1, 1357, 1359, 1360 -1, 1361, 1362, 1360 -1, 1360, 1362, 1357 -1, 1363, 1361, 1359 -1, 1359, 1361, 1360 -1, 1239, 1247, 1240 -1, 1240, 1247, 1289 -1, 1368, 1364, 1367 -1, 1367, 1364, 1365 -1, 1367, 1365, 1366 -1, 1366, 1369, 1367 -1, 1367, 1369, 1370 -1, 1367, 1370, 1371 -1, 1372, 1223, 1229 -1, 1229, 1223, 1366 -1, 1229, 1366, 1230 -1, 1230, 1366, 1365 -1, 1230, 1365, 1231 -1, 1231, 1365, 1373 -1, 1231, 1373, 1228 -1, 1228, 1373, 1226 -1, 1228, 1226, 1227 -1, 1223, 1222, 1366 -1, 1366, 1222, 1369 -1, 1369, 1222, 1225 -1, 1369, 1225, 1226 -1, 1222, 1224, 1225 -1, 1231, 1232, 1230 -1, 1373, 1369, 1226 -1, 1364, 1374, 1365 -1, 1365, 1374, 1373 -1, 1368, 1367, 1371 -1, 1374, 1370, 1373 -1, 1373, 1370, 1369 -1, 1368, 1371, 1270 -1, 1375, 1363, 1358 -1, 1358, 1363, 1359 -1, 1362, 1375, 1357 -1, 1357, 1375, 1358 -1, 40, 39, 41 -1, 41, 39, 1258 -1, 41, 1258, 1236 -1, 1236, 1258, 1237 -1, 39, 38, 1258 -1, 1258, 38, 37 -1, 1258, 37, 36 -1, 36, 1238, 1258 -1, 1258, 1238, 1259 -1, 178, 1268, 179 -1, 179, 1268, 216 -1, 122, 121, 177 -1, 1377, 1387, 1376 -1, 1376, 1387, 1388 -1, 1376, 1388, 1399 -1, 1399, 1388, 1389 -1, 1399, 1389, 1398 -1, 1398, 1389, 1390 -1, 1398, 1390, 1397 -1, 1397, 1390, 1391 -1, 1397, 1391, 1396 -1, 1396, 1391, 1392 -1, 1396, 1392, 1395 -1, 1395, 1392, 1393 -1, 1395, 1393, 1394 -1, 1387, 1377, 1386 -1, 1386, 1377, 1378 -1, 1386, 1378, 1385 -1, 1385, 1378, 1379 -1, 1385, 1379, 1384 -1, 1384, 1379, 1380 -1, 1384, 1380, 1383 -1, 1383, 1380, 1381 -1, 1383, 1381, 1382 -1, 1399, 1423, 1376 -1, 1376, 1423, 1400 -1, 1376, 1400, 1377 -1, 1377, 1400, 1401 -1, 1377, 1401, 1378 -1, 1378, 1401, 1402 -1, 1378, 1402, 1379 -1, 1379, 1402, 1403 -1, 1379, 1403, 1380 -1, 1380, 1403, 1404 -1, 1380, 1404, 1381 -1, 1381, 1404, 1405 -1, 1381, 1405, 1382 -1, 1382, 1405, 1406 -1, 1382, 1406, 1383 -1, 1383, 1406, 1407 -1, 1383, 1407, 1384 -1, 1384, 1407, 1408 -1, 1384, 1408, 1385 -1, 1385, 1408, 1409 -1, 1385, 1409, 1386 -1, 1386, 1409, 1410 -1, 1386, 1410, 1387 -1, 1387, 1410, 1411 -1, 1387, 1411, 1388 -1, 1388, 1411, 1412 -1, 1388, 1412, 1389 -1, 1389, 1412, 1413 -1, 1389, 1413, 1390 -1, 1390, 1413, 1414 -1, 1390, 1414, 1391 -1, 1391, 1414, 1415 -1, 1391, 1415, 1392 -1, 1392, 1415, 1416 -1, 1392, 1416, 1393 -1, 1393, 1416, 1417 -1, 1393, 1417, 1394 -1, 1394, 1417, 1418 -1, 1394, 1418, 1395 -1, 1395, 1418, 1419 -1, 1395, 1419, 1396 -1, 1396, 1419, 1420 -1, 1396, 1420, 1397 -1, 1397, 1420, 1421 -1, 1397, 1421, 1398 -1, 1398, 1421, 1422 -1, 1398, 1422, 1399 -1, 1399, 1422, 1423 -1, 406, 1401, 383 -1, 383, 1401, 1400 -1, 383, 1400, 384 -1, 384, 1400, 1423 -1, 384, 1423, 385 -1, 385, 1423, 1422 -1, 385, 1422, 386 -1, 386, 1422, 1421 -1, 386, 1421, 387 -1, 387, 1421, 1420 -1, 387, 1420, 388 -1, 388, 1420, 1419 -1, 388, 1419, 389 -1, 389, 1419, 1418 -1, 389, 1418, 390 -1, 390, 1418, 1417 -1, 390, 1417, 391 -1, 391, 1417, 1416 -1, 391, 1416, 392 -1, 392, 1416, 1415 -1, 392, 1415, 393 -1, 393, 1415, 1414 -1, 393, 1414, 394 -1, 394, 1414, 1413 -1, 394, 1413, 395 -1, 395, 1413, 1412 -1, 395, 1412, 396 -1, 396, 1412, 1411 -1, 396, 1411, 397 -1, 397, 1411, 1410 -1, 397, 1410, 398 -1, 398, 1410, 1409 -1, 398, 1409, 399 -1, 399, 1409, 1408 -1, 399, 1408, 400 -1, 400, 1408, 1407 -1, 400, 1407, 401 -1, 401, 1407, 1406 -1, 401, 1406, 402 -1, 402, 1406, 1405 -1, 402, 1405, 403 -1, 403, 1405, 1404 -1, 403, 1404, 404 -1, 404, 1404, 1403 -1, 404, 1403, 405 -1, 405, 1403, 1402 -1, 405, 1402, 406 -1, 406, 1402, 1401 -1, 1368, 1270, 1364 -1, 1364, 1270, 1274 -1, 1374, 1273, 1370 -1, 1370, 1273, 1272 -1, 1364, 1274, 1374 -1, 1374, 1274, 1273 -1, 121, 120, 177 -1, 119, 1269, 120 -1, 120, 1269, 177 -1, 119, 118, 1269 -1, 177, 1424, 178 -1, 178, 1424, 1425 -1, 1426, 1268, 1425 -1, 1425, 1268, 178 -1, 1269, 1427, 177 -1, 177, 1427, 1424 -1, 1427, 1269, 1426 -1, 1426, 1269, 1268 -1, 1363, 1432, 1361 -1, 1361, 1432, 1260 -1, 1361, 1260, 49 -1, 49, 1260, 50 -1, 1432, 1363, 1234 -1, 1234, 1363, 1375 -1, 1234, 1375, 19 -1, 19, 1375, 1353 -1, 19, 1353, 1430 -1, 1430, 1353, 1352 -1, 1353, 1375, 1348 -1, 1348, 1375, 1362 -1, 1348, 1362, 1428 -1, 1428, 1362, 1318 -1, 1318, 1362, 1237 -1, 1318, 1237, 1257 -1, 1257, 1237, 1258 -1, 1362, 1361, 1237 -1, 1237, 1361, 49 -1, 1257, 1319, 1318 -1, 1428, 1429, 1348 -1, 1348, 1429, 1349 -1, 1430, 20, 19 -1, 1234, 1431, 1432 -1, 1354, 1347, 1355 -1, 1355, 1347, 1346 -1, 1356, 1355, 1345 -1, 1345, 1355, 1346 -1, 1432, 1433, 1261 -1, 1260, 1432, 1261 -1, 1425, 1424, 1261 -1, 1261, 1424, 1427 -1, 1261, 1427, 1432 -1, 1432, 1427, 1426 -1, 1432, 1426, 1425 -1, 1432, 1425, 1261 -1, 5, 4, 6 -1, 6, 4, 3 -1, 6, 3, 1431 -1, 1431, 3, 2 -1, 1431, 2, 1 -1, 1, 0, 1431 -1, 1431, 0, 1434 -1, 1431, 1434, 1435 -1, 1234, 1233, 1431 -1, 1431, 1233, 6 -1, 0, 17, 1434 -1, 1434, 17, 22 -1, 1329, 1436, 1315 -1, 1315, 1436, 1316 -1, 1437, 1317, 1436 -1, 1436, 1317, 1316 -1, 1428, 1318, 1437 -1, 1437, 1318, 1317 -1, 1353, 1348, 1354 -1, 1354, 1348, 1347 -1, 1312, 1311, 1329 -1, 1329, 1311, 1322 -1, 1329, 1322, 1429 -1, 1314, 1328, 1311 -1, 1311, 1328, 1323 -1, 1311, 1323, 1322 -1, 1428, 1437, 1429 -1, 1429, 1437, 1436 -1, 1429, 1436, 1329 -1, 304, 1438, 302 -1, 302, 1438, 303 -1, 1290, 1284, 1288 -1, 1288, 1284, 1261 -1, 1288, 1261, 1433 -1, 1246, 1305, 1290 -1, 1290, 1305, 1442 -1, 1290, 1442, 96 -1, 96, 1442, 1256 -1, 96, 1256, 97 -1, 1245, 77, 1246 -1, 1246, 77, 1339 -1, 1246, 1339, 1440 -1, 1288, 1433, 1245 -1, 1245, 1433, 1285 -1, 1245, 1285, 77 -1, 1255, 1261, 1284 -1, 1433, 1286, 1285 -1, 76, 1439, 77 -1, 77, 1439, 1339 -1, 1439, 1340, 1339 -1, 1246, 1440, 1305 -1, 1305, 1440, 1441 -1, 1305, 1441, 1306 -1, 1442, 1443, 1256 -1, 96, 1284, 1290 -1, 1304, 1444, 1305 -1, 1305, 1444, 1442 -1, 1337, 1336, 1445 -1, 1445, 1336, 1342 -1, 1337, 1445, 1338 -1, 1338, 1445, 1446 -1, 1286, 1433, 1287 -1, 1287, 1433, 1435 -1, 1287, 1435, 21 -1, 1433, 1432, 1435 -1, 1435, 1432, 1431 -1, 20, 1430, 21 -1, 21, 1430, 1439 -1, 21, 1439, 75 -1, 75, 1439, 76 -1, 75, 1287, 21 -1, 1287, 75, 78 -1, 78, 75, 74 -1, 21, 1435, 22 -1, 22, 1435, 1434 -1, 1338, 1446, 1339 -1, 1339, 1446, 1440 -1, 266, 1438, 267 -1, 267, 1438, 304 -1, 1327, 1349, 1322 -1, 1322, 1349, 1429 -1, 1447, 472, 473 -1, 473, 472, 471 -1, 343, 1447, 344 -1, 344, 1447, 473 -1, 269, 303, 266 -1, 266, 303, 1438 -1, 1246, 1290, 1247 -1, 1247, 1290, 1289 -1, 1299, 1298, 1308 -1, 1308, 1298, 1448 -1, 1308, 1448, 1443 -1, 1298, 1301, 1448 -1, 1442, 1444, 1443 -1, 1443, 1444, 1449 -1, 1443, 1449, 1308 -1, 1303, 1302, 1449 -1, 1449, 1302, 1308 -1, 1303, 1449, 1304 -1, 1304, 1449, 1444 -1, 1320, 1319, 1257 -1, 1430, 1352, 382 -1, 382, 1352, 1324 -1, 346, 472, 343 -1, 343, 472, 1447 -1, 1441, 1450, 1306 -1, 1306, 1450, 1307 -1, 1333, 1332, 1342 -1, 1342, 1332, 1450 -1, 1342, 1450, 1441 -1, 1332, 1335, 1450 -1, 1440, 1446, 1441 -1, 1441, 1446, 1445 -1, 1441, 1445, 1342 -1, 1430, 382, 1439 -1, 1439, 382, 381 -1, 1340, 1439, 381 -1, 1341, 1340, 381 -1, 1321, 1257, 1313 -1, 1313, 1257, 379 -1, 1313, 379, 378 -1, 378, 369, 1313 -1, 1313, 369, 1314 -1, 1314, 369, 292 -1, 1314, 292, 301 -1, 301, 382, 1314 -1, 1314, 382, 1328 -1, 380, 379, 1256 -1, 1256, 379, 1257 -1, 1256, 1443, 380 -1, 1443, 1448, 380 -1, 1307, 1335, 1300 -1, 1300, 1335, 381 -1, 1300, 381, 380 -1, 1307, 1450, 1335 -1, 1335, 1334, 381 -1, 381, 1334, 1341 -1, 1448, 1301, 380 -1, 380, 1301, 1300 -1, 1370, 1272, 1371 -1, 1371, 1272, 1271 -1, 1371, 1271, 1270 -1, 1211, 1372, 1209 -1, 1209, 1372, 1229 -1, 1213, 1223, 1211 -1, 1211, 1223, 1372 -1 ] } }
